{
.appVersion = "983";
classes = (
{
automatic = 1;

glyphs = (
{
glyphname = A;
layers = (
{
anchors = (
{
name = bottom;
position = "{331, 0}";
},
{
name = ogonek;
position = "{609, 2}";
},
{
name = top;
position = "{331, 700}";
}
);
layerId = "D9DFF065-DDB2-4B0F-A853-E0DAE751FB65";
paths = (
{
closed = 1;
nodes = (
"64 0 LINE",
"336 676 LINE",
"342 676 LINE",
"596 0 LINE",
"619 0 LINE",
"357 700 LINE",
"323 700 LINE",
"41 0 LINE"
);
},
{
closed = 1;
nodes = (
"514 243 LINE",
"508 264 LINE",
"161 264 LINE",
"156 243 LINE"
);
}
);
width = 661;
},
{
anchors = (
{
name = bottom;
position = "{356, 0}";
},
{
name = ogonek;
position = "{636, 5}";
},
{
name = top;
position = "{356, 707}";
}
);
layerId = "EF8420CB-322A-4DAC-B980-DA6E6912705F";
paths = (
{
closed = 1;
nodes = (
"196 0 LINE",
"350 519 LINE",
"358 519 LINE",
"516 0 LINE",
"707 0 LINE",
"467 707 LINE",
"244 707 LINE",
"5 0 LINE"
);
},
{
closed = 1;
nodes = (
"516 144 LINE",
"481 306 LINE",
"229 306 LINE",
"195 144 LINE"
);
}
);
width = 712;
}
);
unicode = 0041;
},
{
glyphname = AE;
layers = (
{
anchors = (
{
name = bottom;
position = "{482, 0}";
},
{
name = top;
position = "{482, 700}";
}
);
components = (
{
name = E;
transform = "{1, 0, 0, 1, 358, 0}";
}
);
layerId = "D9DFF065-DDB2-4B0F-A853-E0DAE751FB65";
paths = (
{
closed = 1;
nodes = (
"81 0 LINE",
"472 669 LINE",
"478 669 LINE",
"478 0 LINE",
"499 0 LINE",
"499 700 LINE",
"466 700 LINE",
"51 0 LINE"
);
},
{
closed = 1;
nodes = (
"491 243 LINE",
"485 264 LINE",
"213 264 LINE",
"213 243 LINE"
);
}
);
width = 964;
},
{
anchors = (
{
name = bottom;
position = "{519, 0}";
},
{
name = top;
position = "{519, 707}";
}
);
components = (
{
name = E;
transform = "{1, 0, 0, 1, 403, 0}";
}
);
layerId = "EF8420CB-322A-4DAC-B980-DA6E6912705F";
paths = (
{
closed = 1;
nodes = (
"209 0 LINE",
"478 539 LINE",
"486 539 LINE",
"486 0 LINE",
"662 0 LINE",
"662 707 LINE",
"394 707 LINE",
"18 0 LINE"
);
},
{
closed = 1;
nodes = (
"543 144 LINE",
"543 306 LINE",
"268 306 LINE",
"268 144 LINE"
);
}
);
width = 1046;
}
);
rightMetricsKey = E;
unicode = 00C6;
},
{
glyphname = B;
layers = (
{
anchors = (
{
name = bottom;
position = "{297, 0}";
},
{
name = top;
position = "{297, 700}";
}
);
layerId = "D9DFF065-DDB2-4B0F-A853-E0DAE751FB65";
paths = (
{
closed = 1;
nodes = (
"349 0 LINE SMOOTH",
"495 0 OFFCURVE",
"592 72 OFFCURVE",
"592 179 CURVE SMOOTH",
"592 274 OFFCURVE",
"514 347 OFFCURVE",
"396 361 CURVE",
"396 363 LINE",
"479 376 OFFCURVE",
"535 440 OFFCURVE",
"535 523 CURVE SMOOTH",
"535 629 OFFCURVE",
"447 700 OFFCURVE",
"314 700 CURVE SMOOTH",
"120 700 LINE",
"120 0 LINE"
);
},
{
closed = 1;
nodes = (
"141 680 LINE",
"327 680 LINE SMOOTH",
"438 680 OFFCURVE",
"512 617 OFFCURVE",
"512 523 CURVE SMOOTH",
"512 431 OFFCURVE",
"438 369 OFFCURVE",
"327 369 CURVE SMOOTH",
"129 369 LINE",
"129 349 LINE",
"326 349 LINE SMOOTH",
"472 349 OFFCURVE",
"570 281 OFFCURVE",
"570 180 CURVE SMOOTH",
"570 84 OFFCURVE",
"486 20 OFFCURVE",
"359 20 CURVE SMOOTH",
"141 20 LINE"
);
}
);
width = 654;
},
{
anchors = (
{
name = bottom;
position = "{314, 0}";
},
{
name = top;
position = "{314, 707}";
}
);
layerId = "EF8420CB-322A-4DAC-B980-DA6E6912705F";
paths = (
{
closed = 1;
nodes = (
"379 0 LINE SMOOTH",
"538 0 OFFCURVE",
"644 79 OFFCURVE",
"644 198 CURVE SMOOTH",
"644 285 OFFCURVE",
"587 353 OFFCURVE",
"501 369 CURVE",
"501 371 LINE",
"560 397 OFFCURVE",
"599 459 OFFCURVE",
"599 526 CURVE SMOOTH",
"599 635 OFFCURVE",
"498 707 OFFCURVE",
"346 707 CURVE SMOOTH",
"83 707 LINE",
"83 0 LINE"
);
},
{
closed = 1;
nodes = (
"259 545 LINE",
"341 545 LINE SMOOTH",
"388 545 OFFCURVE",
"420 524 OFFCURVE",
"420 492 CURVE SMOOTH",
"420 461 OFFCURVE",
"388 440 OFFCURVE",
"341 440 CURVE SMOOTH",
"246 440 LINE",
"246 278 LINE",
"382 278 LINE SMOOTH",
"431 278 OFFCURVE",
"464 255 OFFCURVE",
"464 220 CURVE SMOOTH",
"464 186 OFFCURVE",
"432 162 OFFCURVE",
"383 162 CURVE SMOOTH",
"259 162 LINE"
);
}
);
width = 674;
}
);
unicode = 0042;
},
{
glyphname = C;
layers = (
{
anchors = (
{
name = bottom;
position = "{399, 0}";
},
{
name = top;
position = "{354, 700}";
}
);
layerId = "D9DFF065-DDB2-4B0F-A853-E0DAE751FB65";
paths = (
{
closed = 1;
nodes = (
"565 47 LINE",
"509 21 OFFCURVE",
"450 9 OFFCURVE",
"397 9 CURVE SMOOTH",
"220 9 OFFCURVE",
"99 145 OFFCURVE",
"99 348 CURVE SMOOTH",
"99 554 OFFCURVE",
"220 691 OFFCURVE",
"405 691 CURVE SMOOTH",
"464 691 OFFCURVE",
"518 677 OFFCURVE",
"565 659 CURVE",
"571 678 LINE",
"518 698 OFFCURVE",
"460 712 OFFCURVE",
"400 712 CURVE SMOOTH",
"206 712 OFFCURVE",
"77 566 OFFCURVE",
"77 348 CURVE SMOOTH",
"77 132 OFFCURVE",
"206 -12 OFFCURVE",
"390 -12 CURVE SMOOTH",
"441 -12 OFFCURVE",
"508 -1 OFFCURVE",
"571 28 CURVE"
);
}
);
width = 618;
},
{
anchors = (
{
name = bottom;
position = "{386, 0}";
},
{
name = top;
position = "{373, 707}";
}
);
layerId = "EF8420CB-322A-4DAC-B980-DA6E6912705F";
paths = (
{
closed = 1;
nodes = (
"548 190 LINE",
"507 168 OFFCURVE",
"451 154 OFFCURVE",
"400 154 CURVE SMOOTH",
"276 154 OFFCURVE",
"218 235 OFFCURVE",
"218 353 CURVE SMOOTH",
"218 473 OFFCURVE",
"278 553 OFFCURVE",
"403 553 CURVE SMOOTH",
"453 553 OFFCURVE",
"507 540 OFFCURVE",
"548 520 CURVE",
"585 674 LINE",
"528 701 OFFCURVE",
"457 719 OFFCURVE",
"384 719 CURVE SMOOTH",
"176 719 OFFCURVE",
"38 572 OFFCURVE",
"38 352 CURVE SMOOTH",
"38 134 OFFCURVE",
"174 -12 OFFCURVE",
"384 -12 CURVE SMOOTH",
"460 -12 OFFCURVE",
"527 7 OFFCURVE",
"585 36 CURVE"
);
}
);
width = 618;
}
);
unicode = 0043;
},
{
glyphname = D;
layers = (
{
anchors = (
{
name = bottom;
position = "{365, 0}";
},
{
name = center;
position = "{153, 350}";
},
{
name = top;
position = "{345, 700}";
}
);
layerId = "D9DFF065-DDB2-4B0F-A853-E0DAE751FB65";
paths = (
{
closed = 1;
nodes = (
"367 0 LINE SMOOTH",
"535 0 OFFCURVE",
"647 142 OFFCURVE",
"647 354 CURVE SMOOTH",
"647 562 OFFCURVE",
"535 700 OFFCURVE",
"367 700 CURVE SMOOTH",
"120 700 LINE",
"120 0 LINE"
);
},
{
closed = 1;
nodes = (
"141 680 LINE",
"361 680 LINE SMOOTH",
"519 680 OFFCURVE",
"625 550 OFFCURVE",
"625 354 CURVE SMOOTH",
"625 154 OFFCURVE",
"519 20 OFFCURVE",
"361 20 CURVE SMOOTH",
"141 20 LINE"
);
}
);
width = 725;
},
{
anchors = (
{
name = bottom;
position = "{352, 0}";
},
{
name = center;
position = "{199, 354}";
},
{
name = top;
position = "{352, 707}";
}
);
layerId = "EF8420CB-322A-4DAC-B980-DA6E6912705F";
paths = (
{
closed = 1;
nodes = (
"350 0 LINE SMOOTH",
"542 0 OFFCURVE",
"670 144 OFFCURVE",
"670 359 CURVE SMOOTH",
"670 568 OFFCURVE",
"542 707 OFFCURVE",
"350 707 CURVE SMOOTH",
"83 707 LINE",
"83 0 LINE"
);
},
{
closed = 1;
nodes = (
"259 541 LINE",
"344 541 LINE SMOOTH",
"431 541 OFFCURVE",
"490 468 OFFCURVE",
"490 358 CURVE SMOOTH",
"490 243 OFFCURVE",
"431 166 OFFCURVE",
"344 166 CURVE SMOOTH",
"259 166 LINE"
);
}
);
width = 707;
}
);
unicode = 0044;
},
{
glyphname = E;
layers = (
{
anchors = (
{
name = bottom;
position = "{329, 0}";
},
{
name = ogonek;
position = "{545, 2}";
},
{
name = top;
position = "{329, 700}";
},
{
name = topleft;
position = "{19, 700}";
}
);
layerId = "D9DFF065-DDB2-4B0F-A853-E0DAE751FB65";
paths = (
{
closed = 1;
nodes = (
"555 0 LINE",
"555 20 LINE",
"141 20 LINE",
"141 680 LINE",
"555 680 LINE",
"555 700 LINE",
"120 700 LINE",
"120 0 LINE"
);
},
{
closed = 1;
nodes = (
"528 354 LINE",
"528 374 LINE",
"136 374 LINE",
"136 354 LINE"
);
}
);
width = 606;
},
{
anchors = (
{
name = bottom;
position = "{321, 0}";
},
{
name = ogonek;
position = "{537, 5}";
},
{
name = top;
position = "{321, 707}";
},
{
name = topleft;
position = "{24, 707}";
}
);
layerId = "EF8420CB-322A-4DAC-B980-DA6E6912705F";
paths = (
{
closed = 1;
nodes = (
"579 0 LINE",
"579 162 LINE",
"259 162 LINE",
"259 545 LINE",
"579 545 LINE",
"579 707 LINE",
"83 707 LINE",
"83 0 LINE"
);
},
{
closed = 1;
nodes = (
"552 277 LINE",
"552 439 LINE",
"243 439 LINE",
"243 277 LINE"
);
}
);
width = 643;
}
);
unicode = 0045;
},
{
glyphname = F;
layers = (
{
anchors = (
{
name = bottom;
position = "{317, 0}";
},
{
name = top;
position = "{317, 700}";
}
);
layerId = "D9DFF065-DDB2-4B0F-A853-E0DAE751FB65";
paths = (
{
closed = 1;
nodes = (
"141 0 LINE",
"141 680 LINE",
"525 680 LINE",
"525 700 LINE",
"120 700 LINE",
"120 0 LINE"
);
},
{
closed = 1;
nodes = (
"499 334 LINE",
"499 354 LINE",
"136 354 LINE",
"136 334 LINE"
);
}
);
width = 567;
},
{
anchors = (
{
name = bottom;
position = "{278, 0}";
},
{
name = top;
position = "{278, 707}";
}
);
layerId = "EF8420CB-322A-4DAC-B980-DA6E6912705F";
paths = (
{
closed = 1;
nodes = (
"259 0 LINE",
"259 545 LINE",
"558 545 LINE",
"558 707 LINE",
"83 707 LINE",
"83 0 LINE"
);
},
{
closed = 1;
nodes = (
"541 253 LINE",
"541 415 LINE",
"169 415 LINE",
"169 253 LINE"
);
}
);
width = 599;
}
);
unicode = 0046;
},
{
glyphname = G;
layers = (
{
anchors = (
{
name = bottom;
position = "{357, 0}";
},
{
name = top;
position = "{377, 700}";
}
);
layerId = "D9DFF065-DDB2-4B0F-A853-E0DAE751FB65";
paths = (
{
closed = 1;
nodes = (
"478 -12 OFFCURVE",
"564 17 OFFCURVE",
"620 66 CURVE",
"620 343 LINE",
"337 343 LINE",
"337 323 LINE",
"599 323 LINE",
"599 77 LINE",
"549 34 OFFCURVE",
"469 9 OFFCURVE",
"393 9 CURVE SMOOTH",
"217 9 OFFCURVE",
"99 145 OFFCURVE",
"99 350 CURVE SMOOTH",
"99 555 OFFCURVE",
"219 691 OFFCURVE",
"411 691 CURVE SMOOTH",
"481 691 OFFCURVE",
"545 673 OFFCURVE",
"602 644 CURVE",
"608 663 LINE",
"546 694 OFFCURVE",
"479 712 OFFCURVE",
"408 712 CURVE SMOOTH",
"206 712 OFFCURVE",
"77 567 OFFCURVE",
"77 350 CURVE SMOOTH",
"77 133 OFFCURVE",
"203 -12 OFFCURVE",
"393 -12 CURVE SMOOTH"
);
}
);
width = 704;
},
{
anchors = (
{
name = bottom;
position = "{385, 0}";
},
{
name = top;
position = "{375, 707}";
}
);
layerId = "EF8420CB-322A-4DAC-B980-DA6E6912705F";
paths = (
{
closed = 1;
nodes = (
"479 -12 OFFCURVE",
"575 20 OFFCURVE",
"647 68 CURVE",
"647 428 LINE",
"341 428 LINE",
"341 266 LINE",
"491 266 LINE",
"491 182 LINE",
"465 165 OFFCURVE",
"433 154 OFFCURVE",
"392 154 CURVE SMOOTH",
"284 154 OFFCURVE",
"219 232 OFFCURVE",
"219 353 CURVE SMOOTH",
"219 471 OFFCURVE",
"279 553 OFFCURVE",
"413 553 CURVE SMOOTH",
"470 553 OFFCURVE",
"527 539 OFFCURVE",
"578 520 CURVE",
"615 674 LINE",
"555 701 OFFCURVE",
"470 719 OFFCURVE",
"390 719 CURVE SMOOTH",
"161 719 OFFCURVE",
"39 570 OFFCURVE",
"39 350 CURVE SMOOTH",
"39 131 OFFCURVE",
"176 -12 OFFCURVE",
"382 -12 CURVE SMOOTH"
);
}
);
width = 708;
}
);
unicode = 0047;
},
{
glyphname = H;
layers = (
{
anchors = (
{
name = bottom;
position = "{389, 0}";
},
{
name = center;
position = "{389, 574}";
},
{
name = top;
position = "{389, 707}";
},
{
name = topleft;
position = "{30, 707}";
}
);
layerId = "EF8420CB-322A-4DAC-B980-DA6E6912705F";
paths = (
{
closed = 1;
nodes = (
"508 0 LINE",
"684 0 LINE",
"684 707 LINE",
"508 707 LINE"
);
},
{
closed = 1;
nodes = (
"259 707 LINE",
"83 707 LINE",
"83 0 LINE",
"259 0 LINE"
);
},
{
closed = 1;
nodes = (
"524 444 LINE",
"243 444 LINE",
"243 282 LINE",
"524 282 LINE"
);
}
);
width = 767;
},
{
anchors = (
{
name = bottom;
position = "{376, 0}";
},
{
name = center;
position = "{376, 550}";
},
{
name = top;
position = "{376, 700}";
},
{
name = topleft;
position = "{13, 700}";
}
);
layerId = "D9DFF065-DDB2-4B0F-A853-E0DAE751FB65";
paths = (
{
closed = 1;
nodes = (
"610 0 LINE",
"631 0 LINE",
"631 700 LINE",
"610 700 LINE"
);
},
{
closed = 1;
nodes = (
"141 700 LINE",
"120 700 LINE",
"120 0 LINE",
"141 0 LINE"
);
},
{
closed = 1;
nodes = (
"615 381 LINE",
"136 381 LINE",
"136 361 LINE",
"615 361 LINE"
);
}
);
width = 751;
}
);
unicode = 0048;
},
{
glyphname = I;
layers = (
{
anchors = (
{
name = bottom;
position = "{130, 0}";
},
{
name = ogonek;
position = "{131, 2}";
},
{
name = top;
position = "{130, 700}";
},
{
name = topleft;
position = "{19, 700}";
}
);
layerId = "D9DFF065-DDB2-4B0F-A853-E0DAE751FB65";
paths = (
{
closed = 1;
nodes = (
"141 0 LINE",
"141 700 LINE",
"120 700 LINE",
"120 0 LINE"
);
}
);
width = 261;
},
{
anchors = (
{
name = bottom;
position = "{171, 0}";
},
{
name = ogonek;
position = "{217, 5}";
},
{
name = top;
position = "{171, 707}";
},
{
name = topleft;
position = "{27, 707}";
}
);
layerId = "EF8420CB-322A-4DAC-B980-DA6E6912705F";
paths = (
{
closed = 1;
nodes = (
"259 0 LINE",
"259 707 LINE",
"83 707 LINE",
"83 0 LINE"
);
}
);
width = 342;
}
);
unicode = 0049;
},
{
glyphname = J;
layers = (
{
anchors = (
{
name = bottom;
position = "{323, 0}";
},
{
name = top;
position = "{323, 700}";
}
);
layerId = "D9DFF065-DDB2-4B0F-A853-E0DAE751FB65";
paths = (
{
closed = 1;
nodes = (
"294 -12 OFFCURVE",
"362 59 OFFCURVE",
"362 166 CURVE SMOOTH",
"362 700 LINE",
"341 700 LINE",
"341 162 LINE SMOOTH",
"341 70 OFFCURVE",
"281 9 OFFCURVE",
"181 9 CURVE SMOOTH",
"136 9 OFFCURVE",
"74 22 OFFCURVE",
"39 41 CURVE",
"36 23 LINE",
"69 2 OFFCURVE",
"131 -12 OFFCURVE",
"181 -12 CURVE SMOOTH"
);
}
);
width = 476;
},
{
anchors = (
{
name = bottom;
position = "{250, 0}";
},
{
name = top;
position = "{250, 707}";
}
);
layerId = "EF8420CB-322A-4DAC-B980-DA6E6912705F";
paths = (
{
closed = 1;
nodes = (
"315 -12 OFFCURVE",
"416 83 OFFCURVE",
"416 226 CURVE SMOOTH",
"416 707 LINE",
"240 707 LINE",
"240 292 LINE SMOOTH",
"240 225 OFFCURVE",
"222 154 OFFCURVE",
"146 154 CURVE SMOOTH",
"118 154 OFFCURVE",
"71 164 OFFCURVE",
"29 179 CURVE",
"12 26 LINE",
"54 3 OFFCURVE",
"115 -12 OFFCURVE",
"171 -12 CURVE SMOOTH"
);
}
);
width = 488;
}
);
unicode = 004A;
},
{
glyphname = K;
layers = (
{
anchors = (
{
name = bottom;
position = "{285, 0}";
},
{
name = top;
position = "{285, 700}";
}
);
layerId = "D9DFF065-DDB2-4B0F-A853-E0DAE751FB65";
paths = (
{
closed = 1;
nodes = (
"141 0 LINE",
"141 700 LINE",
"120 700 LINE",
"120 0 LINE"
);
},
{
closed = 1;
nodes = (
"252 351 LINE",
"560 0 LINE",
"588 0 LINE",
"266 366 LINE"
);
},
{
closed = 1;
nodes = (
"141 214 LINE",
"552 700 LINE",
"524 700 LINE",
"141 243 LINE"
);
}
);
width = 623;
},
{
anchors = (
{
name = bottom;
position = "{355, 0}";
},
{
name = top;
position = "{355, 707}";
}
);
layerId = "EF8420CB-322A-4DAC-B980-DA6E6912705F";
paths = (
{
closed = 1;
nodes = (
"259 0 LINE",
"259 707 LINE",
"83 707 LINE",
"83 0 LINE"
);
},
{
closed = 1;
nodes = (
"329 291 LINE",
"502 0 LINE",
"706 0 LINE",
"435 420 LINE"
);
},
{
closed = 1;
nodes = (
"259 179 LINE",
"693 707 LINE",
"493 707 LINE",
"259 410 LINE"
);
}
);
width = 707;
}
);
unicode = 004B;
},
{
glyphname = L;
layers = (
{
anchors = (
{
name = bottom;
position = "{338, 0}";
},
{
name = center;
position = "{171, 366}";
},
{
name = top;
position = "{128, 700}";
},
{
name = topright;
position = "{249, 472}";
}
);
layerId = "D9DFF065-DDB2-4B0F-A853-E0DAE751FB65";
paths = (
{
closed = 1;
nodes = (
"141 0 LINE",
"141 700 LINE",
"120 700 LINE",
"120 0 LINE"
);
},
{
closed = 1;
nodes = (
"552 0 LINE",
"552 20 LINE",
"120 20 LINE",
"120 0 LINE"
);
}
);
width = 586;
},
{
anchors = (
{
name = bottom;
position = "{301, 0}";
},
{
name = center;
position = "{177, 404}";
},
{
name = top;
position = "{176, 707}";
},
{
name = topright;
position = "{400, 497}";
}
);
layerId = "EF8420CB-322A-4DAC-B980-DA6E6912705F";
paths = (
{
closed = 1;
nodes = (
"259 0 LINE",
"259 707 LINE",
"83 707 LINE",
"83 0 LINE"
);
},
{
closed = 1;
nodes = (
"555 0 LINE",
"555 162 LINE",
"83 162 LINE",
"83 0 LINE"
);
}
);
width = 569;
}
);
unicode = 004C;
},
{
glyphname = M;
layers = (
{
anchors = (
{
name = bottom;
position = "{438, 0}";
},
{
name = top;
position = "{438, 700}";
}
);
layerId = "D9DFF065-DDB2-4B0F-A853-E0DAE751FB65";
paths = (
{
closed = 1;
nodes = (
"141 0 LINE",
"141 679 LINE",
"146 679 LINE",
"427 189 LINE",
"448 189 LINE",
"730 679 LINE",
"735 679 LINE",
"735 0 LINE",
"756 0 LINE",
"756 700 LINE",
"718 700 LINE",
"441 215 LINE",
"433 215 LINE",
"157 700 LINE",
"120 700 LINE",
"120 0 LINE"
);
}
);
width = 876;
},
{
anchors = (
{
name = bottom;
position = "{441, 0}";
},
{
name = top;
position = "{441, 707}";
}
);
layerId = "EF8420CB-322A-4DAC-B980-DA6E6912705F";
paths = (
{
closed = 1;
nodes = (
"259 0 LINE",
"259 382 LINE",
"267 382 LINE",
"415 126 LINE",
"467 126 LINE",
"615 382 LINE",
"623 382 LINE",
"623 0 LINE",
"799 0 LINE",
"799 707 LINE",
"618 707 LINE",
"445 390 LINE",
"437 390 LINE",
"264 707 LINE",
"83 707 LINE",
"83 0 LINE"
);
}
);
width = 882;
}
);
unicode = 004D;
},
{
glyphname = N;
layers = (
{
anchors = (
{
name = bottom;
position = "{383, 0}";
},
{
name = hook;
position = "{632, 0}";
},
{
name = top;
position = "{383, 700}";
}
);
layerId = "D9DFF065-DDB2-4B0F-A853-E0DAE751FB65";
paths = (
{
closed = 1;
nodes = (
"141 0 LINE",
"141 670 LINE",
"145 670 LINE",
"619 0 LINE",
"646 0 LINE",
"646 700 LINE",
"625 700 LINE",
"625 30 LINE",
"621 30 LINE",
"149 700 LINE",
"120 700 LINE",
"120 0 LINE"
);
}
);
width = 766;
},
{
anchors = (
{
name = bottom;
position = "{396, 0}";
},
{
name = hook;
position = "{620, 0}";
},
{
name = top;
position = "{396, 707}";
}
);
layerId = "EF8420CB-322A-4DAC-B980-DA6E6912705F";
paths = (
{
closed = 1;
nodes = (
"259 0 LINE",
"259 402 LINE",
"267 402 LINE",
"518 0 LINE",
"709 0 LINE",
"709 707 LINE",
"533 707 LINE",
"533 295 LINE",
"525 295 LINE",
"274 707 LINE",
"83 707 LINE",
"83 0 LINE"
);
}
);
width = 792;
}
);
unicode = 004E;
},
{
glyphname = O;
layers = (
{
anchors = (
{
name = Qtail;
position = "{556, 132}";
},
{
name = bottom;
position = "{377, 0}";
},
{
name = center;
position = "{377, 354}";
},
{
name = ogonek;
position = "{425, 10}";
},
{
name = top;
position = "{377, 707}";
},
{
name = topleft;
position = "{9, 707}";
},
{
name = topright;
position = "{670, 707}";
}
);
layerId = "EF8420CB-322A-4DAC-B980-DA6E6912705F";
paths = (
{
closed = 1;
nodes = (
"580 -12 OFFCURVE",
"715 134 OFFCURVE",
"715 353 CURVE SMOOTH",
"715 573 OFFCURVE",
"580 719 OFFCURVE",
"377 719 CURVE SMOOTH",
"174 719 OFFCURVE",
"39 573 OFFCURVE",
"39 353 CURVE SMOOTH",
"39 134 OFFCURVE",
"174 -12 OFFCURVE",
"377 -12 CURVE SMOOTH"
);
},
{
closed = 1;
nodes = (
"282 154 OFFCURVE",
"219 234 OFFCURVE",
"219 353 CURVE SMOOTH",
"219 473 OFFCURVE",
"282 553 OFFCURVE",
"377 553 CURVE SMOOTH",
"472 553 OFFCURVE",
"535 473 OFFCURVE",
"535 353 CURVE SMOOTH",
"535 234 OFFCURVE",
"472 154 OFFCURVE",
"377 154 CURVE SMOOTH"
);
}
);
width = 753;
},
{
anchors = (
{
name = Qtail;
position = "{558, 57}";
},
{
name = bottom;
position = "{385, 0}";
},
{
name = center;
position = "{385, 350}";
},
{
name = ogonek;
position = "{460, 10}";
},
{
name = top;
position = "{385, 700}";
},
{
name = topleft;
position = "{-20, 700}";
},
{
name = topright;
position = "{549, 700}";
}
);
layerId = "D9DFF065-DDB2-4B0F-A853-E0DAE751FB65";
paths = (
{
closed = 1;
nodes = (
"569 -12 OFFCURVE",
"691 132 OFFCURVE",
"691 349 CURVE SMOOTH",
"691 567 OFFCURVE",
"569 712 OFFCURVE",
"385 712 CURVE SMOOTH",
"201 712 OFFCURVE",
"78 567 OFFCURVE",
"78 349 CURVE SMOOTH",
"78 132 OFFCURVE",
"201 -12 OFFCURVE",
"385 -12 CURVE SMOOTH"
);
},
{
closed = 1;
nodes = (
"214 9 OFFCURVE",
"100 145 OFFCURVE",
"100 349 CURVE SMOOTH",
"100 554 OFFCURVE",
"214 691 OFFCURVE",
"385 691 CURVE SMOOTH",
"555 691 OFFCURVE",
"669 554 OFFCURVE",
"669 349 CURVE SMOOTH",
"669 145 OFFCURVE",
"555 9 OFFCURVE",
"385 9 CURVE SMOOTH"
);
}
);
width = 769;
}
);
unicode = 004F;
},
{
glyphname = P;
layers = (
{
anchors = (
{
name = bottom;
position = "{329, 0}";
},
{
name = top;
position = "{329, 700}";
}
);
layerId = "D9DFF065-DDB2-4B0F-A853-E0DAE751FB65";
paths = (
{
closed = 1;
nodes = (
"141 0 LINE",
"141 680 LINE",
"359 680 LINE SMOOTH",
"481 680 OFFCURVE",
"563 602 OFFCURVE",
"563 488 CURVE SMOOTH",
"563 374 OFFCURVE",
"481 301 OFFCURVE",
"359 301 CURVE SMOOTH",
"132 301 LINE",
"132 281 LINE",
"365 281 LINE SMOOTH",
"497 281 OFFCURVE",
"585 362 OFFCURVE",
"585 488 CURVE SMOOTH",
"585 614 OFFCURVE",
"497 700 OFFCURVE",
"365 700 CURVE SMOOTH",
"120 700 LINE",
"120 0 LINE"
);
}
);
width = 645;
},
{
anchors = (
{
name = bottom;
position = "{329, 0}";
},
{
name = top;
position = "{329, 707}";
}
);
layerId = "EF8420CB-322A-4DAC-B980-DA6E6912705F";
paths = (
{
closed = 1;
nodes = (
"259 0 LINE",
"259 547 LINE",
"377 547 LINE SMOOTH",
"436 547 OFFCURVE",
"476 509 OFFCURVE",
"476 453 CURVE SMOOTH",
"476 396 OFFCURVE",
"436 358 OFFCURVE",
"377 358 CURVE SMOOTH",
"165 358 LINE",
"165 198 LINE",
"383 198 LINE SMOOTH",
"536 198 OFFCURVE",
"638 300 OFFCURVE",
"638 453 CURVE SMOOTH",
"638 605 OFFCURVE",
"536 707 OFFCURVE",
"383 707 CURVE SMOOTH",
"83 707 LINE",
"83 0 LINE"
);
}
);
width = 664;
}
);
unicode = 0050;
},
{
glyphname = Thorn;
layers = (
{
layerId = "D9DFF065-DDB2-4B0F-A853-E0DAE751FB65";
paths = (
{
closed = 1;
nodes = (
"133 540 LINE",
"374 540 LINE SMOOTH",
"499 540 OFFCURVE",
"583 462 OFFCURVE",
"583 344 CURVE SMOOTH",
"583 234 OFFCURVE",
"499 161 OFFCURVE",
"374 161 CURVE SMOOTH",
"132 161 LINE",
"132 141 LINE",
"380 141 LINE SMOOTH",
"515 141 OFFCURVE",
"605 222 OFFCURVE",
"605 344 CURVE SMOOTH",
"605 474 OFFCURVE",
"515 560 OFFCURVE",
"380 560 CURVE SMOOTH",
"133 560 LINE"
);
},
{
closed = 1;
nodes = (
"141 700 LINE",
"120 700 LINE",
"120 0 LINE",
"141 0 LINE"
);
}
);
width = 665;
},
{
layerId = "EF8420CB-322A-4DAC-B980-DA6E6912705F";
paths = (
{
closed = 1;
nodes = (
"169 454 LINE",
"379 454 LINE SMOOTH",
"444 454 OFFCURVE",
"483 419 OFFCURVE",
"483 360 CURVE SMOOTH",
"483 300 OFFCURVE",
"444 265 OFFCURVE",
"379 265 CURVE SMOOTH",
"162 265 LINE",
"162 105 LINE",
"385 105 LINE SMOOTH",
"541 105 OFFCURVE",
"645 207 OFFCURVE",
"645 360 CURVE SMOOTH",
"645 512 OFFCURVE",
"541 614 OFFCURVE",
"385 614 CURVE SMOOTH",
"169 614 LINE"
);
},
{
closed = 1;
nodes = (
"259 707 LINE",
"83 707 LINE",
"83 0 LINE",
"259 0 LINE"
);
}
);
width = 671;
}
);
leftMetricsKey = P;
rightMetricsKey = P;
unicode = 00DE;
},
{
glyphname = R;
layers = (
{
anchors = (
{
name = bottom;
position = "{314, 0}";
},
{
name = top;
position = "{314, 700}";
}
);
layerId = "D9DFF065-DDB2-4B0F-A853-E0DAE751FB65";
paths = (
{
closed = 1;
nodes = (
"577 0 LINE",
"601 0 LINE",
"395 326 LINE",
"371 326 LINE"
);
},
{
closed = 1;
nodes = (
"141 0 LINE",
"141 680 LINE",
"369 680 LINE SMOOTH",
"485 680 OFFCURVE",
"563 610 OFFCURVE",
"563 508 CURVE SMOOTH",
"563 406 OFFCURVE",
"485 341 OFFCURVE",
"369 341 CURVE SMOOTH",
"132 341 LINE",
"132 321 LINE",
"375 321 LINE SMOOTH",
"501 321 OFFCURVE",
"585 394 OFFCURVE",
"585 508 CURVE SMOOTH",
"585 622 OFFCURVE",
"501 700 OFFCURVE",
"375 700 CURVE SMOOTH",
"120 700 LINE",
"120 0 LINE"
);
}
);
width = 661;
},
{
anchors = (
{
name = bottom;
position = "{346, 0}";
},
{
name = top;
position = "{346, 707}";
}
);
layerId = "EF8420CB-322A-4DAC-B980-DA6E6912705F";
paths = (
{
closed = 1;
nodes = (
"484 0 LINE",
"674 0 LINE",
"506 281 LINE",
"325 281 LINE"
);
},
{
closed = 1;
nodes = (
"259 0 LINE",
"259 547 LINE",
"377 547 LINE SMOOTH",
"436 547 OFFCURVE",
"476 515 OFFCURVE",
"476 468 CURVE SMOOTH",
"476 420 OFFCURVE",
"436 388 OFFCURVE",
"377 388 CURVE SMOOTH",
"165 388 LINE",
"165 228 LINE",
"383 228 LINE SMOOTH",
"536 228 OFFCURVE",
"638 324 OFFCURVE",
"638 468 CURVE SMOOTH",
"638 611 OFFCURVE",
"536 707 OFFCURVE",
"383 707 CURVE SMOOTH",
"83 707 LINE",
"83 0 LINE"
);
}
);
width = 691;
}
);
unicode = 0052;
},
{
glyphname = S;
layers = (
{
anchors = (
{
name = bottom;
position = "{295, 0}";
},
{
name = top;
position = "{307, 700}";
}
);
layerId = "D9DFF065-DDB2-4B0F-A853-E0DAE751FB65";
paths = (
{
closed = 1;
nodes = (
"443 -12 OFFCURVE",
"546 63 OFFCURVE",
"546 179 CURVE SMOOTH",
"546 420 OFFCURVE",
"85 317 OFFCURVE",
"85 531 CURVE SMOOTH",
"85 629 OFFCURVE",
"182 690 OFFCURVE",
"312 690 CURVE SMOOTH",
"374 690 OFFCURVE",
"440 676 OFFCURVE",
"502 653 CURVE",
"508 672 LINE",
"440 697 OFFCURVE",
"374 711 OFFCURVE",
"311 711 CURVE SMOOTH",
"166 711 OFFCURVE",
"63 638 OFFCURVE",
"63 529 CURVE SMOOTH",
"63 298 OFFCURVE",
"524 396 OFFCURVE",
"524 176 CURVE SMOOTH",
"524 76 OFFCURVE",
"430 9 OFFCURVE",
"285 9 CURVE SMOOTH",
"216 9 OFFCURVE",
"138 24 OFFCURVE",
"75 47 CURVE",
"69 28 LINE",
"138 3 OFFCURVE",
"213 -12 OFFCURVE",
"284 -12 CURVE SMOOTH"
);
}
);
width = 606;
},
{
anchors = (
{
name = bottom;
position = "{321, 0}";
},
{
name = top;
position = "{301, 707}";
}
);
layerId = "EF8420CB-322A-4DAC-B980-DA6E6912705F";
paths = (
{
closed = 1;
nodes = (
"480 -12 OFFCURVE",
"606 53 OFFCURVE",
"606 215 CURVE SMOOTH",
"606 498 OFFCURVE",
"220 403 OFFCURVE",
"220 502 CURVE SMOOTH",
"220 535 OFFCURVE",
"263 553 OFFCURVE",
"340 553 CURVE SMOOTH",
"409 553 OFFCURVE",
"473 539 OFFCURVE",
"521 522 CURVE",
"558 676 LINE",
"494 702 OFFCURVE",
"419 719 OFFCURVE",
"338 719 CURVE SMOOTH",
"161 719 OFFCURVE",
"40 640 OFFCURVE",
"40 488 CURVE SMOOTH",
"40 217 OFFCURVE",
"426 322 OFFCURVE",
"426 212 CURVE SMOOTH",
"426 174 OFFCURVE",
"379 154 OFFCURVE",
"297 154 CURVE SMOOTH",
"225 154 OFFCURVE",
"155 169 OFFCURVE",
"91 190 CURVE",
"54 36 LINE",
"122 8 OFFCURVE",
"212 -12 OFFCURVE",
"308 -12 CURVE SMOOTH"
);
}
);
width = 637;
}
);
unicode = 0053;
},
{
glyphname = Germandbls;
layers = (
{
anchors = (
{
name = bottom;
position = "{324, 0}";
},
{
name = top;
position = "{324, 700}";
}
);
layerId = "D9DFF065-DDB2-4B0F-A853-E0DAE751FB65";
paths = (
{
closed = 1;
nodes = (
"519 -12 OFFCURVE",
"596 70 OFFCURVE",
"596 176 CURVE SMOOTH",
"596 282 OFFCURVE",
"518 354 OFFCURVE",
"410 382 CURVE",
"554 608 LINE",
"534 670 OFFCURVE",
"449 712 OFFCURVE",
"348 712 CURVE SMOOTH",
"204 712 OFFCURVE",
"111 627 OFFCURVE",
"111 500 CURVE SMOOTH",
"111 0 LINE",
"132 0 LINE",
"132 499 LINE SMOOTH",
"132 614 OFFCURVE",
"215 691 OFFCURVE",
"348 691 CURVE SMOOTH",
"433 691 OFFCURVE",
"511 659 OFFCURVE",
"531 608 CURVE",
"390 385 LINE",
"390 365 LINE",
"520 334 OFFCURVE",
"574 265 OFFCURVE",
"574 178 CURVE SMOOTH",
"574 81 OFFCURVE",
"506 9 OFFCURVE",
"406 9 CURVE SMOOTH",
"367 9 OFFCURVE",
"319 20 OFFCURVE",
"284 36 CURVE",
"281 14 LINE",
"316 -2 OFFCURVE",
"364 -12 OFFCURVE",
"404 -12 CURVE SMOOTH"
);
}
);
width = 666;
},
{
anchors = (
{
name = bottom;
position = "{342, 0}";
},
{
name = top;
position = "{342, 707}";
}
);
layerId = "EF8420CB-322A-4DAC-B980-DA6E6912705F";
paths = (
{
closed = 1;
nodes = (
"580 -12 OFFCURVE",
"661 80 OFFCURVE",
"661 198 CURVE SMOOTH",
"661 293 OFFCURVE",
"609 366 OFFCURVE",
"537 404 CURVE",
"618 548 LINE",
"579 657 OFFCURVE",
"469 719 OFFCURVE",
"348 719 CURVE SMOOTH",
"186 719 OFFCURVE",
"77 607 OFFCURVE",
"77 485 CURVE SMOOTH",
"77 0 LINE",
"253 0 LINE",
"253 484 LINE SMOOTH",
"253 527 OFFCURVE",
"287 553 OFFCURVE",
"341 553 CURVE SMOOTH",
"383 553 OFFCURVE",
"412 537 OFFCURVE",
"424 509 CURVE",
"356 380 LINE",
"356 307 LINE",
"435 291 OFFCURVE",
"481 248 OFFCURVE",
"481 205 CURVE SMOOTH",
"481 174 OFFCURVE",
"457 154 OFFCURVE",
"416 154 CURVE SMOOTH",
"392 154 OFFCURVE",
"369 160 OFFCURVE",
"341 172 CURVE",
"314 11 LINE",
"344 -3 OFFCURVE",
"399 -12 OFFCURVE",
"442 -12 CURVE SMOOTH"
);
}
);
width = 701;
}
);
unicode = 1E9E;
},
{
glyphname = Schwa;
layers = (
{
layerId = "D9DFF065-DDB2-4B0F-A853-E0DAE751FB65";
paths = (
{
closed = 1;
nodes = (
"557 -18 OFFCURVE",
"684 128 OFFCURVE",
"684 344 CURVE SMOOTH",
"684 565 OFFCURVE",
"552 712 OFFCURVE",
"356 712 CURVE SMOOTH",
"269 712 OFFCURVE",
"167 683 OFFCURVE",
"99 636 CURVE",
"108 618 LINE",
"170 662 OFFCURVE",
"267 691 OFFCURVE",
"352 691 CURVE SMOOTH",
"539 691 OFFCURVE",
"662 550 OFFCURVE",
"662 344 CURVE SMOOTH",
"662 141 OFFCURVE",
"543 3 OFFCURVE",
"370 3 CURVE SMOOTH",
"204 3 OFFCURVE",
"96 131 OFFCURVE",
"96 318 CURVE",
"679 318 LINE",
"679 338 LINE",
"74 338 LINE",
"74 318 LINE",
"74 117 OFFCURVE",
"192 -18 OFFCURVE",
"371 -18 CURVE SMOOTH"
);
}
);
width = 767;
},
{
layerId = "EF8420CB-322A-4DAC-B980-DA6E6912705F";
paths = (
{
closed = 1;
nodes = (
"560 -17 OFFCURVE",
"696 128 OFFCURVE",
"696 340 CURVE SMOOTH",
"696 570 OFFCURVE",
"537 721 OFFCURVE",
"313 721 CURVE SMOOTH",
"228 721 OFFCURVE",
"143 699 OFFCURVE",
"75 668 CURVE",
"109 518 LINE",
"159 540 OFFCURVE",
"226 555 OFFCURVE",
"292 555 CURVE SMOOTH",
"432 555 OFFCURVE",
"487 486 OFFCURVE",
"487 346 CURVE SMOOTH",
"487 210 OFFCURVE",
"435 149 OFFCURVE",
"357 149 CURVE SMOOTH",
"302 149 OFFCURVE",
"260 180 OFFCURVE",
"260 260 CURVE",
"507 260 LINE",
"507 415 LINE",
"60 415 LINE",
"60 271 LINE",
"60 92 OFFCURVE",
"179 -17 OFFCURVE",
"356 -17 CURVE SMOOTH"
);
}
);
width = 743;
}
);
unicode = 018F;
},
{
glyphname = T;
layers = (
{
anchors = (
{
name = bottom;
position = "{306, 0}";
},
{
name = center;
position = "{304, 350}";
},
{
name = top;
position = "{304, 700}";
}
);
layerId = "D9DFF065-DDB2-4B0F-A853-E0DAE751FB65";
paths = (
{
closed = 1;
nodes = (
"315 0 LINE",
"315 700 LINE",
"294 700 LINE",
"294 0 LINE"
);
},
{
closed = 1;
nodes = (
"574 700 LINE",
"34 700 LINE",
"34 680 LINE",
"574 680 LINE"
);
}
);
width = 608;
},
{
anchors = (
{
name = bottom;
position = "{299, 0}";
},
{
name = center;
position = "{305, 354}";
},
{
name = top;
position = "{305, 707}";
}
);
layerId = "EF8420CB-322A-4DAC-B980-DA6E6912705F";
paths = (
{
closed = 1;
nodes = (
"393 0 LINE",
"393 707 LINE",
"217 707 LINE",
"217 0 LINE"
);
},
{
closed = 1;
nodes = (
"596 707 LINE",
"14 707 LINE",
"14 545 LINE",
"596 545 LINE"
);
}
);
width = 610;
}
);
unicode = 0054;
},
{
glyphname = U;
layers = (
{
anchors = (
{
name = bottom;
position = "{377, 0}";
},
{
name = ogonek;
position = "{474, 8}";
},
{
name = top;
position = "{377, 700}";
},
{
name = topright;
position = "{707, 700}";
}
);
layerId = "D9DFF065-DDB2-4B0F-A853-E0DAE751FB65";
paths = (
{
closed = 1;
nodes = (
"539 -12 OFFCURVE",
"647 95 OFFCURVE",
"647 255 CURVE SMOOTH",
"647 700 LINE",
"626 700 LINE",
"626 255 LINE SMOOTH",
"626 107 OFFCURVE",
"526 9 OFFCURVE",
"376 9 CURVE SMOOTH",
"227 9 OFFCURVE",
"127 107 OFFCURVE",
"127 255 CURVE SMOOTH",
"127 700 LINE",
"106 700 LINE",
"106 255 LINE SMOOTH",
"106 95 OFFCURVE",
"214 -12 OFFCURVE",
"376 -12 CURVE SMOOTH"
);
}
);
width = 753;
},
{
anchors = (
{
name = bottom;
position = "{360, 0}";
},
{
name = ogonek;
position = "{433, 11}";
},
{
name = top;
position = "{360, 707}";
},
{
name = topright;
position = "{724, 707}";
}
);
layerId = "EF8420CB-322A-4DAC-B980-DA6E6912705F";
paths = (
{
closed = 1;
nodes = (
"534 -12 OFFCURVE",
"650 95 OFFCURVE",
"650 255 CURVE SMOOTH",
"650 707 LINE",
"474 707 LINE",
"474 255 LINE SMOOTH",
"474 194 OFFCURVE",
"428 154 OFFCURVE",
"359 154 CURVE SMOOTH",
"291 154 OFFCURVE",
"245 194 OFFCURVE",
"245 255 CURVE SMOOTH",
"245 707 LINE",
"69 707 LINE",
"69 255 LINE SMOOTH",
"69 95 OFFCURVE",
"185 -12 OFFCURVE",
"359 -12 CURVE SMOOTH"
);
}
);
width = 719;
}
);
unicode = 0055;
},
{
glyphname = V;
layers = (
{
anchors = (
{
name = bottom;
position = "{335, 0}";
},
{
name = top;
position = "{335, 700}";
}
);
layerId = "D9DFF065-DDB2-4B0F-A853-E0DAE751FB65";
paths = (
{
closed = 1;
nodes = (
"340 0 LINE",
"628 700 LINE",
"607 700 LINE",
"339 48 LINE",
"332 48 LINE",
"62 700 LINE",
"41 700 LINE",
"331 0 LINE"
);
}
);
width = 669;
},
{
anchors = (
{
name = bottom;
position = "{341, 0}";
},
{
name = top;
position = "{341, 707}";
}
);
layerId = "EF8420CB-322A-4DAC-B980-DA6E6912705F";
paths = (
{
closed = 1;
nodes = (
"452 0 LINE",
"674 707 LINE",
"483 707 LINE",
"345 168 LINE",
"338 168 LINE",
"198 707 LINE",
"7 707 LINE",
"229 0 LINE"
);
}
);
width = 681;
}
);
unicode = 0056;
},
{
glyphname = W;
layers = (
{
anchors = (
{
name = bottom;
position = "{496, 0}";
},
{
name = top;
position = "{496, 700}";
}
);
layerId = "D9DFF065-DDB2-4B0F-A853-E0DAE751FB65";
paths = (
{
closed = 1;
nodes = (
"271 0 LINE",
"283 0 LINE",
"497 675 LINE",
"499 675 LINE",
"708 0 LINE",
"721 0 LINE",
"946 700 LINE",
"923 700 LINE",
"718 50 LINE",
"712 50 LINE",
"513 700 LINE",
"484 700 LINE",
"278 50 LINE",
"273 50 LINE",
"68 700 LINE",
"45 700 LINE"
);
}
);
width = 991;
},
{
anchors = (
{
name = bottom;
position = "{517, 0}";
},
{
name = top;
position = "{517, 707}";
}
);
layerId = "EF8420CB-322A-4DAC-B980-DA6E6912705F";
paths = (
{
closed = 1;
nodes = (
"206 0 LINE",
"414 0 LINE",
"517 479 LINE",
"520 479 LINE",
"619 0 LINE",
"827 0 LINE",
"1023 707 LINE",
"839 707 LINE",
"732 181 LINE",
"725 181 LINE",
"626 707 LINE",
"407 707 LINE",
"310 181 LINE",
"302 181 LINE",
"194 707 LINE",
"10 707 LINE"
);
}
);
width = 1033;
}
);
unicode = 0057;
},
{
glyphname = X;
layers = (
{
anchors = (
{
name = bottom;
position = "{295, 0}";
},
{
name = top;
position = "{295, 700}";
}
);
layerId = "D9DFF065-DDB2-4B0F-A853-E0DAE751FB65";
paths = (
{
closed = 1;
nodes = (
"545 0 LINE",
"310 362 LINE",
"301 368 LINE",
"67 700 LINE",
"43 700 LINE",
"289 352 LINE",
"299 345 LINE",
"521 0 LINE"
);
},
{
closed = 1;
nodes = (
"68 0 LINE",
"546 700 LINE",
"522 700 LINE",
"44 0 LINE"
);
}
);
width = 590;
},
{
anchors = (
{
name = bottom;
position = "{350, 0}";
},
{
name = top;
position = "{350, 707}";
}
);
layerId = "EF8420CB-322A-4DAC-B980-DA6E6912705F";
paths = (
{
closed = 1;
nodes = (
"682 0 LINE",
"447 381 LINE",
"355 477 LINE",
"204 707 LINE",
"4 707 LINE",
"259 325 LINE",
"348 231 LINE",
"482 0 LINE"
);
},
{
closed = 1;
nodes = (
"209 0 LINE",
"687 707 LINE",
"487 707 LINE",
"9 0 LINE"
);
}
);
width = 692;
}
);
unicode = 0058;
},
{
glyphname = Y;
layers = (
{
anchors = (
{
name = bottom;
position = "{293, 0}";
},
{
name = top;
position = "{293, 700}";
},
{
name = topleft;
position = "{11, 700}";
}
);
layerId = "D9DFF065-DDB2-4B0F-A853-E0DAE751FB65";
paths = (
{
closed = 1;
nodes = (
"298 343 LINE",
"551 700 LINE",
"527 700 LINE",
"296 371 LINE",
"291 371 LINE",
"58 700 LINE",
"34 700 LINE",
"289 343 LINE"
);
},
{
closed = 1;
nodes = (
"282 0 LINE",
"303 0 LINE",
"303 360 LINE",
"282 360 LINE"
);
}
);
width = 585;
},
{
anchors = (
{
name = bottom;
position = "{335, 0}";
},
{
name = top;
position = "{335, 707}";
},
{
name = topleft;
position = "{13, 707}";
}
);
layerId = "EF8420CB-322A-4DAC-B980-DA6E6912705F";
paths = (
{
closed = 1;
nodes = (
"416 270 LINE",
"673 707 LINE",
"482 707 LINE",
"339 448 LINE",
"332 448 LINE",
"187 707 LINE",
"-4 707 LINE",
"253 270 LINE"
);
},
{
closed = 1;
nodes = (
"247 0 LINE",
"423 0 LINE",
"423 340 LINE",
"247 340 LINE"
);
}
);
width = 669;
}
);
unicode = 0059;
},
{
glyphname = Z;
layers = (
{
anchors = (
{
name = bottom;
position = "{289, 0}";
},
{
name = top;
position = "{289, 700}";
}
);
layerId = "D9DFF065-DDB2-4B0F-A853-E0DAE751FB65";
paths = (
{
closed = 1;
nodes = (
"532 0 LINE",
"532 20 LINE",
"74 20 LINE",
"74 23 LINE",
"529 683 LINE",
"529 700 LINE",
"58 700 LINE",
"58 680 LINE",
"498 680 LINE",
"498 677 LINE",
"44 16 LINE",
"44 0 LINE"
);
}
);
width = 577;
},
{
anchors = (
{
name = bottom;
position = "{313, 0}";
},
{
name = top;
position = "{313, 707}";
}
);
layerId = "EF8420CB-322A-4DAC-B980-DA6E6912705F";
paths = (
{
closed = 1;
nodes = (
"593 0 LINE",
"593 156 LINE",
"254 156 LINE",
"254 162 LINE",
"590 584 LINE",
"590 707 LINE",
"49 707 LINE",
"49 551 LINE",
"370 551 LINE",
"370 545 LINE",
"35 133 LINE",
"35 0 LINE"
);
}
);
width = 631;
}
);
unicode = 005A;
},
{
glyphname = a;
layers = (
{
anchors = (
{
name = bottom;
position = "{278, 0}";
},
{
name = ogonek;
position = "{463, 6}";
},
{
name = top;
position = "{277, 497}";
}
);
layerId = "EF8420CB-322A-4DAC-B980-DA6E6912705F";
paths = (
{
closed = 1;
nodes = (
"504 0 LINE",
"504 287 LINE SMOOTH",
"504 419 OFFCURVE",
"413 507 OFFCURVE",
"273 507 CURVE SMOOTH",
"208 507 OFFCURVE",
"132 488 OFFCURVE",
"69 460 CURVE",
"96 331 LINE",
"148 356 OFFCURVE",
"200 366 OFFCURVE",
"239 366 CURVE SMOOTH",
"300 366 OFFCURVE",
"330 341 OFFCURVE",
"330 287 CURVE SMOOTH",
"330 121 LINE",
"358 0 LINE"
);
},
{
closed = 1;
nodes = (
"256 -12 OFFCURVE",
"318 15 OFFCURVE",
"352 55 CURVE",
"352 173 LINE",
"322 142 OFFCURVE",
"284 116 OFFCURVE",
"244 116 CURVE SMOOTH",
"216 116 OFFCURVE",
"199 129 OFFCURVE",
"199 149 CURVE SMOOTH",
"199 185 OFFCURVE",
"254 198 OFFCURVE",
"351 198 CURVE",
"351 311 LINE",
"144 311 OFFCURVE",
"23 250 OFFCURVE",
"23 135 CURVE SMOOTH",
"23 48 OFFCURVE",
"91 -12 OFFCURVE",
"190 -12 CURVE SMOOTH"
);
}
);
width = 556;
},
{
anchors = (
{
name = bottom;
position = "{261, 0}";
},
{
name = ogonek;
position = "{422, 2}";
},
{
name = top;
position = "{251, 472}";
}
);
layerId = "D9DFF065-DDB2-4B0F-A853-E0DAE751FB65";
paths = (
{
closed = 1;
nodes = (
"432 0 LINE",
"432 304 LINE SMOOTH",
"432 422 OFFCURVE",
"365 484 OFFCURVE",
"253 484 CURVE SMOOTH",
"196 484 OFFCURVE",
"135 468 OFFCURVE",
"84 442 CURVE",
"90 425 LINE",
"138 450 OFFCURVE",
"203 464 OFFCURVE",
"253 464 CURVE SMOOTH",
"353 464 OFFCURVE",
"412 409 OFFCURVE",
"412 304 CURVE SMOOTH",
"412 67 LINE",
"416 0 LINE"
);
},
{
closed = 1;
nodes = (
"270 -12 OFFCURVE",
"360 17 OFFCURVE",
"420 61 CURVE",
"420 77 LINE",
"356 36 OFFCURVE",
"267 8 OFFCURVE",
"201 8 CURVE SMOOTH",
"118 8 OFFCURVE",
"66 52 OFFCURVE",
"66 113 CURVE SMOOTH",
"66 210 OFFCURVE",
"197 265 OFFCURVE",
"420 265 CURVE",
"420 284 LINE",
"184 284 OFFCURVE",
"45 222 OFFCURVE",
"45 112 CURVE SMOOTH",
"45 40 OFFCURVE",
"105 -12 OFFCURVE",
"199 -12 CURVE SMOOTH"
);
}
);
width = 520;
}
);
unicode = 0061;
},
{
glyphname = c;
layers = (
{
anchors = (
{
name = bottom;
position = "{260, 0}";
},
{
name = top;
position = "{269, 472}";
}
);
layerId = "D9DFF065-DDB2-4B0F-A853-E0DAE751FB65";
paths = (
{
closed = 1;
nodes = (
"335 -12 OFFCURVE",
"394 6 OFFCURVE",
"428 34 CURVE",
"422 51 LINE",
"387 26 OFFCURVE",
"342 8 OFFCURVE",
"287 8 CURVE SMOOTH",
"162 8 OFFCURVE",
"84 99 OFFCURVE",
"84 236 CURVE SMOOTH",
"84 373 OFFCURVE",
"162 464 OFFCURVE",
"287 464 CURVE SMOOTH",
"334 464 OFFCURVE",
"377 451 OFFCURVE",
"415 432 CURVE",
"421 449 LINE",
"385 470 OFFCURVE",
"328 484 OFFCURVE",
"280 484 CURVE SMOOTH",
"150 484 OFFCURVE",
"63 385 OFFCURVE",
"63 236 CURVE SMOOTH",
"63 87 OFFCURVE",
"150 -12 OFFCURVE",
"280 -12 CURVE SMOOTH"
);
}
);
width = 461;
},
{
anchors = (
{
name = bottom;
position = "{284, 0}";
},
{
name = top;
position = "{263, 497}";
}
);
layerId = "EF8420CB-322A-4DAC-B980-DA6E6912705F";
paths = (
{
closed = 1;
nodes = (
"325 -12 OFFCURVE",
"368 -9 OFFCURVE",
"431 7 CURVE",
"404 145 LINE",
"371 134 OFFCURVE",
"339 132 OFFCURVE",
"321 132 CURVE SMOOTH",
"231 132 OFFCURVE",
"193 180 OFFCURVE",
"193 248 CURVE SMOOTH",
"193 319 OFFCURVE",
"235 365 OFFCURVE",
"311 365 CURVE SMOOTH",
"343 365 OFFCURVE",
"379 357 OFFCURVE",
"404 346 CURVE",
"431 484 LINE",
"377 503 OFFCURVE",
"329 509 OFFCURVE",
"291 509 CURVE SMOOTH",
"134 509 OFFCURVE",
"29 405 OFFCURVE",
"29 248 CURVE SMOOTH",
"29 92 OFFCURVE",
"133 -12 OFFCURVE",
"297 -12 CURVE SMOOTH"
);
}
);
width = 460;
}
);
unicode = 0063;
},
{
glyphname = eth;
layers = (
{
anchors = (
{
name = _center;
position = "{272, 618}";
}
);
layerId = "D9DFF065-DDB2-4B0F-A853-E0DAE751FB65";
paths = (
{
closed = 1;
nodes = (
"399 425 OFFCURVE",
"478 343 OFFCURVE",
"478 219 CURVE SMOOTH",
"478 95 OFFCURVE",
"398 11 OFFCURVE",
"279 11 CURVE SMOOTH",
"161 11 OFFCURVE",
"82 93 OFFCURVE",
"82 217 CURVE SMOOTH",
"82 342 OFFCURVE",
"161 425 OFFCURVE",
"280 425 CURVE SMOOTH"
);
},
{
closed = 1;
nodes = (
"328 623 OFFCURVE",
"447 482 OFFCURVE",
"468 344 CURVE",
"463 344 LINE",
"431 405 OFFCURVE",
"357 445 OFFCURVE",
"274 445 CURVE SMOOTH",
"147 445 OFFCURVE",
"61 352 OFFCURVE",
"61 217 CURVE SMOOTH",
"61 80 OFFCURVE",
"150 -9 OFFCURVE",
"282 -9 CURVE SMOOTH",
"421 -9 OFFCURVE",
"499 87 OFFCURVE",
"499 243 CURVE SMOOTH",
"499 442 OFFCURVE",
"369 629 OFFCURVE",
"175 717 CURVE",
"169 700 LINE"
);
},
{
closed = 1;
nodes = (
"200 550 LINE",
"411 719 LINE",
"400 732 LINE",
"189 562 LINE"
);
}
);
width = 572;
},
{
anchors = (
{
name = _center;
position = "{276, 603}";
}
);
layerId = "EF8420CB-322A-4DAC-B980-DA6E6912705F";
paths = (
{
closed = 1;
nodes = (
"302 311 OFFCURVE",
"327 273 OFFCURVE",
"327 216 CURVE SMOOTH",
"327 167 OFFCURVE",
"302 135 OFFCURVE",
"265 135 CURVE SMOOTH",
"230 135 OFFCURVE",
"207 167 OFFCURVE",
"207 216 CURVE SMOOTH",
"207 273 OFFCURVE",
"230 311 OFFCURVE",
"265 311 CURVE SMOOTH"
);
},
{
closed = 1;
nodes = (
"266 547 OFFCURVE",
"319 505 OFFCURVE",
"343 436 CURVE",
"338 436 LINE",
"324 447 OFFCURVE",
"295 455 OFFCURVE",
"265 455 CURVE SMOOTH",
"126 455 OFFCURVE",
"33 359 OFFCURVE",
"33 216 CURVE SMOOTH",
"33 81 OFFCURVE",
"126 -9 OFFCURVE",
"265 -9 CURVE SMOOTH",
"407 -9 OFFCURVE",
"501 81 OFFCURVE",
"501 216 CURVE SMOOTH",
"501 520 OFFCURVE",
"419 643 OFFCURVE",
"145 754 CURVE",
"116 619 LINE"
);
},
{
closed = 1;
nodes = (
"186 466 LINE",
"447 660 LINE",
"379 749 LINE",
"118 554 LINE"
);
}
);
width = 550;
}
);
unicode = 00F0;
},
{
glyphname = e;
layers = (
{
anchors = (
{
name = bottom;
position = "{271, 0}";
},
{
name = ogonek;
position = "{428, 17}";
},
{
name = top;
position = "{271, 497}";
}
);
layerId = "EF8420CB-322A-4DAC-B980-DA6E6912705F";
paths = (
{
closed = 1;
nodes = (
"381 -12 OFFCURVE",
"442 1 OFFCURVE",
"490 21 CURVE",
"463 147 LINE",
"424 135 OFFCURVE",
"373 122 OFFCURVE",
"321 122 CURVE SMOOTH",
"229 122 OFFCURVE",
"202 161 OFFCURVE",
"202 248 CURVE SMOOTH",
"202 335 OFFCURVE",
"228 372 OFFCURVE",
"274 372 CURVE SMOOTH",
"309 372 OFFCURVE",
"335 351 OFFCURVE",
"335 306 CURVE",
"178 306 LINE",
"178 198 LINE",
"501 198 LINE",
"501 296 LINE",
"501 423 OFFCURVE",
"411 504 OFFCURVE",
"277 504 CURVE SMOOTH",
"128 504 OFFCURVE",
"28 402 OFFCURVE",
"28 252 CURVE SMOOTH",
"28 92 OFFCURVE",
"141 -12 OFFCURVE",
"319 -12 CURVE SMOOTH"
);
}
);
width = 545;
},
{
anchors = (
{
name = bottom;
position = "{268, 0}";
},
{
name = ogonek;
position = "{434, 28}";
},
{
name = top;
position = "{269, 472}";
}
);
layerId = "D9DFF065-DDB2-4B0F-A853-E0DAE751FB65";
paths = (
{
closed = 1;
nodes = (
"349 -12 OFFCURVE",
"419 7 OFFCURVE",
"465 39 CURVE",
"459 56 LINE",
"417 27 OFFCURVE",
"351 8 OFFCURVE",
"293 8 CURVE SMOOTH",
"165 8 OFFCURVE",
"83 100 OFFCURVE",
"83 238 CURVE SMOOTH",
"83 374 OFFCURVE",
"163 464 OFFCURVE",
"279 464 CURVE SMOOTH",
"389 464 OFFCURVE",
"461 382 OFFCURVE",
"461 259 CURVE",
"72 259 LINE",
"72 240 LINE",
"482 240 LINE",
"482 259 LINE",
"482 395 OFFCURVE",
"401 484 OFFCURVE",
"279 484 CURVE SMOOTH",
"150 484 OFFCURVE",
"62 385 OFFCURVE",
"62 238 CURVE SMOOTH",
"62 88 OFFCURVE",
"153 -12 OFFCURVE",
"290 -12 CURVE SMOOTH"
);
}
);
width = 538;
}
);
unicode = 0065;
},
{
glyphname = f;
layers = (
{
anchors = (
{
name = bottom;
position = "{115, 0}";
},
{
name = top;
position = "{196, 718}";
}
);
layerId = "D9DFF065-DDB2-4B0F-A853-E0DAE751FB65";
paths = (
{
closed = 1;
nodes = (
"125 0 LINE",
"125 612 LINE SMOOTH",
"125 674 OFFCURVE",
"159 710 OFFCURVE",
"214 710 CURVE SMOOTH",
"236 710 OFFCURVE",
"259 704 OFFCURVE",
"279 695 CURVE",
"285 712 LINE",
"263 723 OFFCURVE",
"239 730 OFFCURVE",
"213 730 CURVE SMOOTH",
"147 730 OFFCURVE",
"105 686 OFFCURVE",
"105 612 CURVE SMOOTH",
"105 0 LINE"
);
},
{
closed = 1;
nodes = (
"276 453 LINE",
"276 472 LINE",
"25 472 LINE",
"25 453 LINE"
);
}
);
width = 290;
},
{
anchors = (
{
name = bottom;
position = "{177, 0}";
},
{
name = top;
position = "{258, 719}";
}
);
layerId = "EF8420CB-322A-4DAC-B980-DA6E6912705F";
paths = (
{
closed = 1;
nodes = (
"261 0 LINE",
"261 518 LINE SMOOTH",
"261 564 OFFCURVE",
"290 594 OFFCURVE",
"333 594 CURVE SMOOTH",
"349 594 OFFCURVE",
"371 590 OFFCURVE",
"388 585 CURVE",
"415 717 LINE",
"381 731 OFFCURVE",
"335 740 OFFCURVE",
"293 740 CURVE SMOOTH",
"164 740 OFFCURVE",
"88 655 OFFCURVE",
"88 528 CURVE SMOOTH",
"88 0 LINE"
);
},
{
closed = 1;
nodes = (
"397 357 LINE",
"397 497 LINE",
"25 497 LINE",
"25 357 LINE"
);
}
);
width = 402;
}
);
unicode = 0066;
},
{
glyphname = h;
layers = (
{
anchors = (
{
name = bottom;
position = "{285, 0}";
},
{
name = center;
position = "{181, 606}";
},
{
name = top;
position = "{154, 718}";
}
);
components = (
{
name = _n;
transform = "{1, 0, 0, 1, 18, 0}";
}
);
layerId = "EF8420CB-322A-4DAC-B980-DA6E6912705F";
paths = (
{
closed = 1;
nodes = (
"241 0 LINE",
"241 728 LINE",
"67 728 LINE",
"67 0 LINE"
);
}
);
width = 620;
},
{
anchors = (
{
name = bottom;
position = "{268, 0}";
},
{
name = center;
position = "{158, 588}";
},
{
name = top;
position = "{106, 718}";
}
);
components = (
{
name = _n;
transform = "{1, 0, 0, 1, -6, 0}";
}
);
layerId = "D9DFF065-DDB2-4B0F-A853-E0DAE751FB65";
paths = (
{
closed = 1;
nodes = (
"116 0 LINE",
"116 718 LINE",
"96 718 LINE",
"96 0 LINE"
);
}
);
width = 562;
}
);
unicode = 0068;
},
{
glyphname = idotless;
layers = (
{
anchors = (
{
name = bottom;
position = "{158, 0}";
},
{
name = ogonek;
position = "{202, 5}";
},
{
name = top;
position = "{158, 497}";
}
);
layerId = "EF8420CB-322A-4DAC-B980-DA6E6912705F";
paths = (
{
closed = 1;
nodes = (
"244 0 LINE",
"244 497 LINE",
"71 497 LINE",
"71 0 LINE"
);
}
);
width = 315;
},
{
anchors = (
{
name = bottom;
position = "{106, 0}";
},
{
name = ogonek;
position = "{106, 2}";
},
{
name = top;
position = "{106, 472}";
}
);
layerId = "D9DFF065-DDB2-4B0F-A853-E0DAE751FB65";
paths = (
{
closed = 1;
nodes = (
"116 0 LINE",
"116 472 LINE",
"96 472 LINE",
"96 0 LINE"
);
}
);
width = 212;
}
);
unicode = 0131;
},
{
glyphname = jdotless;
layers = (
{
anchors = (
{
name = bottom;
position = "{106, -218}";
},
{
name = top;
position = "{106, 472}";
}
);
layerId = "D9DFF065-DDB2-4B0F-A853-E0DAE751FB65";
paths = (
{
closed = 1;
nodes = (
"91 -230 OFFCURVE",
"116 -202 OFFCURVE",
"116 -160 CURVE SMOOTH",
"116 472 LINE",
"96 472 LINE",
"96 -160 LINE SMOOTH",
"96 -190 OFFCURVE",
"79 -210 OFFCURVE",
"51 -210 CURVE SMOOTH",
"37 -210 OFFCURVE",
"21 -205 OFFCURVE",
"9 -197 CURVE",
"3 -214 LINE",
"16 -224 OFFCURVE",
"35 -230 OFFCURVE",
"53 -230 CURVE SMOOTH"
);
}
);
width = 212;
},
{
anchors = (
{
name = bottom;
position = "{158, 0}";
},
{
name = top;
position = "{158, 497}";
}
);
layerId = "EF8420CB-322A-4DAC-B980-DA6E6912705F";
paths = (
{
closed = 1;
nodes = (
"185 -230 OFFCURVE",
"244 -170 OFFCURVE",
"244 -80 CURVE SMOOTH",
"244 497 LINE",
"71 497 LINE",
"71 -30 LINE SMOOTH",
"71 -68 OFFCURVE",
"56 -81 OFFCURVE",
"39 -81 CURVE SMOOTH",
"32 -81 OFFCURVE",
"20 -79 OFFCURVE",
"13 -75 CURVE",
"-13 -209 LINE",
"19 -224 OFFCURVE",
"68 -230 OFFCURVE",
"96 -230 CURVE SMOOTH"
);
}
);
width = 315;
}
);
unicode = 0237;
},
{
glyphname = k;
layers = (
{
anchors = (
{
name = bottom;
position = "{203, 0}";
},
{
name = top;
position = "{106, 718}";
}
);
components = (
{
name = _k;
transform = "{1, 0, 0, 1, -47, 0}";
}
);
layerId = "D9DFF065-DDB2-4B0F-A853-E0DAE751FB65";
paths = (
{
closed = 1;
nodes = (
"116 0 LINE",
"116 718 LINE",
"96 718 LINE",
"96 0 LINE"
);
}
);
width = 470;
},
{
anchors = (
{
name = bottom;
position = "{301, 0}";
},
{
name = top;
position = "{153, 728}";
}
);
components = (
{
name = _k;
transform = "{1, 0, 0, 1, 77, 0}";
}
);
layerId = "EF8420CB-322A-4DAC-B980-DA6E6912705F";
paths = (
{
closed = 1;
nodes = (
"240 0 LINE",
"240 728 LINE",
"67 728 LINE",
"67 0 LINE"
);
}
);
width = 598;
}
);
unicode = 006B;
},
{
glyphname = kgreenlandic;
layers = (
{
anchors = (
{
name = bottom;
position = "{300, 0}";
},
{
name = top;
position = "{300, 472}";
}
);
components = (
{
name = _k;
transform = "{1, 0, 0, 1, -47, 0}";
}
);
layerId = "D9DFF065-DDB2-4B0F-A853-E0DAE751FB65";
paths = (
{
closed = 1;
nodes = (
"116 0 LINE",
"116 472 LINE",
"96 472 LINE",
"96 0 LINE"
);
}
);
width = 482;
},
{
anchors = (
{
name = bottom;
position = "{310, 0}";
},
{
name = top;
position = "{310, 497}";
}
);
components = (
{
name = _k;
transform = "{1, 0, 0, 1, 82, 0}";
}
);
layerId = "EF8420CB-322A-4DAC-B980-DA6E6912705F";
paths = (
{
closed = 1;
nodes = (
"245 0 LINE",
"245 497 LINE",
"71 497 LINE",
"71 0 LINE"
);
}
);
width = 609;
}
);
unicode = 0138;
},
{
glyphname = l;
layers = (
{
anchors = (
{
name = bottom;
position = "{147, 0}";
},
{
name = center;
position = "{126, 380}";
},
{
name = top;
position = "{106, 718}";
},
{
name = topright;
position = "{208, 472}";
}
);
layerId = "D9DFF065-DDB2-4B0F-A853-E0DAE751FB65";
paths = (
{
closed = 1;
nodes = (
"181 -12 OFFCURVE",
"198 -8 OFFCURVE",
"212 -2 CURVE",
"206 15 LINE",
"195 11 OFFCURVE",
"180 8 OFFCURVE",
"168 8 CURVE SMOOTH",
"136 8 OFFCURVE",
"115 28 OFFCURVE",
"115 57 CURVE SMOOTH",
"115 718 LINE",
"95 718 LINE",
"95 57 LINE SMOOTH",
"95 16 OFFCURVE",
"125 -12 OFFCURVE",
"166 -12 CURVE SMOOTH"
);
}
);
width = 223;
},
{
anchors = (
{
name = bottom;
position = "{190, 0}";
},
{
name = center;
position = "{158, 399}";
},
{
name = top;
position = "{158, 718}";
},
{
name = topright;
position = "{332, 497}";
}
);
layerId = "EF8420CB-322A-4DAC-B980-DA6E6912705F";
paths = (
{
closed = 1;
nodes = (
"248 -12 OFFCURVE",
"289 -4 OFFCURVE",
"317 12 CURVE",
"291 138 LINE",
"285 134 OFFCURVE",
"277 132 OFFCURVE",
"270 132 CURVE SMOOTH",
"248 132 OFFCURVE",
"234 143 OFFCURVE",
"234 174 CURVE SMOOTH",
"234 728 LINE",
"60 728 LINE",
"60 149 LINE SMOOTH",
"60 52 OFFCURVE",
"124 -12 OFFCURVE",
"215 -12 CURVE SMOOTH"
);
}
);
width = 324;
}
);
unicode = 006C;
},
{
glyphname = m;
layers = (
{
anchors = (
{
name = bottom;
position = "{444, 0}";
},
{
name = top;
position = "{444, 472}";
}
);
components = (
{
name = _n;
transform = "{1, 0, 0, 1, -15, 0}";
},
{
name = _n;
transform = "{1, 0, 0, 1, 332, 0}";
}
);
layerId = "D9DFF065-DDB2-4B0F-A853-E0DAE751FB65";
paths = (
{
closed = 1;
nodes = (
"116 0 LINE",
"116 398 LINE",
"112 472 LINE",
"96 472 LINE",
"96 0 LINE"
);
}
);
width = 900;
},
{
anchors = (
{
name = bottom;
position = "{429, 0}";
},
{
name = top;
position = "{429, 497}";
}
);
components = (
{
name = _n;
transform = "{1, 0, 0, 1, -6, 0}";
},
{
name = _n;
transform = "{1, 0, 0, 1, 291, 0}";
}
);
layerId = "EF8420CB-322A-4DAC-B980-DA6E6912705F";
paths = (
{
closed = 1;
nodes = (
"240 0 LINE",
"240 386 LINE",
"212 497 LINE",
"67 497 LINE",
"67 0 LINE"
);
}
);
width = 893;
}
);
unicode = 006D;
},
{
glyphname = o;
layers = (
{
anchors = (
{
name = bottom;
position = "{285, 0}";
},
{
name = center;
position = "{285, 249}";
},
{
name = ogonek;
position = "{356, 10}";
},
{
name = top;
position = "{285, 497}";
},
{
name = topright;
position = "{459, 497}";
}
);
layerId = "EF8420CB-322A-4DAC-B980-DA6E6912705F";
paths = (
{
closed = 1;
nodes = (
"439 -12 OFFCURVE",
"541 92 OFFCURVE",
"541 249 CURVE SMOOTH",
"541 405 OFFCURVE",
"439 509 OFFCURVE",
"285 509 CURVE SMOOTH",
"132 509 OFFCURVE",
"30 405 OFFCURVE",
"30 249 CURVE SMOOTH",
"30 92 OFFCURVE",
"132 -12 OFFCURVE",
"285 -12 CURVE SMOOTH"
);
},
{
closed = 1;
nodes = (
"236 132 OFFCURVE",
"204 179 OFFCURVE",
"204 249 CURVE SMOOTH",
"204 319 OFFCURVE",
"236 365 OFFCURVE",
"285 365 CURVE SMOOTH",
"334 365 OFFCURVE",
"367 319 OFFCURVE",
"367 249 CURVE SMOOTH",
"367 179 OFFCURVE",
"334 132 OFFCURVE",
"285 132 CURVE SMOOTH"
);
}
);
width = 571;
},
{
anchors = (
{
name = bottom;
position = "{275, 0}";
},
{
name = center;
position = "{275, 236}";
},
{
name = ogonek;
position = "{345, 10}";
},
{
name = top;
position = "{275, 472}";
},
{
name = topright;
position = "{431, 472}";
}
);
layerId = "D9DFF065-DDB2-4B0F-A853-E0DAE751FB65";
paths = (
{
closed = 1;
nodes = (
"419 -12 OFFCURVE",
"508 87 OFFCURVE",
"508 236 CURVE SMOOTH",
"508 385 OFFCURVE",
"419 484 OFFCURVE",
"285 484 CURVE SMOOTH",
"152 484 OFFCURVE",
"63 385 OFFCURVE",
"63 236 CURVE SMOOTH",
"63 87 OFFCURVE",
"152 -12 OFFCURVE",
"285 -12 CURVE SMOOTH"
);
},
{
closed = 1;
nodes = (
"164 8 OFFCURVE",
"84 99 OFFCURVE",
"84 236 CURVE SMOOTH",
"84 373 OFFCURVE",
"164 464 OFFCURVE",
"285 464 CURVE SMOOTH",
"406 464 OFFCURVE",
"487 373 OFFCURVE",
"487 236 CURVE SMOOTH",
"487 99 OFFCURVE",
"406 8 OFFCURVE",
"285 8 CURVE SMOOTH"
);
}
);
width = 571;
}
);
unicode = 006F;
},
{
glyphname = p;
layers = (
{
anchors = (
{
name = bottom;
position = "{106, -218}";
},
{
name = top;
position = "{235, 472}";
}
);
components = (
{
name = _stem.p;
},
{
name = _d;
transform = "{-1, 0, 0, 1, 543, 0}";
}
);
layerId = "D9DFF065-DDB2-4B0F-A853-E0DAE751FB65";
width = 567;
},
{
anchors = (
{
name = bottom;
position = "{153, -217}";
},
{
name = top;
position = "{298, 497}";
}
);
components = (
{
name = _stem.p;
transform = "{1, 0, 0, 1, 6, 0}";
},
{
name = _d;
transform = "{-1, 0, 0, 1, 618, 0}";
}
);
layerId = "EF8420CB-322A-4DAC-B980-DA6E6912705F";
width = 614;
},
{
anchors = (
{
name = bottom;
position = "{125, -218}";
},
{
name = top;
position = "{285, 482}";
}
);
associatedMasterId = "D9DFF065-DDB2-4B0F-A853-E0DAE751FB65";
components = (
{
name = _stem.p;
}
);
layerId = "AC944F47-DF6C-46B7-8615-4E28CEF2DB47";
name = "Jun 21 17, 22:21";
paths = (
{
closed = 1;
nodes = (
"431 -12 OFFCURVE",
"516 90 OFFCURVE",
"516 244 CURVE SMOOTH",
"516 394 OFFCURVE",
"433 494 OFFCURVE",
"309 494 CURVE SMOOTH",
"262 494 OFFCURVE",
"204 473 OFFCURVE",
"153 437 CURVE",
"161 381 LINE",
"207 409 OFFCURVE",
"250 424 OFFCURVE",
"295 424 CURVE SMOOTH",
"380 424 OFFCURVE",
"430 357 OFFCURVE",
"430 244 CURVE SMOOTH",
"430 125 OFFCURVE",
"379 54 OFFCURVE",
"292 54 CURVE SMOOTH",
"244 54 OFFCURVE",
"199 68 OFFCURVE",
"161 96 CURVE",
"154 40 LINE",
"198 7 OFFCURVE",
"253 -12 OFFCURVE",
"303 -12 CURVE SMOOTH"
);
}
);
width = 570;
}
);
unicode = 0070;
},
{
glyphname = thorn;
layers = (
{
anchors = (
{
name = bottom;
position = "{106, -218}";
},
{
name = top;
position = "{106, 718}";
}
);
components = (
{
name = _stem.p;
},
{
name = _d;
transform = "{-1, 0, 0, 1, 535, 0}";
}
);
layerId = "D9DFF065-DDB2-4B0F-A853-E0DAE751FB65";
paths = (
{
closed = 1;
nodes = (
"96 391 LINE",
"116 391 LINE",
"116 718 LINE",
"96 718 LINE"
);
}
);
width = 559;
},
{
anchors = (
{
name = bottom;
position = "{153, -217}";
},
{
name = top;
position = "{149, 728}";
}
);
components = (
{
name = _stem.p;
transform = "{1, 0, 0, 1, 6, 0}";
},
{
name = _d;
transform = "{-1, 0, 0, 1, 616, 0}";
}
);
layerId = "EF8420CB-322A-4DAC-B980-DA6E6912705F";
paths = (
{
closed = 1;
nodes = (
"67 379 LINE",
"240 379 LINE",
"240 728 LINE",
"67 728 LINE"
);
}
);
width = 612;
}
);
leftMetricsKey = p;
rightMetricsKey = p;
unicode = 00FE;
},
{
glyphname = r;
layers = (
{
anchors = (
{
name = bottom;
position = "{107, 0}";
},
{
name = top;
position = "{194, 472}";
}
);
layerId = "D9DFF065-DDB2-4B0F-A853-E0DAE751FB65";
paths = (
{
closed = 1;
nodes = (
"116 0 LINE",
"116 378 LINE",
"112 472 LINE",
"96 472 LINE",
"96 0 LINE"
);
},
{
closed = 1;
nodes = (
"146 423 OFFCURVE",
"208 466 OFFCURVE",
"274 466 CURVE SMOOTH",
"294 466 OFFCURVE",
"306 462 OFFCURVE",
"314 457 CURVE",
"320 474 LINE",
"310 480 OFFCURVE",
"295 484 OFFCURVE",
"274 484 CURVE SMOOTH",
"211 484 OFFCURVE",
"146 448 OFFCURVE",
"108 376 CURVE",
"108 351 LINE"
);
}
);
width = 333;
},
{
anchors = (
{
name = bottom;
position = "{154, 0}";
},
{
name = top;
position = "{222, 497}";
}
);
layerId = "EF8420CB-322A-4DAC-B980-DA6E6912705F";
paths = (
{
closed = 1;
nodes = (
"240 0 LINE",
"240 356 LINE",
"212 497 LINE",
"67 497 LINE",
"67 0 LINE"
);
},
{
closed = 1;
nodes = (
"235 315 OFFCURVE",
"290 357 OFFCURVE",
"344 357 CURVE SMOOTH",
"362 357 OFFCURVE",
"379 352 OFFCURVE",
"392 344 CURVE",
"419 493 LINE",
"404 503 OFFCURVE",
"381 509 OFFCURVE",
"357 509 CURVE SMOOTH",
"293 509 OFFCURVE",
"236 464 OFFCURVE",
"209 396 CURVE",
"209 253 LINE"
);
}
);
width = 418;
}
);
unicode = 0072;
},
{
glyphname = s;
layers = (
{
anchors = (
{
name = bottom;
position = "{260, 0}";
},
{
name = top;
position = "{251, 497}";
}
);
layerId = "EF8420CB-322A-4DAC-B980-DA6E6912705F";
paths = (
{
closed = 1;
nodes = (
"384 -12 OFFCURVE",
"475 55 OFFCURVE",
"475 165 CURVE SMOOTH",
"475 352 OFFCURVE",
"217 297 OFFCURVE",
"217 349 CURVE SMOOTH",
"217 367 OFFCURVE",
"248 374 OFFCURVE",
"282 374 CURVE SMOOTH",
"330 374 OFFCURVE",
"379 360 OFFCURVE",
"419 343 CURVE",
"446 473 LINE",
"401 495 OFFCURVE",
"333 509 OFFCURVE",
"271 509 CURVE SMOOTH",
"132 509 OFFCURVE",
"42 440 OFFCURVE",
"42 336 CURVE SMOOTH",
"42 158 OFFCURVE",
"300 203 OFFCURVE",
"300 145 CURVE SMOOTH",
"300 127 OFFCURVE",
"274 121 OFFCURVE",
"234 121 CURVE SMOOTH",
"183 121 OFFCURVE",
"124 131 OFFCURVE",
"67 153 CURVE",
"40 23 LINE",
"106 -1 OFFCURVE",
"179 -12 OFFCURVE",
"238 -12 CURVE SMOOTH"
);
}
);
width = 506;
},
{
anchors = (
{
name = bottom;
position = "{232, 0}";
},
{
name = top;
position = "{232, 472}";
}
);
layerId = "D9DFF065-DDB2-4B0F-A853-E0DAE751FB65";
paths = (
{
closed = 1;
nodes = (
"344 -12 OFFCURVE",
"417 39 OFFCURVE",
"417 117 CURVE SMOOTH",
"417 285 OFFCURVE",
"77 230 OFFCURVE",
"77 363 CURVE SMOOTH",
"77 422 OFFCURVE",
"140 464 OFFCURVE",
"233 464 CURVE SMOOTH",
"290 464 OFFCURVE",
"350 448 OFFCURVE",
"385 424 CURVE",
"391 441 LINE",
"356 467 OFFCURVE",
"292 484 OFFCURVE",
"231 484 CURVE SMOOTH",
"127 484 OFFCURVE",
"56 434 OFFCURVE",
"56 364 CURVE SMOOTH",
"56 209 OFFCURVE",
"397 264 OFFCURVE",
"397 117 CURVE SMOOTH",
"397 51 OFFCURVE",
"332 8 OFFCURVE",
"241 8 CURVE SMOOTH",
"181 8 OFFCURVE",
"112 27 OFFCURVE",
"55 56 CURVE",
"49 39 LINE",
"104 8 OFFCURVE",
"177 -12 OFFCURVE",
"241 -12 CURVE SMOOTH"
);
}
);
width = 463;
}
);
unicode = 0073;
},
{
glyphname = germandbls;
layers = (
{
anchors = (
{
name = bottom;
position = "{283, 0}";
},
{
name = top;
position = "{283, 730}";
}
);
layerId = "D9DFF065-DDB2-4B0F-A853-E0DAE751FB65";
paths = (
{
closed = 1;
nodes = (
"443 -10 OFFCURVE",
"518 49 OFFCURVE",
"518 141 CURVE SMOOTH",
"518 288 OFFCURVE",
"326 287 OFFCURVE",
"326 369 CURVE SMOOTH",
"326 429 OFFCURVE",
"432 461 OFFCURVE",
"432 577 CURVE SMOOTH",
"432 670 OFFCURVE",
"363 730 OFFCURVE",
"270 730 CURVE SMOOTH",
"161 730 OFFCURVE",
"96 648 OFFCURVE",
"96 524 CURVE SMOOTH",
"96 0 LINE",
"116 0 LINE",
"116 523 LINE SMOOTH",
"116 634 OFFCURVE",
"173 709 OFFCURVE",
"270 709 CURVE SMOOTH",
"349 709 OFFCURVE",
"410 659 OFFCURVE",
"410 577 CURVE SMOOTH",
"410 468 OFFCURVE",
"304 442 OFFCURVE",
"304 367 CURVE SMOOTH",
"304 267 OFFCURVE",
"496 274 OFFCURVE",
"496 140 CURVE SMOOTH",
"496 62 OFFCURVE",
"430 11 OFFCURVE",
"335 11 CURVE SMOOTH",
"289 11 OFFCURVE",
"237 23 OFFCURVE",
"205 41 CURVE",
"199 24 LINE",
"230 6 OFFCURVE",
"278 -10 OFFCURVE",
"335 -10 CURVE SMOOTH"
);
}
);
width = 568;
},
{
anchors = (
{
name = bottom;
position = "{334, 0}";
},
{
name = top;
position = "{334, 728}";
}
);
layerId = "EF8420CB-322A-4DAC-B980-DA6E6912705F";
paths = (
{
closed = 1;
nodes = (
"540 -10 OFFCURVE",
"628 57 OFFCURVE",
"628 160 CURVE SMOOTH",
"628 300 OFFCURVE",
"466 326 OFFCURVE",
"466 380 CURVE SMOOTH",
"466 417 OFFCURVE",
"542 452 OFFCURVE",
"542 548 CURVE SMOOTH",
"542 655 OFFCURVE",
"448 740 OFFCURVE",
"307 740 CURVE SMOOTH",
"165 740 OFFCURVE",
"71 654 OFFCURVE",
"71 524 CURVE SMOOTH",
"71 0 LINE",
"244 0 LINE",
"244 523 LINE SMOOTH",
"244 569 OFFCURVE",
"266 596 OFFCURVE",
"307 596 CURVE SMOOTH",
"344 596 OFFCURVE",
"368 575 OFFCURVE",
"368 539 CURVE SMOOTH",
"368 473 OFFCURVE",
"292 446 OFFCURVE",
"292 365 CURVE SMOOTH",
"292 246 OFFCURVE",
"454 231 OFFCURVE",
"454 172 CURVE SMOOTH",
"454 149 OFFCURVE",
"430 134 OFFCURVE",
"394 134 CURVE SMOOTH",
"367 134 OFFCURVE",
"332 142 OFFCURVE",
"307 155 CURVE",
"280 23 LINE",
"312 3 OFFCURVE",
"362 -10 OFFCURVE",
"416 -10 CURVE SMOOTH"
);
}
);
width = 651;
}
);
unicode = 00DF;
},
{
glyphname = t;
layers = (
{
anchors = (
{
name = bottom;
position = "{177, 0}";
},
{
name = center;
position = "{141, 256}";
},
{
name = top;
position = "{117, 617}";
},
{
name = topright;
position = "{217, 472}";
}
);
layerId = "D9DFF065-DDB2-4B0F-A853-E0DAE751FB65";
paths = (
{
closed = 1;
nodes = (
"229 -12 OFFCURVE",
"255 -5 OFFCURVE",
"270 6 CURVE",
"264 24 LINE",
"248 14 OFFCURVE",
"225 8 OFFCURVE",
"202 8 CURVE SMOOTH",
"153 8 OFFCURVE",
"127 34 OFFCURVE",
"127 79 CURVE SMOOTH",
"127 617 LINE",
"107 617 LINE",
"107 79 LINE SMOOTH",
"107 22 OFFCURVE",
"141 -12 OFFCURVE",
"201 -12 CURVE SMOOTH"
);
},
{
closed = 1;
nodes = (
"259 453 LINE",
"259 472 LINE",
"18 472 LINE",
"18 453 LINE"
);
}
);
width = 295;
},
{
anchors = (
{
name = bottom;
position = "{255, 0}";
},
{
name = center;
position = "{193, 258}";
},
{
name = top;
position = "{176, 617}";
},
{
name = topright;
position = "{368, 497}";
}
);
layerId = "EF8420CB-322A-4DAC-B980-DA6E6912705F";
paths = (
{
closed = 1;
nodes = (
"321 -12 OFFCURVE",
"365 -2 OFFCURVE",
"398 16 CURVE",
"365 143 LINE",
"353 137 OFFCURVE",
"336 133 OFFCURVE",
"322 133 CURVE SMOOTH",
"286 133 OFFCURVE",
"264 157 OFFCURVE",
"264 194 CURVE SMOOTH",
"264 617 LINE",
"91 617 LINE",
"91 162 LINE SMOOTH",
"91 58 OFFCURVE",
"164 -12 OFFCURVE",
"278 -12 CURVE SMOOTH"
);
},
{
closed = 1;
nodes = (
"375 357 LINE",
"375 497 LINE",
"13 497 LINE",
"13 357 LINE"
);
}
);
width = 422;
}
);
unicode = 0074;
},
{
glyphname = u;
layers = (
{
anchors = (
{
name = bottom;
position = "{280, 0}";
},
{
name = ogonek;
position = "{452, 2}";
},
{
name = top;
position = "{280, 472}";
},
{
name = topright;
position = "{532, 472}";
}
);
components = (
{
name = _n;
transform = "{-1, 0, 0, -1, 568, 472}";
}
);
layerId = "D9DFF065-DDB2-4B0F-A853-E0DAE751FB65";
paths = (
{
closed = 1;
nodes = (
"462 0 LINE",
"462 472 LINE",
"442 472 LINE",
"442 74 LINE",
"446 0 LINE"
);
}
);
width = 558;
},
{
anchors = (
{
name = bottom;
position = "{300, 0}";
},
{
name = ogonek;
position = "{501, 5}";
},
{
name = top;
position = "{300, 497}";
},
{
name = topright;
position = "{542, 497}";
}
);
components = (
{
name = _n;
transform = "{-1, 0, 0, -1, 602, 497}";
}
);
layerId = "EF8420CB-322A-4DAC-B980-DA6E6912705F";
paths = (
{
closed = 1;
nodes = (
"543 0 LINE",
"543 497 LINE",
"370 497 LINE",
"370 111 LINE",
"398 0 LINE"
);
}
);
width = 610;
}
);
unicode = 0075;
},
{
glyphname = v;
layers = (
{
anchors = (
{
name = bottom;
position = "{272, 0}";
},
{
name = top;
position = "{272, 502}";
}
);
layerId = "EF8420CB-322A-4DAC-B980-DA6E6912705F";
paths = (
{
closed = 1;
nodes = (
"364 0 LINE",
"549 497 LINE",
"366 497 LINE",
"274 162 LINE",
"270 162 LINE",
"178 497 LINE",
"-5 497 LINE",
"176 0 LINE"
);
}
);
width = 544;
},
{
anchors = (
{
name = bottom;
position = "{240, 0}";
},
{
name = top;
position = "{240, 472}";
}
);
layerId = "D9DFF065-DDB2-4B0F-A853-E0DAE751FB65";
paths = (
{
closed = 1;
nodes = (
"251 0 LINE",
"457 472 LINE",
"434 472 LINE",
"244 30 LINE",
"240 30 LINE",
"46 472 LINE",
"23 472 LINE",
"233 0 LINE"
);
}
);
width = 480;
}
);
unicode = 0076;
},
{
glyphname = w;
layers = (
{
anchors = (
{
name = bottom;
position = "{377, 0}";
},
{
name = top;
position = "{377, 472}";
}
);
layerId = "D9DFF065-DDB2-4B0F-A853-E0DAE751FB65";
paths = (
{
closed = 1;
nodes = (
"216 0 LINE",
"376 444 LINE",
"378 444 LINE",
"542 0 LINE",
"556 0 LINE",
"727 472 LINE",
"705 472 LINE",
"551 33 LINE",
"547 33 LINE",
"390 472 LINE",
"364 472 LINE",
"210 33 LINE",
"207 33 LINE",
"49 472 LINE",
"27 472 LINE",
"201 0 LINE"
);
}
);
width = 755;
},
{
anchors = (
{
name = bottom;
position = "{411, 0}";
},
{
name = top;
position = "{411, 497}";
}
);
layerId = "EF8420CB-322A-4DAC-B980-DA6E6912705F";
paths = (
{
closed = 1;
nodes = (
"316 0 LINE",
"407 331 LINE",
"410 331 LINE",
"492 0 LINE",
"677 0 LINE",
"815 497 LINE",
"642 497 LINE",
"592 193 LINE",
"587 193 LINE",
"507 497 LINE",
"311 497 LINE",
"231 193 LINE",
"227 193 LINE",
"180 497 LINE",
"7 497 LINE",
"133 0 LINE"
);
}
);
width = 819;
}
);
unicode = 0077;
},
{
glyphname = x;
layers = (
{
anchors = (
{
name = bottom;
position = "{222, 0}";
},
{
name = top;
position = "{222, 472}";
}
);
layerId = "D9DFF065-DDB2-4B0F-A853-E0DAE751FB65";
paths = (
{
closed = 1;
nodes = (
"58 0 LINE",
"414 472 LINE",
"390 472 LINE",
"34 0 LINE"
);
},
{
closed = 1;
nodes = (
"220 234 LINE",
"394 0 LINE",
"419 0 LINE",
"233 249 LINE"
);
},
{
closed = 1;
nodes = (
"228 251 LINE",
"49 472 LINE",
"24 472 LINE",
"215 236 LINE"
);
}
);
width = 444;
},
{
anchors = (
{
name = bottom;
position = "{260, 0}";
},
{
name = top;
position = "{260, 497}";
}
);
layerId = "EF8420CB-322A-4DAC-B980-DA6E6912705F";
paths = (
{
closed = 1;
nodes = (
"175 0 LINE",
"523 497 LINE",
"343 497 LINE",
"-4 0 LINE"
);
},
{
closed = 1;
nodes = (
"216 200 LINE",
"344 0 LINE",
"523 0 LINE",
"310 323 LINE"
);
},
{
closed = 1;
nodes = (
"303 320 LINE",
"176 497 LINE",
"-4 497 LINE",
"209 197 LINE"
);
}
);
width = 520;
}
);
unicode = 0078;
},
{
glyphname = y;
layers = (
{
anchors = (
{
name = bottom;
position = "{328, 0}";
},
{
name = top;
position = "{227, 472}";
}
);
layerId = "D9DFF065-DDB2-4B0F-A853-E0DAE751FB65";
paths = (
{
closed = 1;
nodes = (
"228 0 LINE",
"146 -218 LINE",
"166 -218 LINE",
"246 0 LINE",
"447 472 LINE",
"424 472 LINE",
"239 30 LINE",
"235 30 LINE",
"46 472 LINE",
"23 472 LINE"
);
}
);
width = 471;
},
{
anchors = (
{
name = bottom;
position = "{473, 0}";
},
{
name = top;
position = "{270, 497}";
}
);
layerId = "EF8420CB-322A-4DAC-B980-DA6E6912705F";
paths = (
{
closed = 1;
nodes = (
"176 0 LINE",
"92 -218 LINE",
"285 -218 LINE",
"362 0 LINE",
"549 497 LINE",
"366 497 LINE",
"274 162 LINE",
"270 162 LINE",
"178 497 LINE",
"-5 497 LINE"
);
}
);
width = 543;
}
);
unicode = 0079;
},
{
glyphname = z;
layers = (
{
anchors = (
{
name = bottom;
position = "{217, 0}";
},
{
name = top;
position = "{217, 472}";
}
);
layerId = "D9DFF065-DDB2-4B0F-A853-E0DAE751FB65";
paths = (
{
closed = 1;
nodes = (
"403 0 LINE",
"403 20 LINE",
"58 20 LINE",
"392 455 LINE",
"392 472 LINE",
"30 472 LINE",
"30 452 LINE",
"364 452 LINE",
"30 16 LINE",
"30 0 LINE"
);
}
);
width = 431;
},
{
anchors = (
{
name = bottom;
position = "{257, 0}";
},
{
name = top;
position = "{257, 497}";
}
);
layerId = "EF8420CB-322A-4DAC-B980-DA6E6912705F";
paths = (
{
closed = 1;
nodes = (
"481 0 LINE",
"481 140 LINE",
"256 140 LINE",
"467 393 LINE",
"467 497 LINE",
"37 497 LINE",
"37 358 LINE",
"248 358 LINE",
"37 103 LINE",
"37 0 LINE"
);
}
);
width = 513;
}
);
unicode = 007A;
},
{
glyphname = ordfeminine;
layers = (
{
layerId = "D9DFF065-DDB2-4B0F-A853-E0DAE751FB65";
paths = (
{
closed = 1;
nodes = (
"266 420 LINE",
"266 604 LINE SMOOTH",
"266 674 OFFCURVE",
"225 712 OFFCURVE",
"156 712 CURVE SMOOTH",
"121 712 OFFCURVE",
"84 702 OFFCURVE",
"53 686 CURVE",
"58 670 LINE",
"85 685 OFFCURVE",
"122 694 OFFCURVE",
"152 694 CURVE SMOOTH",
"212 694 OFFCURVE",
"246 662 OFFCURVE",
"246 602 CURVE SMOOTH",
"246 463 LINE",
"250 420 LINE"
);
},
{
closed = 1;
nodes = (
"166 413 OFFCURVE",
"215 429 OFFCURVE",
"252 456 CURVE",
"252 471 LINE",
"214 446 OFFCURVE",
"166 430 OFFCURVE",
"129 430 CURVE SMOOTH",
"79 430 OFFCURVE",
"50 458 OFFCURVE",
"50 492 CURVE SMOOTH",
"50 546 OFFCURVE",
"126 576 OFFCURVE",
"252 576 CURVE",
"252 592 LINE",
"112 592 OFFCURVE",
"29 556 OFFCURVE",
"29 490 CURVE SMOOTH",
"29 447 OFFCURVE",
"65 413 OFFCURVE",
"125 413 CURVE SMOOTH"
);
}
);
width = 317;
userData = {
RMXScaler = {
height = 60;
verticalShift = 420;
width = 60;
};
};
},
{
layerId = "EF8420CB-322A-4DAC-B980-DA6E6912705F";
paths = (
{
closed = 1;
nodes = (
"344 416 LINE",
"344 611 LINE SMOOTH",
"344 676 OFFCURVE",
"290 719 OFFCURVE",
"209 719 CURVE SMOOTH",
"170 719 OFFCURVE",
"121 708 OFFCURVE",
"88 691 CURVE",
"98 619 LINE",
"129 636 OFFCURVE",
"166 644 OFFCURVE",
"189 644 CURVE SMOOTH",
"225 644 OFFCURVE",
"249 627 OFFCURVE",
"249 589 CURVE SMOOTH",
"249 485 LINE",
"264 416 LINE"
);
},
{
closed = 1;
nodes = (
"200 409 OFFCURVE",
"239 425 OFFCURVE",
"261 449 CURVE",
"261 514 LINE",
"239 493 OFFCURVE",
"213 479 OFFCURVE",
"190 479 CURVE SMOOTH",
"171 479 OFFCURVE",
"157 489 OFFCURVE",
"157 503 CURVE SMOOTH",
"157 528 OFFCURVE",
"198 544 OFFCURVE",
"261 544 CURVE",
"261 606 LINE",
"140 606 OFFCURVE",
"61 562 OFFCURVE",
"61 494 CURVE SMOOTH",
"61 444 OFFCURVE",
"102 409 OFFCURVE",
"161 409 CURVE SMOOTH"
);
}
);
width = 425;
userData = {
RMXScaler = {
height = 60;
verticalShift = 416;
weight = -80;
width = 60;
};
};
}
);
unicode = 00AA;
userData = {
RMXScaler = {
source = a;
};
};
},
{
glyphname = ordmasculine;
layers = (
{
layerId = "D9DFF065-DDB2-4B0F-A853-E0DAE751FB65";
paths = (
{
closed = 1;
nodes = (
"253 413 OFFCURVE",
"307 472 OFFCURVE",
"307 562 CURVE SMOOTH",
"307 652 OFFCURVE",
"253 712 OFFCURVE",
"172 712 CURVE SMOOTH",
"91 712 OFFCURVE",
"37 652 OFFCURVE",
"37 562 CURVE SMOOTH",
"37 472 OFFCURVE",
"91 413 OFFCURVE",
"172 413 CURVE SMOOTH"
);
},
{
closed = 1;
nodes = (
"103 431 OFFCURVE",
"57 484 OFFCURVE",
"57 562 CURVE SMOOTH",
"57 641 OFFCURVE",
"103 693 OFFCURVE",
"172 693 CURVE SMOOTH",
"241 693 OFFCURVE",
"287 641 OFFCURVE",
"287 562 CURVE SMOOTH",
"287 484 OFFCURVE",
"241 431 OFFCURVE",
"172 431 CURVE SMOOTH"
);
}
);
width = 344;
userData = {
RMXScaler = {
height = 60;
verticalShift = 420;
width = 60;
};
};
},
{
layerId = "EF8420CB-322A-4DAC-B980-DA6E6912705F";
paths = (
{
closed = 1;
nodes = (
"287 408 OFFCURVE",
"348 470 OFFCURVE",
"348 564 CURVE SMOOTH",
"348 657 OFFCURVE",
"287 719 OFFCURVE",
"196 719 CURVE SMOOTH",
"105 719 OFFCURVE",
"45 657 OFFCURVE",
"45 564 CURVE SMOOTH",
"45 470 OFFCURVE",
"105 408 OFFCURVE",
"196 408 CURVE SMOOTH"
);
},
{
closed = 1;
nodes = (
"162 487 OFFCURVE",
"140 517 OFFCURVE",
"140 564 CURVE SMOOTH",
"140 610 OFFCURVE",
"162 640 OFFCURVE",
"196 640 CURVE SMOOTH",
"230 640 OFFCURVE",
"253 610 OFFCURVE",
"253 564 CURVE SMOOTH",
"253 517 OFFCURVE",
"230 487 OFFCURVE",
"196 487 CURVE SMOOTH"
);
}
);
width = 393;
userData = {
RMXScaler = {
height = 60;
verticalShift = 415;
weight = -80;
width = 60;
};
};
}
);
unicode = 00BA;
userData = {
RMXScaler = {
source = o;
};
};
},
{
glyphname = zero;
layers = (
{
anchors = (
{
name = slash;
position = "{290, 354}";
}
);
layerId = "EF8420CB-322A-4DAC-B980-DA6E6912705F";
paths = (
{
closed = 1;
nodes = (
"463 -12 OFFCURVE",
"577 134 OFFCURVE",
"577 354 CURVE SMOOTH",
"577 573 OFFCURVE",
"463 719 OFFCURVE",
"292 719 CURVE SMOOTH",
"119 719 OFFCURVE",
"3 573 OFFCURVE",
"3 354 CURVE SMOOTH",
"3 134 OFFCURVE",
"119 -12 OFFCURVE",
"292 -12 CURVE SMOOTH"
);
},
{
closed = 1;
nodes = (
"223 132 OFFCURVE",
"177 221 OFFCURVE",
"177 354 CURVE SMOOTH",
"177 487 OFFCURVE",
"223 575 OFFCURVE",
"292 575 CURVE SMOOTH",
"359 575 OFFCURVE",
"403 487 OFFCURVE",
"403 354 CURVE SMOOTH",
"403 221 OFFCURVE",
"359 132 OFFCURVE",
"292 132 CURVE SMOOTH"
);
}
);
width = 580;
},
{
anchors = (
{
name = slash;
position = "{280, 365}";
}
);
layerId = "D9DFF065-DDB2-4B0F-A853-E0DAE751FB65";
paths = (
{
closed = 1;
nodes = (
"415 -12 OFFCURVE",
"503 132 OFFCURVE",
"503 349 CURVE SMOOTH",
"503 567 OFFCURVE",
"415 712 OFFCURVE",
"282 712 CURVE SMOOTH",
"147 712 OFFCURVE",
"57 567 OFFCURVE",
"57 349 CURVE SMOOTH",
"57 132 OFFCURVE",
"147 -12 OFFCURVE",
"282 -12 CURVE SMOOTH"
);
},
{
closed = 1;
nodes = (
"160 9 OFFCURVE",
"79 145 OFFCURVE",
"79 349 CURVE SMOOTH",
"79 554 OFFCURVE",
"160 691 OFFCURVE",
"282 691 CURVE SMOOTH",
"401 691 OFFCURVE",
"481 554 OFFCURVE",
"481 349 CURVE SMOOTH",
"481 145 OFFCURVE",
"401 9 OFFCURVE",
"282 9 CURVE SMOOTH"
);
}
);
width = 560;
}
);
unicode = 0030;
},
{
glyphname = one;
layers = (
{
layerId = "D9DFF065-DDB2-4B0F-A853-E0DAE751FB65";
paths = (
{
closed = 1;
nodes = (
"472 0 LINE",
"472 19 LINE",
"315 19 LINE",
"315 700 LINE",
"294 700 LINE",
"101 636 LINE",
"107 619 LINE",
"294 677 LINE",
"294 19 LINE",
"112 19 LINE",
"112 0 LINE"
);
}
);
width = 560;
},
{
layerId = "EF8420CB-322A-4DAC-B980-DA6E6912705F";
paths = (
{
closed = 1;
nodes = (
"550 0 LINE",
"550 144 LINE",
"405 144 LINE",
"405 707 LINE",
"232 707 LINE",
"54 634 LINE",
"81 501 LINE",
"232 557 LINE",
"232 144 LINE",
"64 144 LINE",
"64 0 LINE"
);
}
);
width = 580;
}
);
unicode = 0031;
},
{
glyphname = two;
layers = (
{
layerId = "D9DFF065-DDB2-4B0F-A853-E0DAE751FB65";
paths = (
{
closed = 1;
nodes = (
"492 0 LINE",
"492 20 LINE",
"102 20 LINE",
"370 310 OFFCURVE",
"448 429 OFFCURVE",
"448 536 CURVE SMOOTH",
"448 642 OFFCURVE",
"371 712 OFFCURVE",
"263 712 CURVE SMOOTH",
"197 712 OFFCURVE",
"122 686 OFFCURVE",
"65 650 CURVE",
"71 633 LINE",
"125 668 OFFCURVE",
"198 691 OFFCURVE",
"260 691 CURVE SMOOTH",
"359 691 OFFCURVE",
"426 630 OFFCURVE",
"426 536 CURVE SMOOTH",
"426 432 OFFCURVE",
"346 314 OFFCURVE",
"72 17 CURVE",
"72 0 LINE"
);
}
);
width = 560;
},
{
layerId = "EF8420CB-322A-4DAC-B980-DA6E6912705F";
paths = (
{
closed = 1;
nodes = (
"526 0 LINE",
"526 144 LINE",
"280 144 LINE",
"448 266 OFFCURVE",
"515 411 OFFCURVE",
"515 513 CURVE SMOOTH",
"515 637 OFFCURVE",
"417 719 OFFCURVE",
"262 719 CURVE SMOOTH",
"176 719 OFFCURVE",
"97 694 OFFCURVE",
"39 657 CURVE",
"66 521 LINE",
"129 557 OFFCURVE",
"175 575 OFFCURVE",
"229 575 CURVE SMOOTH",
"298 575 OFFCURVE",
"342 545 OFFCURVE",
"342 488 CURVE SMOOTH",
"342 395 OFFCURVE",
"224 244 OFFCURVE",
"46 108 CURVE",
"46 0 LINE"
);
}
);
width = 580;
}
);
unicode = 0032;
},
{
glyphname = three;
layers = (
{
layerId = "EF8420CB-322A-4DAC-B980-DA6E6912705F";
paths = (
{
closed = 1;
nodes = (
"431 -12 OFFCURVE",
"542 66 OFFCURVE",
"542 187 CURVE SMOOTH",
"542 279 OFFCURVE",
"477 350 OFFCURVE",
"380 361 CURVE",
"380 363 LINE",
"455 383 OFFCURVE",
"505 448 OFFCURVE",
"505 529 CURVE SMOOTH",
"505 642 OFFCURVE",
"405 719 OFFCURVE",
"262 719 CURVE SMOOTH",
"178 719 OFFCURVE",
"100 692 OFFCURVE",
"50 659 CURVE",
"77 523 LINE",
"126 553 OFFCURVE",
"191 575 OFFCURVE",
"243 575 CURVE SMOOTH",
"311 575 OFFCURVE",
"332 537 OFFCURVE",
"332 507 CURVE SMOOTH",
"332 454 OFFCURVE",
"266 418 OFFCURVE",
"168 418 CURVE",
"168 288 LINE",
"289 288 OFFCURVE",
"369 253 OFFCURVE",
"369 200 CURVE SMOOTH",
"369 164 OFFCURVE",
"332 132 OFFCURVE",
"251 132 CURVE SMOOTH",
"188 132 OFFCURVE",
"111 151 OFFCURVE",
"60 177 CURVE",
"32 41 LINE",
"92 11 OFFCURVE",
"180 -12 OFFCURVE",
"268 -12 CURVE SMOOTH"
);
}
);
width = 580;
},
{
layerId = "D9DFF065-DDB2-4B0F-A853-E0DAE751FB65";
paths = (
{
closed = 1;
nodes = (
"385 -12 OFFCURVE",
"483 40 OFFCURVE",
"483 165 CURVE SMOOTH",
"483 286 OFFCURVE",
"395 347 OFFCURVE",
"264 357 CURVE",
"264 359 LINE",
"373 371 OFFCURVE",
"447 431 OFFCURVE",
"447 535 CURVE SMOOTH",
"447 651 OFFCURVE",
"359 712 OFFCURVE",
"255 712 CURVE SMOOTH",
"194 712 OFFCURVE",
"124 690 OFFCURVE",
"64 642 CURVE",
"70 625 LINE",
"121 665 OFFCURVE",
"181 691 OFFCURVE",
"248 691 CURVE SMOOTH",
"345 691 OFFCURVE",
"425 638 OFFCURVE",
"425 536 CURVE SMOOTH",
"425 424 OFFCURVE",
"326 367 OFFCURVE",
"177 367 CURVE",
"177 347 LINE",
"347 347 OFFCURVE",
"461 295 OFFCURVE",
"461 164 CURVE SMOOTH",
"461 52 OFFCURVE",
"371 9 OFFCURVE",
"260 9 CURVE SMOOTH",
"182 9 OFFCURVE",
"104 31 OFFCURVE",
"55 65 CURVE",
"49 48 LINE",
"100 12 OFFCURVE",
"183 -12 OFFCURVE",
"263 -12 CURVE SMOOTH"
);
}
);
width = 560;
}
);
unicode = 0033;
},
{
glyphname = four;
layers = (
{
layerId = "EF8420CB-322A-4DAC-B980-DA6E6912705F";
paths = (
{
closed = 1;
nodes = (
"577 139 LINE",
"577 279 LINE",
"153 279 LINE",
"153 283 LINE",
"306 495 LINE",
"311 495 LINE",
"311 0 LINE",
"481 0 LINE",
"481 707 LINE",
"318 707 LINE",
"4 278 LINE",
"4 139 LINE"
);
}
);
width = 580;
},
{
layerId = "D9DFF065-DDB2-4B0F-A853-E0DAE751FB65";
paths = (
{
closed = 1;
nodes = (
"537 179 LINE",
"537 198 LINE",
"51 198 LINE",
"51 202 LINE",
"366 675 LINE",
"371 675 LINE",
"371 0 LINE",
"392 0 LINE",
"392 700 LINE",
"359 700 LINE",
"27 198 LINE",
"27 179 LINE"
);
}
);
width = 560;
}
);
unicode = 0034;
},
{
glyphname = five;
layers = (
{
layerId = "EF8420CB-322A-4DAC-B980-DA6E6912705F";
paths = (
{
closed = 1;
nodes = (
"447 -12 OFFCURVE",
"556 82 OFFCURVE",
"556 224 CURVE SMOOTH",
"556 361 OFFCURVE",
"467 453 OFFCURVE",
"333 453 CURVE SMOOTH",
"266 453 OFFCURVE",
"198 432 OFFCURVE",
"155 401 CURVE",
"195 280 LINE",
"222 297 OFFCURVE",
"258 309 OFFCURVE",
"292 309 CURVE SMOOTH",
"348 309 OFFCURVE",
"383 276 OFFCURVE",
"383 221 CURVE SMOOTH",
"383 160 OFFCURVE",
"338 132 OFFCURVE",
"263 132 CURVE SMOOTH",
"200 132 OFFCURVE",
"127 153 OFFCURVE",
"73 185 CURVE",
"46 51 LINE",
"106 13 OFFCURVE",
"200 -12 OFFCURVE",
"285 -12 CURVE SMOOTH"
);
},
{
closed = 1;
nodes = (
"195 280 LINE",
"243 395 LINE",
"248 563 LINE",
"504 563 LINE",
"504 707 LINE",
"76 707 LINE",
"70 280 LINE"
);
}
);
width = 580;
},
{
layerId = "D9DFF065-DDB2-4B0F-A853-E0DAE751FB65";
paths = (
{
closed = 1;
nodes = (
"411 -12 OFFCURVE",
"499 73 OFFCURVE",
"499 202 CURVE SMOOTH",
"499 330 OFFCURVE",
"414 416 OFFCURVE",
"283 416 CURVE SMOOTH",
"228 416 OFFCURVE",
"172 402 OFFCURVE",
"115 364 CURVE",
"113 347 LINE",
"166 376 OFFCURVE",
"224 395 OFFCURVE",
"282 395 CURVE SMOOTH",
"401 395 OFFCURVE",
"477 317 OFFCURVE",
"477 202 CURVE SMOOTH",
"477 85 OFFCURVE",
"397 9 OFFCURVE",
"282 9 CURVE SMOOTH",
"219 9 OFFCURVE",
"144 31 OFFCURVE",
"83 65 CURVE",
"77 48 LINE",
"136 12 OFFCURVE",
"218 -12 OFFCURVE",
"285 -12 CURVE SMOOTH"
);
},
{
closed = 1;
nodes = (
"113 347 LINE",
"115 359 LINE",
"121 680 LINE",
"455 680 LINE",
"455 700 LINE",
"102 700 LINE",
"96 347 LINE"
);
}
);
width = 560;
}
);
unicode = 0035;
},
{
glyphname = six;
layers = (
{
layerId = "D9DFF065-DDB2-4B0F-A853-E0DAE751FB65";
paths = (
{
closed = 1;
nodes = (
"424 -12 OFFCURVE",
"508 74 OFFCURVE",
"508 202 CURVE SMOOTH",
"508 332 OFFCURVE",
"426 418 OFFCURVE",
"308 418 CURVE SMOOTH",
"224 418 OFFCURVE",
"135 375 OFFCURVE",
"82 310 CURVE",
"82 294 LINE",
"131 356 OFFCURVE",
"218 397 OFFCURVE",
"299 397 CURVE SMOOTH",
"411 397 OFFCURVE",
"485 319 OFFCURVE",
"485 203 CURVE SMOOTH",
"485 87 OFFCURVE",
"409 9 OFFCURVE",
"305 9 CURVE SMOOTH",
"173 9 OFFCURVE",
"92 136 OFFCURVE",
"92 327 CURVE SMOOTH",
"92 541 OFFCURVE",
"182 683 OFFCURVE",
"321 683 CURVE SMOOTH",
"369 683 OFFCURVE",
"422 666 OFFCURVE",
"455 640 CURVE",
"461 657 LINE",
"426 685 OFFCURVE",
"368 704 OFFCURVE",
"316 704 CURVE SMOOTH",
"168 704 OFFCURVE",
"70 554 OFFCURVE",
"70 328 CURVE SMOOTH",
"70 124 OFFCURVE",
"161 -12 OFFCURVE",
"307 -12 CURVE SMOOTH"
);
}
);
width = 560;
},
{
layerId = "EF8420CB-322A-4DAC-B980-DA6E6912705F";
paths = (
{
closed = 1;
nodes = (
"459 -12 OFFCURVE",
"564 86 OFFCURVE",
"564 234 CURVE SMOOTH",
"564 375 OFFCURVE",
"478 469 OFFCURVE",
"356 469 CURVE SMOOTH",
"272 469 OFFCURVE",
"184 424 OFFCURVE",
"131 337 CURVE",
"183 256 LINE",
"208 297 OFFCURVE",
"256 325 OFFCURVE",
"304 325 CURVE SMOOTH",
"361 325 OFFCURVE",
"401 287 OFFCURVE",
"401 226 CURVE SMOOTH",
"401 174 OFFCURVE",
"372 132 OFFCURVE",
"314 132 CURVE SMOOTH",
"249 132 OFFCURVE",
"206 182 OFFCURVE",
"206 331 CURVE SMOOTH",
"206 480 OFFCURVE",
"233 575 OFFCURVE",
"353 575 CURVE SMOOTH",
"398 575 OFFCURVE",
"434 561 OFFCURVE",
"468 538 CURVE",
"495 677 LINE",
"452 702 OFFCURVE",
"394 719 OFFCURVE",
"333 719 CURVE SMOOTH",
"146 719 OFFCURVE",
"28 566 OFFCURVE",
"28 336 CURVE SMOOTH",
"28 127 OFFCURVE",
"138 -12 OFFCURVE",
"311 -12 CURVE SMOOTH"
);
}
);
width = 580;
}
);
unicode = 0036;
},
{
glyphname = seven;
layers = (
{
layerId = "EF8420CB-322A-4DAC-B980-DA6E6912705F";
paths = (
{
closed = 1;
nodes = (
"331 0 LINE",
"540 633 LINE",
"540 707 LINE",
"35 707 LINE",
"35 567 LINE",
"359 567 LINE",
"172 0 LINE"
);
}
);
width = 580;
},
{
layerId = "D9DFF065-DDB2-4B0F-A853-E0DAE751FB65";
paths = (
{
closed = 1;
nodes = (
"251 0 LINE",
"493 684 LINE",
"493 700 LINE",
"56 700 LINE",
"56 678 LINE",
"467 678 LINE",
"225 0 LINE"
);
}
);
width = 560;
}
);
unicode = 0037;
},
{
glyphname = eight;
layers = (
{
layerId = "EF8420CB-322A-4DAC-B980-DA6E6912705F";
paths = (
{
closed = 1;
nodes = (
"457 -12 OFFCURVE",
"554 74 OFFCURVE",
"554 197 CURVE SMOOTH",
"554 424 OFFCURVE",
"217 401 OFFCURVE",
"217 520 CURVE SMOOTH",
"217 558 OFFCURVE",
"252 579 OFFCURVE",
"294 579 CURVE SMOOTH",
"328 579 OFFCURVE",
"367 565 OFFCURVE",
"367 519 CURVE SMOOTH",
"367 474 OFFCURVE",
"330 431 OFFCURVE",
"282 425 CURVE",
"400 365 LINE",
"480 395 OFFCURVE",
"527 457 OFFCURVE",
"527 534 CURVE SMOOTH",
"527 640 OFFCURVE",
"438 719 OFFCURVE",
"296 719 CURVE SMOOTH",
"151 719 OFFCURVE",
"50 636 OFFCURVE",
"50 510 CURVE SMOOTH",
"50 282 OFFCURVE",
"387 311 OFFCURVE",
"387 190 CURVE SMOOTH",
"387 152 OFFCURVE",
"353 128 OFFCURVE",
"297 128 CURVE SMOOTH",
"255 128 OFFCURVE",
"193 141 OFFCURVE",
"193 200 CURVE SMOOTH",
"193 247 OFFCURVE",
"234 296 OFFCURVE",
"290 300 CURVE",
"191 363 LINE",
"90 344 OFFCURVE",
"26 272 OFFCURVE",
"26 184 CURVE SMOOTH",
"26 66 OFFCURVE",
"141 -12 OFFCURVE",
"295 -12 CURVE SMOOTH"
);
}
);
width = 580;
},
{
layerId = "D9DFF065-DDB2-4B0F-A853-E0DAE751FB65";
paths = (
{
closed = 1;
nodes = (
"421 -12 OFFCURVE",
"508 62 OFFCURVE",
"508 174 CURVE SMOOTH",
"508 416 OFFCURVE",
"102 293 OFFCURVE",
"102 523 CURVE SMOOTH",
"102 618 OFFCURVE",
"171 683 OFFCURVE",
"277 683 CURVE SMOOTH",
"380 683 OFFCURVE",
"449 620 OFFCURVE",
"449 534 CURVE SMOOTH",
"449 445 OFFCURVE",
"373 380 OFFCURVE",
"280 359 CURVE",
"304 350 LINE",
"392 371 OFFCURVE",
"471 437 OFFCURVE",
"471 534 CURVE SMOOTH",
"471 632 OFFCURVE",
"393 704 OFFCURVE",
"277 704 CURVE SMOOTH",
"158 704 OFFCURVE",
"79 630 OFFCURVE",
"79 521 CURVE SMOOTH",
"79 274 OFFCURVE",
"486 399 OFFCURVE",
"486 173 CURVE SMOOTH",
"486 74 OFFCURVE",
"408 9 OFFCURVE",
"286 9 CURVE SMOOTH",
"164 9 OFFCURVE",
"80 75 OFFCURVE",
"80 169 CURVE SMOOTH",
"80 252 OFFCURVE",
"147 327 OFFCURVE",
"281 348 CURVE",
"259 360 LINE",
"145 348 OFFCURVE",
"59 271 OFFCURVE",
"59 169 CURVE SMOOTH",
"59 63 OFFCURVE",
"150 -12 OFFCURVE",
"286 -12 CURVE SMOOTH"
);
}
);
width = 560;
}
);
unicode = 0038;
},
{
glyphname = zero.dnom;
layers = (
{
layerId = "EF8420CB-322A-4DAC-B980-DA6E6912705F";
paths = (
{
closed = 1;
nodes = (
"316 -7 OFFCURVE",
"389 81 OFFCURVE",
"389 213 CURVE SMOOTH",
"389 345 OFFCURVE",
"316 433 OFFCURVE",
"206 433 CURVE SMOOTH",
"95 433 OFFCURVE",
"20 345 OFFCURVE",
"20 213 CURVE SMOOTH",
"20 81 OFFCURVE",
"95 -7 OFFCURVE",
"206 -7 CURVE SMOOTH"
);
},
{
closed = 1;
nodes = (
"175 103 OFFCURVE",
"154 147 OFFCURVE",
"154 213 CURVE SMOOTH",
"154 279 OFFCURVE",
"175 322 OFFCURVE",
"206 322 CURVE SMOOTH",
"236 322 OFFCURVE",
"255 279 OFFCURVE",
"255 213 CURVE SMOOTH",
"255 147 OFFCURVE",
"236 103 OFFCURVE",
"206 103 CURVE SMOOTH"
);
}
);
width = 410;
userData = {
RMXScaler = {
height = 60;
weight = -40;
width = 60;
};
};
},
{
layerId = "D9DFF065-DDB2-4B0F-A853-E0DAE751FB65";
paths = (
{
closed = 1;
nodes = (
"271 -7 OFFCURVE",
"325 79 OFFCURVE",
"325 210 CURVE SMOOTH",
"325 341 OFFCURVE",
"271 428 OFFCURVE",
"189 428 CURVE SMOOTH",
"106 428 OFFCURVE",
"51 341 OFFCURVE",
"51 210 CURVE SMOOTH",
"51 79 OFFCURVE",
"106 -7 OFFCURVE",
"189 -7 CURVE SMOOTH"
);
},
{
closed = 1;
nodes = (
"119 12 OFFCURVE",
"72 91 OFFCURVE",
"72 210 CURVE SMOOTH",
"72 329 OFFCURVE",
"119 409 OFFCURVE",
"189 409 CURVE SMOOTH",
"258 409 OFFCURVE",
"304 329 OFFCURVE",
"304 210 CURVE SMOOTH",
"304 91 OFFCURVE",
"258 12 OFFCURVE",
"189 12 CURVE SMOOTH"
);
}
);
width = 377;
userData = {
RMXScaler = {
height = 60;
width = 60;
};
};
}
);
userData = {
RMXScaler = {
source = zero;
};
};
},
{
glyphname = one.dnom;
layers = (
{
layerId = "D9DFF065-DDB2-4B0F-A853-E0DAE751FB65";
paths = (
{
closed = 1;
nodes = (
"244 0 LINE",
"244 18 LINE",
"150 18 LINE",
"150 420 LINE",
"130 420 LINE",
"15 381 LINE",
"18 365 LINE",
"130 400 LINE",
"130 18 LINE",
"22 18 LINE",
"22 0 LINE"
);
}
);
width = 241;
userData = {
RMXScaler = {
height = 60;
width = 60;
};
};
},
{
layerId = "EF8420CB-322A-4DAC-B980-DA6E6912705F";
paths = (
{
closed = 1;
nodes = (
"349 0 LINE",
"349 111 LINE",
"264 111 LINE",
"264 426 LINE",
"131 426 LINE",
"27 380 LINE",
"40 278 LINE",
"131 311 LINE",
"131 111 LINE",
"33 111 LINE",
"33 0 LINE"
);
}
);
width = 348;
userData = {
RMXScaler = {
height = 60;
weight = -40;
width = 60;
};
};
}
);
userData = {
RMXScaler = {
source = one;
};
};
},
{
glyphname = two.dnom;
layers = (
{
layerId = "D9DFF065-DDB2-4B0F-A853-E0DAE751FB65";
paths = (
{
closed = 1;
nodes = (
"275 0 LINE",
"275 18 LINE",
"49 18 LINE",
"204 184 OFFCURVE",
"251 256 OFFCURVE",
"251 320 CURVE SMOOTH",
"251 385 OFFCURVE",
"203 428 OFFCURVE",
"136 428 CURVE SMOOTH",
"95 428 OFFCURVE",
"50 412 OFFCURVE",
"16 390 CURVE",
"19 374 LINE",
"51 395 OFFCURVE",
"96 409 OFFCURVE",
"133 409 CURVE SMOOTH",
"191 409 OFFCURVE",
"230 374 OFFCURVE",
"230 319 CURVE SMOOTH",
"230 257 OFFCURVE",
"180 185 OFFCURVE",
"20 15 CURVE",
"20 0 LINE"
);
}
);
width = 300;
userData = {
RMXScaler = {
height = 60;
width = 60;
};
};
},
{
layerId = "EF8420CB-322A-4DAC-B980-DA6E6912705F";
paths = (
{
closed = 1;
nodes = (
"324 0 LINE",
"324 111 LINE",
"204 111 LINE",
"286 151 OFFCURVE",
"324 243 OFFCURVE",
"324 303 CURVE SMOOTH",
"324 381 OFFCURVE",
"261 433 OFFCURVE",
"159 433 CURVE SMOOTH",
"103 433 OFFCURVE",
"55 418 OFFCURVE",
"20 396 CURVE",
"33 291 LINE",
"72 313 OFFCURVE",
"102 322 OFFCURVE",
"133 322 CURVE SMOOTH",
"169 322 OFFCURVE",
"190 310 OFFCURVE",
"190 283 CURVE SMOOTH",
"190 230 OFFCURVE",
"112 133 OFFCURVE",
"24 83 CURVE",
"24 0 LINE"
);
}
);
width = 361;
userData = {
RMXScaler = {
height = 60;
weight = -40;
width = 60;
};
};
}
);
userData = {
RMXScaler = {
source = two;
};
};
},
{
glyphname = three.dnom;
layers = (
{
layerId = "EF8420CB-322A-4DAC-B980-DA6E6912705F";
paths = (
{
closed = 1;
nodes = (
"277 -7 OFFCURVE",
"343 45 OFFCURVE",
"343 116 CURVE SMOOTH",
"343 166 OFFCURVE",
"308 211 OFFCURVE",
"257 217 CURVE",
"257 219 LINE",
"295 232 OFFCURVE",
"320 272 OFFCURVE",
"320 316 CURVE SMOOTH",
"320 383 OFFCURVE",
"262 433 OFFCURVE",
"169 433 CURVE SMOOTH",
"120 433 OFFCURVE",
"64 418 OFFCURVE",
"33 399 CURVE",
"46 294 LINE",
"78 311 OFFCURVE",
"119 322 OFFCURVE",
"145 322 CURVE SMOOTH",
"172 322 OFFCURVE",
"187 311 OFFCURVE",
"187 299 CURVE SMOOTH",
"187 278 OFFCURVE",
"154 261 OFFCURVE",
"105 261 CURVE",
"105 161 LINE",
"168 161 OFFCURVE",
"210 144 OFFCURVE",
"210 127 CURVE SMOOTH",
"210 116 OFFCURVE",
"187 103 OFFCURVE",
"149 103 CURVE SMOOTH",
"116 103 OFFCURVE",
"70 113 OFFCURVE",
"36 128 CURVE",
"22 23 LINE",
"62 5 OFFCURVE",
"122 -7 OFFCURVE",
"172 -7 CURVE SMOOTH"
);
}
);
width = 363;
userData = {
RMXScaler = {
height = 60;
weight = -40;
width = 60;
};
};
},
{
layerId = "D9DFF065-DDB2-4B0F-A853-E0DAE751FB65";
paths = (
{
closed = 1;
nodes = (
"224 -7 OFFCURVE",
"283 25 OFFCURVE",
"283 100 CURVE SMOOTH",
"283 171 OFFCURVE",
"232 208 OFFCURVE",
"155 214 CURVE",
"155 216 LINE",
"218 223 OFFCURVE",
"262 259 OFFCURVE",
"262 321 CURVE SMOOTH",
"262 390 OFFCURVE",
"208 428 OFFCURVE",
"144 428 CURVE SMOOTH",
"107 428 OFFCURVE",
"64 414 OFFCURVE",
"28 386 CURVE",
"31 370 LINE",
"61 393 OFFCURVE",
"99 409 OFFCURVE",
"139 409 CURVE SMOOTH",
"195 409 OFFCURVE",
"241 378 OFFCURVE",
"241 320 CURVE SMOOTH",
"241 256 OFFCURVE",
"183 223 OFFCURVE",
"96 223 CURVE",
"96 205 LINE",
"196 205 OFFCURVE",
"262 175 OFFCURVE",
"262 100 CURVE SMOOTH",
"262 37 OFFCURVE",
"210 12 OFFCURVE",
"146 12 CURVE SMOOTH",
"100 12 OFFCURVE",
"51 25 OFFCURVE",
"22 45 CURVE",
"19 28 LINE",
"50 7 OFFCURVE",
"101 -7 OFFCURVE",
"149 -7 CURVE SMOOTH"
);
}
);
width = 329;
userData = {
RMXScaler = {
height = 60;
width = 60;
};
};
}
);
userData = {
RMXScaler = {
source = three;
};
};
},
{
glyphname = four.dnom;
layers = (
{
layerId = "EF8420CB-322A-4DAC-B980-DA6E6912705F";
paths = (
{
closed = 1;
nodes = (
"361 76 LINE",
"361 183 LINE",
"115 183 LINE",
"115 186 LINE",
"179 274 LINE",
"182 274 LINE",
"182 0 LINE",
"313 0 LINE",
"313 426 LINE",
"190 426 LINE",
"5 182 LINE",
"5 76 LINE"
);
}
);
width = 383;
userData = {
RMXScaler = {
height = 60;
weight = -40;
width = 60;
};
};
},
{
layerId = "D9DFF065-DDB2-4B0F-A853-E0DAE751FB65";
paths = (
{
closed = 1;
nodes = (
"322 105 LINE",
"322 123 LINE",
"34 123 LINE",
"34 125 LINE",
"215 397 LINE",
"218 397 LINE",
"218 0 LINE",
"238 0 LINE",
"238 420 LINE",
"211 420 LINE",
"13 123 LINE",
"13 105 LINE"
);
}
);
width = 335;
userData = {
RMXScaler = {
height = 60;
width = 60;
};
};
}
);
userData = {
RMXScaler = {
source = four;
};
};
},
{
glyphname = five.dnom;
layers = (
{
layerId = "EF8420CB-322A-4DAC-B980-DA6E6912705F";
paths = (
{
closed = 1;
nodes = (
"293 -7 OFFCURVE",
"362 51 OFFCURVE",
"362 139 CURVE SMOOTH",
"362 223 OFFCURVE",
"308 279 OFFCURVE",
"227 279 CURVE SMOOTH",
"184 279 OFFCURVE",
"141 265 OFFCURVE",
"118 248 CURVE",
"150 155 LINE",
"162 163 OFFCURVE",
"179 169 OFFCURVE",
"195 169 CURVE SMOOTH",
"216 169 OFFCURVE",
"229 158 OFFCURVE",
"229 136 CURVE SMOOTH",
"229 111 OFFCURVE",
"209 103 OFFCURVE",
"172 103 CURVE SMOOTH",
"134 103 OFFCURVE",
"83 116 OFFCURVE",
"52 134 CURVE",
"39 31 LINE",
"75 8 OFFCURVE",
"134 -7 OFFCURVE",
"188 -7 CURVE SMOOTH"
);
},
{
closed = 1;
nodes = (
"150 155 LINE",
"188 244 LINE",
"191 315 LINE",
"329 315 LINE",
"329 426 LINE",
"58 426 LINE",
"54 155 LINE"
);
}
);
width = 386;
userData = {
RMXScaler = {
height = 60;
weight = -40;
width = 60;
};
};
},
{
layerId = "D9DFF065-DDB2-4B0F-A853-E0DAE751FB65";
paths = (
{
closed = 1;
nodes = (
"255 -7 OFFCURVE",
"309 44 OFFCURVE",
"309 122 CURVE SMOOTH",
"309 200 OFFCURVE",
"258 251 OFFCURVE",
"179 251 CURVE SMOOTH",
"145 251 OFFCURVE",
"111 243 OFFCURVE",
"77 220 CURVE",
"78 205 LINE",
"109 222 OFFCURVE",
"143 233 OFFCURVE",
"176 233 CURVE SMOOTH",
"244 233 OFFCURVE",
"288 188 OFFCURVE",
"288 122 CURVE SMOOTH",
"288 55 OFFCURVE",
"242 12 OFFCURVE",
"175 12 CURVE SMOOTH",
"137 12 OFFCURVE",
"90 25 OFFCURVE",
"54 45 CURVE",
"51 29 LINE",
"86 7 OFFCURVE",
"136 -7 OFFCURVE",
"177 -7 CURVE SMOOTH"
);
},
{
closed = 1;
nodes = (
"78 205 LINE",
"82 217 LINE",
"86 402 LINE",
"282 402 LINE",
"282 420 LINE",
"66 420 LINE",
"63 205 LINE"
);
}
);
width = 344;
userData = {
RMXScaler = {
height = 60;
width = 60;
};
};
}
);
userData = {
RMXScaler = {
source = five;
};
};
},
{
glyphname = six.dnom;
layers = (
{
layerId = "D9DFF065-DDB2-4B0F-A853-E0DAE751FB65";
paths = (
{
closed = 1;
nodes = (
"266 -7 OFFCURVE",
"318 45 OFFCURVE",
"318 123 CURVE SMOOTH",
"318 201 OFFCURVE",
"268 253 OFFCURVE",
"197 253 CURVE SMOOTH",
"147 253 OFFCURVE",
"94 228 OFFCURVE",
"62 187 CURVE",
"65 174 LINE",
"93 211 OFFCURVE",
"143 235 OFFCURVE",
"190 235 CURVE SMOOTH",
"254 235 OFFCURVE",
"297 190 OFFCURVE",
"297 123 CURVE SMOOTH",
"297 57 OFFCURVE",
"254 12 OFFCURVE",
"194 12 CURVE SMOOTH",
"118 12 OFFCURVE",
"71 84 OFFCURVE",
"71 196 CURVE SMOOTH",
"71 321 OFFCURVE",
"122 404 OFFCURVE",
"204 404 CURVE SMOOTH",
"233 404 OFFCURVE",
"266 394 OFFCURVE",
"286 379 CURVE",
"288 395 LINE",
"267 412 OFFCURVE",
"232 423 OFFCURVE",
"201 423 CURVE SMOOTH",
"110 423 OFFCURVE",
"50 333 OFFCURVE",
"50 197 CURVE SMOOTH",
"50 75 OFFCURVE",
"106 -7 OFFCURVE",
"195 -7 CURVE SMOOTH"
);
}
);
width = 355;
userData = {
RMXScaler = {
height = 60;
width = 60;
};
};
},
{
layerId = "EF8420CB-322A-4DAC-B980-DA6E6912705F";
paths = (
{
closed = 1;
nodes = (
"295 -7 OFFCURVE",
"362 54 OFFCURVE",
"362 147 CURVE SMOOTH",
"362 233 OFFCURVE",
"309 291 OFFCURVE",
"235 291 CURVE SMOOTH",
"185 291 OFFCURVE",
"132 264 OFFCURVE",
"101 207 CURVE",
"142 146 LINE",
"152 167 OFFCURVE",
"173 181 OFFCURVE",
"196 181 CURVE SMOOTH",
"219 181 OFFCURVE",
"237 166 OFFCURVE",
"237 138 CURVE SMOOTH",
"237 121 OFFCURVE",
"228 103 OFFCURVE",
"203 103 CURVE SMOOTH",
"177 103 OFFCURVE",
"158 118 OFFCURVE",
"158 199 CURVE SMOOTH",
"158 276 OFFCURVE",
"162 324 OFFCURVE",
"230 324 CURVE SMOOTH",
"257 324 OFFCURVE",
"282 316 OFFCURVE",
"303 303 CURVE",
"316 410 LINE",
"289 425 OFFCURVE",
"254 434 OFFCURVE",
"215 434 CURVE SMOOTH",
"96 434 OFFCURVE",
"21 342 OFFCURVE",
"21 203 CURVE SMOOTH",
"21 77 OFFCURVE",
"91 -7 OFFCURVE",
"200 -7 CURVE SMOOTH"
);
}
);
width = 381;
userData = {
RMXScaler = {
height = 60;
weight = -40;
width = 60;
};
};
}
);
userData = {
RMXScaler = {
source = six;
};
};
},
{
glyphname = seven.dnom;
layers = (
{
layerId = "EF8420CB-322A-4DAC-B980-DA6E6912705F";
paths = (
{
closed = 1;
nodes = (
"190 0 LINE",
"309 370 LINE",
"309 426 LINE",
"-7 426 LINE",
"-7 319 LINE",
"170 319 LINE",
"69 0 LINE"
);
}
);
width = 312;
userData = {
RMXScaler = {
height = 60;
weight = -40;
width = 60;
};
};
},
{
layerId = "D9DFF065-DDB2-4B0F-A853-E0DAE751FB65";
paths = (
{
closed = 1;
nodes = (
"118 0 LINE",
"262 408 LINE",
"262 420 LINE",
"-4 420 LINE",
"-4 401 LINE",
"238 401 LINE",
"96 0 LINE"
);
}
);
width = 277;
userData = {
RMXScaler = {
height = 60;
width = 60;
};
};
}
);
userData = {
RMXScaler = {
source = seven;
};
};
},
{
glyphname = eight.dnom;
layers = (
{
layerId = "EF8420CB-322A-4DAC-B980-DA6E6912705F";
paths = (
{
closed = 1;
nodes = (
"292 -7 OFFCURVE",
"351 46 OFFCURVE",
"351 121 CURVE SMOOTH",
"351 255 OFFCURVE",
"158 255 OFFCURVE",
"158 312 CURVE SMOOTH",
"158 327 OFFCURVE",
"175 334 OFFCURVE",
"191 334 CURVE SMOOTH",
"203 334 OFFCURVE",
"222 332 OFFCURVE",
"222 309 CURVE SMOOTH",
"222 288 OFFCURVE",
"205 265 OFFCURVE",
"182 264 CURVE",
"265 221 LINE",
"312 240 OFFCURVE",
"336 277 OFFCURVE",
"336 320 CURVE SMOOTH",
"336 385 OFFCURVE",
"281 433 OFFCURVE",
"193 433 CURVE SMOOTH",
"102 433 OFFCURVE",
"39 382 OFFCURVE",
"39 305 CURVE SMOOTH",
"39 170 OFFCURVE",
"232 175 OFFCURVE",
"232 116 CURVE SMOOTH",
"232 101 OFFCURVE",
"217 92 OFFCURVE",
"192 92 CURVE SMOOTH",
"178 92 OFFCURVE",
"143 93 OFFCURVE",
"143 124 CURVE SMOOTH",
"143 148 OFFCURVE",
"164 174 OFFCURVE",
"188 174 CURVE",
"118 218 LINE",
"60 206 OFFCURVE",
"24 163 OFFCURVE",
"24 112 CURVE SMOOTH",
"24 40 OFFCURVE",
"96 -7 OFFCURVE",
"191 -7 CURVE SMOOTH"
);
}
);
width = 376;
userData = {
RMXScaler = {
height = 60;
weight = -50;
width = 60;
};
};
},
{
layerId = "D9DFF065-DDB2-4B0F-A853-E0DAE751FB65";
paths = (
{
closed = 1;
nodes = (
"270 -7 OFFCURVE",
"322 38 OFFCURVE",
"322 106 CURVE SMOOTH",
"322 250 OFFCURVE",
"82 181 OFFCURVE",
"82 314 CURVE SMOOTH",
"82 368 OFFCURVE",
"122 404 OFFCURVE",
"182 404 CURVE SMOOTH",
"241 404 OFFCURVE",
"280 369 OFFCURVE",
"280 320 CURVE SMOOTH",
"280 268 OFFCURVE",
"237 231 OFFCURVE",
"183 219 CURVE",
"203 211 LINE",
"255 224 OFFCURVE",
"301 263 OFFCURVE",
"301 320 CURVE SMOOTH",
"301 380 OFFCURVE",
"253 423 OFFCURVE",
"182 423 CURVE SMOOTH",
"110 423 OFFCURVE",
"61 378 OFFCURVE",
"61 312 CURVE SMOOTH",
"61 165 OFFCURVE",
"302 235 OFFCURVE",
"302 105 CURVE SMOOTH",
"302 48 OFFCURVE",
"257 12 OFFCURVE",
"187 12 CURVE SMOOTH",
"118 12 OFFCURVE",
"69 48 OFFCURVE",
"69 103 CURVE SMOOTH",
"69 151 OFFCURVE",
"108 195 OFFCURVE",
"184 206 CURVE",
"167 216 LINE",
"99 209 OFFCURVE",
"49 163 OFFCURVE",
"49 102 CURVE SMOOTH",
"49 38 OFFCURVE",
"105 -7 OFFCURVE",
"187 -7 CURVE SMOOTH"
);
}
);
width = 367;
userData = {
RMXScaler = {
height = 60;
width = 60;
};
};
}
);
userData = {
RMXScaler = {
source = eight;
};
};
},
{
glyphname = fraction;
layers = (
{
layerId = "D9DFF065-DDB2-4B0F-A853-E0DAE751FB65";
paths = (
{
closed = 1;
nodes = (
"-130 0 LINE",
"-109 0 LINE",
"342 700 LINE",
"321 700 LINE"
);
}
);
width = 212;
},
{
layerId = "EF8420CB-322A-4DAC-B980-DA6E6912705F";
paths = (
{
closed = 1;
nodes = (
"-88 0 LINE",
"54 0 LINE",
"351 707 LINE",
"211 707 LINE"
);
}
);
width = 263;
}
);
unicode = 2044;
},
{
glyphname = asterisk;
layers = (
{
layerId = "EF8420CB-322A-4DAC-B980-DA6E6912705F";
paths = (
{
closed = 1;
nodes = (
"103 634 LINE",
"50 494 LINE",
"319 412 LINE",
"355 520 LINE"
);
},
{
closed = 1;
nodes = (
"514 494 LINE",
"463 635 LINE",
"211 522 LINE",
"245 412 LINE"
);
},
{
closed = 1;
nodes = (
"84 366 LINE",
"197 269 LINE",
"364 496 LINE",
"275 567 LINE"
);
},
{
closed = 1;
nodes = (
"357 707 LINE",
"207 707 LINE",
"226 429 LINE",
"338 429 LINE"
);
},
{
closed = 1;
nodes = (
"367 268 LINE",
"480 367 LINE",
"291 568 LINE",
"202 497 LINE"
);
}
);
width = 565;
},
{
layerId = "D9DFF065-DDB2-4B0F-A853-E0DAE751FB65";
paths = (
{
closed = 1;
nodes = (
"92 608 LINE",
"83 584 LINE",
"242 529 LINE",
"247 544 LINE"
);
},
{
closed = 1;
nodes = (
"392 584 LINE",
"383 609 LINE",
"227 545 LINE",
"232 529 LINE"
);
},
{
closed = 1;
nodes = (
"133 417 LINE",
"153 402 LINE",
"249 541 LINE",
"236 550 LINE"
);
},
{
closed = 1;
nodes = (
"250 700 LINE",
"224 700 LINE",
"229 532 LINE",
"245 532 LINE"
);
},
{
closed = 1;
nodes = (
"321 402 LINE",
"342 418 LINE",
"240 551 LINE",
"227 542 LINE"
);
}
);
width = 476;
}
);
unicode = 002A;
},
{
glyphname = bullet;
layers = (
{
layerId = "EF8420CB-322A-4DAC-B980-DA6E6912705F";
paths = (
{
closed = 1;
nodes = (
"314 150 OFFCURVE",
"377 216 OFFCURVE",
"377 303 CURVE SMOOTH",
"377 390 OFFCURVE",
"314 458 OFFCURVE",
"224 458 CURVE SMOOTH",
"134 458 OFFCURVE",
"71 390 OFFCURVE",
"71 303 CURVE SMOOTH",
"71 216 OFFCURVE",
"134 150 OFFCURVE",
"224 150 CURVE SMOOTH"
);
}
);
width = 449;
},
{
layerId = "D9DFF065-DDB2-4B0F-A853-E0DAE751FB65";
paths = (
{
closed = 1;
nodes = (
"174 308 OFFCURVE",
"185 319 OFFCURVE",
"185 336 CURVE SMOOTH",
"185 353 OFFCURVE",
"174 364 OFFCURVE",
"157 364 CURVE SMOOTH",
"140 364 OFFCURVE",
"129 353 OFFCURVE",
"129 336 CURVE SMOOTH",
"129 319 OFFCURVE",
"140 308 OFFCURVE",
"157 308 CURVE SMOOTH"
);
}
);
width = 314;
}
);
unicode = 2022;
},
{
glyphname = exclam;
layers = (
{
components = (
{
name = _period;
transform = "{1, 0, 0, 1, 9, 0}";
}
);
layerId = "EF8420CB-322A-4DAC-B980-DA6E6912705F";
paths = (
{
closed = 1;
nodes = (
"254 272 LINE",
"279 707 LINE",
"76 707 LINE",
"101 272 LINE"
);
}
);
width = 359;
},
{
components = (
{
name = _period;
transform = "{1, 0, 0, 1, -6, 0}";
}
);
layerId = "D9DFF065-DDB2-4B0F-A853-E0DAE751FB65";
paths = (
{
closed = 1;
nodes = (
"153 154 LINE",
"157 700 LINE",
"134 700 LINE",
"138 154 LINE"
);
}
);
width = 291;
}
);
unicode = 0021;
},
{
glyphname = numbersign;
layers = (
{
layerId = "EF8420CB-322A-4DAC-B980-DA6E6912705F";
paths = (
{
closed = 1;
nodes = (
"150 0 LINE",
"326 0 LINE",
"326 707 LINE",
"150 707 LINE"
);
},
{
closed = 1;
nodes = (
"413 0 LINE",
"586 0 LINE",
"586 707 LINE",
"413 707 LINE"
);
},
{
closed = 1;
nodes = (
"68 419 LINE",
"669 419 LINE",
"669 559 LINE",
"68 559 LINE"
);
},
{
closed = 1;
nodes = (
"68 148 LINE",
"669 148 LINE",
"669 288 LINE",
"68 288 LINE"
);
}
);
width = 737;
},
{
layerId = "D9DFF065-DDB2-4B0F-A853-E0DAE751FB65";
paths = (
{
closed = 1;
nodes = (
"238 0 LINE",
"258 0 LINE",
"258 700 LINE",
"238 700 LINE"
);
},
{
closed = 1;
nodes = (
"499 0 LINE",
"519 0 LINE",
"519 700 LINE",
"499 700 LINE"
);
},
{
closed = 1;
nodes = (
"78 473 LINE",
"679 473 LINE",
"679 492 LINE",
"78 492 LINE"
);
},
{
closed = 1;
nodes = (
"78 208 LINE",
"679 208 LINE",
"679 227 LINE",
"78 227 LINE"
);
}
);
width = 757;
}
);
unicode = 0023;
},
{
glyphname = question;
layers = (
{
components = (
{
name = _period;
transform = "{1, 0, 0, 1, 62, 0}";
}
);
layerId = "EF8420CB-322A-4DAC-B980-DA6E6912705F";
paths = (
{
closed = 1;
nodes = (
"309 252 LINE",
"309 372 OFFCURVE",
"472 416 OFFCURVE",
"472 553 CURVE SMOOTH",
"472 655 OFFCURVE",
"382 719 OFFCURVE",
"230 719 CURVE SMOOTH",
"164 719 OFFCURVE",
"92 702 OFFCURVE",
"37 674 CURVE",
"64 537 LINE",
"99 561 OFFCURVE",
"144 575 OFFCURVE",
"189 575 CURVE SMOOTH",
"246 575 OFFCURVE",
"283 552 OFFCURVE",
"283 515 CURVE SMOOTH",
"283 447 OFFCURVE",
"155 416 OFFCURVE",
"155 252 CURVE"
);
}
);
width = 513;
},
{
components = (
{
name = _period;
transform = "{1, 0, 0, 1, 100, 0}";
}
);
layerId = "D9DFF065-DDB2-4B0F-A853-E0DAE751FB65";
paths = (
{
closed = 1;
nodes = (
"255 154 LINE",
"255 371 OFFCURVE",
"432 392 OFFCURVE",
"432 545 CURVE SMOOTH",
"432 637 OFFCURVE",
"367 712 OFFCURVE",
"250 712 CURVE SMOOTH",
"186 712 OFFCURVE",
"122 690 OFFCURVE",
"67 664 CURVE",
"73 647 LINE",
"125 674 OFFCURVE",
"189 692 OFFCURVE",
"245 692 CURVE SMOOTH",
"352 692 OFFCURVE",
"411 627 OFFCURVE",
"411 546 CURVE SMOOTH",
"411 407 OFFCURVE",
"236 376 OFFCURVE",
"236 154 CURVE"
);
}
);
width = 512;
}
);
unicode = 003F;
},
{
glyphname = slash;
layers = (
{
layerId = "EF8420CB-322A-4DAC-B980-DA6E6912705F";
paths = (
{
closed = 1;
nodes = (
"5 -160 LINE",
"168 -160 LINE",
"409 741 LINE",
"246 741 LINE"
);
}
);
width = 414;
},
{
layerId = "D9DFF065-DDB2-4B0F-A853-E0DAE751FB65";
paths = (
{
closed = 1;
nodes = (
"34 -83 LINE",
"54 -83 LINE",
"263 730 LINE",
"243 730 LINE"
);
}
);
width = 297;
}
);
unicode = 002F;
},
{
glyphname = underscore;
layers = (
{
layerId = "EF8420CB-322A-4DAC-B980-DA6E6912705F";
paths = (
{
closed = 1;
nodes = (
"99 0 LINE",
"493 0 LINE",
"493 140 LINE",
"99 140 LINE"
);
}
);
width = 592;
},
{
layerId = "D9DFF065-DDB2-4B0F-A853-E0DAE751FB65";
paths = (
{
closed = 1;
nodes = (
"134 0 LINE",
"528 0 LINE",
"528 19 LINE",
"134 19 LINE"
);
}
);
width = 662;
}
);
unicode = 005F;
},
{
glyphname = periodcentered.loclCAT;
layers = (
{
layerId = "D9DFF065-DDB2-4B0F-A853-E0DAE751FB65";
paths = (
{
closed = 1;
nodes = (
"14 313 OFFCURVE",
"26 325 OFFCURVE",
"26 342 CURVE SMOOTH",
"26 359 OFFCURVE",
"14 371 OFFCURVE",
"-3 371 CURVE SMOOTH",
"-20 371 OFFCURVE",
"-32 359 OFFCURVE",
"-32 342 CURVE SMOOTH",
"-32 325 OFFCURVE",
"-20 313 OFFCURVE",
"-3 313 CURVE SMOOTH"
);
}
);
width = 0;
},
{
layerId = "EF8420CB-322A-4DAC-B980-DA6E6912705F";
paths = (
{
closed = 1;
nodes = (
"221 285 OFFCURVE",
"257 323 OFFCURVE",
"257 372 CURVE SMOOTH",
"257 421 OFFCURVE",
"221 460 OFFCURVE",
"170 460 CURVE SMOOTH",
"119 460 OFFCURVE",
"83 421 OFFCURVE",
"83 372 CURVE SMOOTH",
"83 323 OFFCURVE",
"119 285 OFFCURVE",
"170 285 CURVE SMOOTH"
);
}
);
width = 340;
}
);
},
{
glyphname = braceleft;
layers = (
{
layerId = "D9DFF065-DDB2-4B0F-A853-E0DAE751FB65";
paths = (
{
closed = 1;
nodes = (
"310 -150 LINE",
"238 -126 OFFCURVE",
"187 -60 OFFCURVE",
"187 15 CURVE SMOOTH",
"187 111 LINE SMOOTH",
"187 182 OFFCURVE",
"140 247 OFFCURVE",
"70 275 CURVE",
"70 276 LINE",
"140 304 OFFCURVE",
"187 367 OFFCURVE",
"187 435 CURVE SMOOTH",
"187 536 LINE SMOOTH",
"187 611 OFFCURVE",
"238 677 OFFCURVE",
"310 701 CURVE",
"304 718 LINE",
"224 691 OFFCURVE",
"168 619 OFFCURVE",
"168 536 CURVE SMOOTH",
"168 435 LINE SMOOTH",
"168 368 OFFCURVE",
"121 311 OFFCURVE",
"48 289 CURVE",
"48 263 LINE",
"121 241 OFFCURVE",
"168 180 OFFCURVE",
"168 111 CURVE SMOOTH",
"168 15 LINE SMOOTH",
"168 -68 OFFCURVE",
"224 -140 OFFCURVE",
"304 -167 CURVE"
);
}
);
width = 358;
},
{
layerId = "EF8420CB-322A-4DAC-B980-DA6E6912705F";
paths = (
{
closed = 1;
nodes = (
"378 -59 LINE",
"334 -48 OFFCURVE",
"305 -18 OFFCURVE",
"305 15 CURVE SMOOTH",
"305 111 LINE SMOOTH",
"305 182 OFFCURVE",
"258 247 OFFCURVE",
"188 275 CURVE",
"188 276 LINE",
"258 304 OFFCURVE",
"305 367 OFFCURVE",
"305 435 CURVE SMOOTH",
"305 536 LINE SMOOTH",
"305 573 OFFCURVE",
"334 605 OFFCURVE",
"378 616 CURVE",
"321 728 LINE",
"191 691 OFFCURVE",
"135 619 OFFCURVE",
"135 536 CURVE SMOOTH",
"135 435 LINE SMOOTH",
"135 370 OFFCURVE",
"88 311 OFFCURVE",
"15 289 CURVE",
"15 263 LINE",
"88 241 OFFCURVE",
"135 180 OFFCURVE",
"135 111 CURVE SMOOTH",
"135 15 LINE SMOOTH",
"135 -68 OFFCURVE",
"191 -150 OFFCURVE",
"321 -177 CURVE"
);
}
);
width = 405;
}
);
unicode = 007B;
},
{
glyphname = bracketleft;
layers = (
{
layerId = "D9DFF065-DDB2-4B0F-A853-E0DAE751FB65";
paths = (
{
closed = 1;
nodes = (
"279 -182 LINE",
"279 -163 LINE",
"134 -163 LINE",
"134 699 LINE",
"279 699 LINE",
"279 718 LINE",
"115 718 LINE",
"115 -182 LINE"
);
}
);
width = 327;
},
{
layerId = "EF8420CB-322A-4DAC-B980-DA6E6912705F";
paths = (
{
closed = 1;
nodes = (
"402 -178 LINE",
"402 -38 LINE",
"258 -38 LINE",
"258 579 LINE",
"402 579 LINE",
"402 719 LINE",
"85 719 LINE",
"85 -178 LINE"
);
}
);
width = 439;
}
);
unicode = 005B;
},
{
glyphname = parenleft;
layers = (
{
layerId = "D9DFF065-DDB2-4B0F-A853-E0DAE751FB65";
paths = (
{
closed = 1;
nodes = (
"225 -151 LINE",
"136 3 OFFCURVE",
"100 127 OFFCURVE",
"100 284 CURVE SMOOTH",
"100 430 OFFCURVE",
"135 551 OFFCURVE",
"223 708 CURVE",
"208 718 LINE",
"116 559 OFFCURVE",
"79 435 OFFCURVE",
"79 284 CURVE SMOOTH",
"79 127 OFFCURVE",
"116 0 OFFCURVE",
"210 -161 CURVE"
);
}
);
width = 278;
},
{
layerId = "EF8420CB-322A-4DAC-B980-DA6E6912705F";
paths = (
{
closed = 1;
nodes = (
"316 -140 LINE",
"249 -33 OFFCURVE",
"209 118 OFFCURVE",
"209 262 CURVE SMOOTH",
"209 405 OFFCURVE",
"249 554 OFFCURVE",
"316 666 CURVE",
"196 728 LINE",
"80 534 OFFCURVE",
"45 427 OFFCURVE",
"45 264 CURVE SMOOTH",
"45 102 OFFCURVE",
"80 -6 OFFCURVE",
"196 -206 CURVE"
);
}
);
width = 343;
}
);
unicode = 0028;
},
{
glyphname = emdash;
layers = (
{
layerId = "EF8420CB-322A-4DAC-B980-DA6E6912705F";
paths = (
{
closed = 1;
nodes = (
"971 193 LINE",
"971 333 LINE",
"71 333 LINE",
"71 193 LINE"
);
}
);
width = 1042;
},
{
layerId = "D9DFF065-DDB2-4B0F-A853-E0DAE751FB65";
paths = (
{
closed = 1;
nodes = (
"996 253 LINE",
"996 272 LINE",
"96 272 LINE",
"96 253 LINE"
);
}
);
width = 1092;
}
);
unicode = 2014;
},
{
glyphname = endash;
layers = (
{
layerId = "EF8420CB-322A-4DAC-B980-DA6E6912705F";
paths = (
{
closed = 1;
nodes = (
"471 193 LINE",
"471 333 LINE",
"71 333 LINE",
"71 193 LINE"
);
}
);
width = 542;
},
{
layerId = "D9DFF065-DDB2-4B0F-A853-E0DAE751FB65";
paths = (
{
closed = 1;
nodes = (
"496 253 LINE",
"496 272 LINE",
"96 272 LINE",
"96 253 LINE"
);
}
);
width = 592;
}
);
unicode = 2013;
},
{
glyphname = figuredash;
layers = (
{
layerId = "EF8420CB-322A-4DAC-B980-DA6E6912705F";
paths = (
{
closed = 1;
nodes = (
"549 193 LINE",
"549 333 LINE",
"71 333 LINE",
"71 193 LINE"
);
}
);
width = 620;
},
{
layerId = "D9DFF065-DDB2-4B0F-A853-E0DAE751FB65";
paths = (
{
closed = 1;
nodes = (
"504 253 LINE",
"504 272 LINE",
"96 272 LINE",
"96 253 LINE"
);
}
);
width = 600;
}
);
unicode = 2012;
},
{
glyphname = hyphen;
layers = (
{
layerId = "EF8420CB-322A-4DAC-B980-DA6E6912705F";
paths = (
{
closed = 1;
nodes = (
"361 193 LINE",
"361 333 LINE",
"71 333 LINE",
"71 193 LINE"
);
}
);
width = 432;
},
{
layerId = "D9DFF065-DDB2-4B0F-A853-E0DAE751FB65";
paths = (
{
closed = 1;
nodes = (
"386 253 LINE",
"386 272 LINE",
"96 272 LINE",
"96 253 LINE"
);
}
);
width = 482;
}
);
unicode = 002D;
},
{
glyphname = hyphentwo;
layers = (
{
layerId = "EF8420CB-322A-4DAC-B980-DA6E6912705F";
paths = (
{
closed = 1;
nodes = (
"271 193 LINE",
"271 333 LINE",
"71 333 LINE",
"71 193 LINE"
);
}
);
width = 342;
},
{
layerId = "D9DFF065-DDB2-4B0F-A853-E0DAE751FB65";
paths = (
{
closed = 1;
nodes = (
"296 253 LINE",
"296 272 LINE",
"96 272 LINE",
"96 253 LINE"
);
}
);
width = 392;
}
);
unicode = 2010;
},
{
glyphname = guilsinglleft;
layers = (
{
layerId = "EF8420CB-322A-4DAC-B980-DA6E6912705F";
paths = (
{
closed = 1;
nodes = (
"329 74 LINE",
"200 258 LINE",
"200 261 LINE",
"329 444 LINE",
"160 444 LINE",
"30 260 LINE",
"160 74 LINE"
);
}
);
width = 359;
},
{
layerId = "D9DFF065-DDB2-4B0F-A853-E0DAE751FB65";
paths = (
{
closed = 1;
nodes = (
"209 74 LINE",
"86 250 LINE",
"86 253 LINE",
"209 430 LINE",
"187 430 LINE",
"63 252 LINE",
"187 74 LINE"
);
}
);
width = 271;
}
);
unicode = 2039;
},
{
glyphname = quoteleft;
layers = (
{
layerId = "EF8420CB-322A-4DAC-B980-DA6E6912705F";
paths = (
{
closed = 1;
nodes = (
"113 721 OFFCURVE",
"50 617 OFFCURVE",
"50 529 CURVE SMOOTH",
"50 460 OFFCURVE",
"91 414 OFFCURVE",
"152 414 CURVE SMOOTH",
"210 414 OFFCURVE",
"248 452 OFFCURVE",
"248 508 CURVE SMOOTH",
"248 558 OFFCURVE",
"218 603 OFFCURVE",
"172 603 CURVE",
"172 651 OFFCURVE",
"203 707 OFFCURVE",
"258 754 CURVE",
"208 789 LINE"
);
}
);
width = 307;
},
{
layerId = "D9DFF065-DDB2-4B0F-A853-E0DAE751FB65";
paths = (
{
closed = 1;
nodes = (
"121 683 OFFCURVE",
"99 609 OFFCURVE",
"99 560 CURVE SMOOTH",
"99 530 OFFCURVE",
"107 519 OFFCURVE",
"120 519 CURVE SMOOTH",
"133 519 OFFCURVE",
"141 528 OFFCURVE",
"141 542 CURVE SMOOTH",
"141 555 OFFCURVE",
"132 564 OFFCURVE",
"118 564 CURVE",
"118 620 OFFCURVE",
"135 684 OFFCURVE",
"160 723 CURVE",
"155 730 LINE"
);
}
);
width = 249;
}
);
unicode = 2018;
},
{
glyphname = cedi;
layers = (
{
components = (
{
name = _currency_C;
transform = "{1, 0, 0, 1, -52, 0}";
}
);
layerId = "D9DFF065-DDB2-4B0F-A853-E0DAE751FB65";
paths = (
{
closed = 1;
nodes = (
"327 -116 LINE",
"347 -116 LINE",
"347 821 LINE",
"327 821 LINE"
);
}
);
width = 644;
userData = {
RMXScaler = {
width = 90;
};
};
},
{
components = (
{
name = _currency_C;
transform = "{1, 0, 0, 1, -41, 0}";
}
);
layerId = "EF8420CB-322A-4DAC-B980-DA6E6912705F";
paths = (
{
closed = 1;
nodes = (
"322 -116 LINE",
"433 -116 LINE",
"433 821 LINE",
"322 821 LINE"
);
}
);
width = 616;
userData = {
RMXScaler = {
width = 90;
};
};
}
);
unicode = 20B5;
userData = {
RMXScaler = {
source = C;
};
};
},
{
glyphname = currency;
layers = (
{
layerId = "D9DFF065-DDB2-4B0F-A853-E0DAE751FB65";
paths = (
{
closed = 1;
nodes = (
"215 514 OFFCURVE",
"145 441 OFFCURVE",
"145 331 CURVE SMOOTH",
"145 221 OFFCURVE",
"215 147 OFFCURVE",
"321 147 CURVE SMOOTH",
"427 147 OFFCURVE",
"497 221 OFFCURVE",
"497 331 CURVE SMOOTH",
"497 441 OFFCURVE",
"427 514 OFFCURVE",
"321 514 CURVE SMOOTH"
);
},
{
closed = 1;
nodes = (
"218 198 LINE",
"205 211 LINE",
"109 116 LINE",
"122 103 LINE"
);
},
{
closed = 1;
nodes = (
"534 116 LINE",
"438 211 LINE",
"425 198 LINE",
"521 103 LINE"
);
},
{
closed = 1;
nodes = (
"109 543 LINE",
"205 448 LINE",
"218 461 LINE",
"122 556 LINE"
);
},
{
closed = 1;
nodes = (
"424 461 LINE",
"437 448 LINE",
"533 543 LINE",
"520 556 LINE"
);
},
{
closed = 1;
nodes = (
"415 497 OFFCURVE",
"477 430 OFFCURVE",
"477 330 CURVE SMOOTH",
"477 230 OFFCURVE",
"415 164 OFFCURVE",
"321 164 CURVE SMOOTH",
"227 164 OFFCURVE",
"165 230 OFFCURVE",
"165 330 CURVE SMOOTH",
"165 430 OFFCURVE",
"227 497 OFFCURVE",
"321 497 CURVE SMOOTH"
);
}
);
width = 643;
},
{
layerId = "EF8420CB-322A-4DAC-B980-DA6E6912705F";
paths = (
{
closed = 1;
nodes = (
"204 564 OFFCURVE",
"114 475 OFFCURVE",
"114 342 CURVE SMOOTH",
"114 209 OFFCURVE",
"204 120 OFFCURVE",
"340 120 CURVE SMOOTH",
"476 120 OFFCURVE",
"566 209 OFFCURVE",
"566 342 CURVE SMOOTH",
"566 475 OFFCURVE",
"476 564 OFFCURVE",
"340 564 CURVE SMOOTH"
);
},
{
closed = 1;
nodes = (
"236 156 LINE",
"156 237 LINE",
"69 151 LINE",
"148 72 LINE"
);
},
{
closed = 1;
nodes = (
"610 151 LINE",
"524 236 LINE",
"445 156 LINE",
"531 72 LINE"
);
},
{
closed = 1;
nodes = (
"69 534 LINE",
"154 447 LINE",
"236 526 LINE",
"148 613 LINE"
);
},
{
closed = 1;
nodes = (
"445 526 LINE",
"525 448 LINE",
"610 534 LINE",
"531 613 LINE"
);
},
{
closed = 1;
nodes = (
"389 435 OFFCURVE",
"422 398 OFFCURVE",
"422 342 CURVE SMOOTH",
"422 285 OFFCURVE",
"389 247 OFFCURVE",
"340 247 CURVE SMOOTH",
"291 247 OFFCURVE",
"258 285 OFFCURVE",
"258 342 CURVE SMOOTH",
"258 398 OFFCURVE",
"291 435 OFFCURVE",
"340 435 CURVE SMOOTH"
);
}
);
width = 680;
}
);
unicode = 00A4;
},
{
glyphname = dollar;
layers = (
{
anchors = (
{
name = bottom;
position = "{273, 0}";
},
{
name = top;
position = "{284, 700}";
}
);
components = (
{
name = _dollarstem;
transform = "{1, 0, 0, 1, -20, 0}";
},
{
name = _dollarstem;
transform = "{1, 0, 0, 1, -20, 833}";
}
);
layerId = "D9DFF065-DDB2-4B0F-A853-E0DAE751FB65";
paths = (
{
closed = 1;
nodes = (
"407 -12 OFFCURVE",
"500 63 OFFCURVE",
"500 179 CURVE SMOOTH",
"500 420 OFFCURVE",
"86 317 OFFCURVE",
"86 531 CURVE SMOOTH",
"86 629 OFFCURVE",
"172 690 OFFCURVE",
"289 690 CURVE SMOOTH",
"345 690 OFFCURVE",
"404 676 OFFCURVE",
"460 653 CURVE",
"465 672 LINE",
"404 697 OFFCURVE",
"345 711 OFFCURVE",
"288 711 CURVE SMOOTH",
"157 711 OFFCURVE",
"64 638 OFFCURVE",
"64 529 CURVE SMOOTH",
"64 298 OFFCURVE",
"478 396 OFFCURVE",
"478 176 CURVE SMOOTH",
"478 76 OFFCURVE",
"394 9 OFFCURVE",
"264 9 CURVE SMOOTH",
"202 9 OFFCURVE",
"132 24 OFFCURVE",
"75 47 CURVE",
"70 28 LINE",
"132 3 OFFCURVE",
"199 -12 OFFCURVE",
"264 -12 CURVE SMOOTH"
);
}
);
width = 561;
userData = {
RMXScaler = {
width = 90;
};
};
},
{
anchors = (
{
name = bottom;
position = "{316, 0}";
},
{
name = top;
position = "{299, 706}";
}
);
components = (
{
name = _dollarstem;
transform = "{1, 0, 0, 1, 17, 0}";
},
{
name = _dollarstem;
transform = "{1, 0, 0, 1, -3, 810}";
}
);
layerId = "EF8420CB-322A-4DAC-B980-DA6E6912705F";
paths = (
{
closed = 1;
nodes = (
"459 -12 OFFCURVE",
"572 54 OFFCURVE",
"572 210 CURVE SMOOTH",
"572 488 OFFCURVE",
"224 392 OFFCURVE",
"224 506 CURVE SMOOTH",
"224 547 OFFCURVE",
"263 571 OFFCURVE",
"333 571 CURVE SMOOTH",
"395 571 OFFCURVE",
"453 557 OFFCURVE",
"496 539 CURVE",
"529 675 LINE",
"471 701 OFFCURVE",
"404 718 OFFCURVE",
"331 718 CURVE SMOOTH",
"173 718 OFFCURVE",
"64 640 OFFCURVE",
"64 493 CURVE SMOOTH",
"64 227 OFFCURVE",
"413 331 OFFCURVE",
"413 207 CURVE SMOOTH",
"413 161 OFFCURVE",
"370 135 OFFCURVE",
"295 135 CURVE SMOOTH",
"230 135 OFFCURVE",
"167 150 OFFCURVE",
"109 172 CURVE",
"76 35 LINE",
"138 7 OFFCURVE",
"218 -12 OFFCURVE",
"304 -12 CURVE SMOOTH"
);
}
);
width = 630;
userData = {
RMXScaler = {
weight = -20;
width = 90;
};
};
}
);
unicode = 0024;
userData = {
RMXScaler = {
source = S;
};
};
},
{
glyphname = dong;
layers = (
{
components = (
{
name = strokeshortcomb;
transform = "{1, 0, 0, 1, 206, 302}";
},
{
name = strokeshortcomb;
transform = "{1.4, 0, 0, 1, 2, -290}";
}
);
layerId = "D9DFF065-DDB2-4B0F-A853-E0DAE751FB65";
paths = (
{
closed = 1;
nodes = (
"467 125 LINE",
"467 700 LINE",
"447 700 LINE",
"447 185 LINE",
"452 125 LINE"
);
},
{
closed = 1;
nodes = (
"352 116 OFFCURVE",
"401 135 OFFCURVE",
"448 177 CURVE",
"447 193 LINE",
"410 157 OFFCURVE",
"361 135 OFFCURVE",
"305 135 CURVE SMOOTH",
"206 135 OFFCURVE",
"128 207 OFFCURVE",
"128 315 CURVE SMOOTH",
"128 422 OFFCURVE",
"204 494 OFFCURVE",
"301 494 CURVE SMOOTH",
"355 494 OFFCURVE",
"411 471 OFFCURVE",
"447 434 CURVE",
"449 448 LINE",
"411 489 OFFCURVE",
"358 513 OFFCURVE",
"299 513 CURVE SMOOTH",
"192 513 OFFCURVE",
"107 434 OFFCURVE",
"107 315 CURVE SMOOTH",
"107 195 OFFCURVE",
"194 116 OFFCURVE",
"301 116 CURVE SMOOTH"
);
}
);
width = 633;
userData = {
RMXScaler = {
height = 80;
verticalShift = 125;
width = 90;
};
};
},
{
components = (
{
name = strokeshortcomb;
transform = "{1, 0, 0, 0.8, 133, 362}";
},
{
name = strokeshortcomb;
transform = "{1.1, 0, 0, 0.8, 34, -206}";
}
);
layerId = "EF8420CB-322A-4DAC-B980-DA6E6912705F";
paths = (
{
closed = 1;
nodes = (
"492 124 LINE",
"492 707 LINE",
"339 707 LINE",
"339 224 LINE",
"364 124 LINE"
);
},
{
closed = 1;
nodes = (
"286 124 OFFCURVE",
"322 143 OFFCURVE",
"361 186 CURVE",
"346 298 LINE",
"327 269 OFFCURVE",
"298 252 OFFCURVE",
"277 252 CURVE SMOOTH",
"249 252 OFFCURVE",
"226 284 OFFCURVE",
"226 334 CURVE SMOOTH",
"226 382 OFFCURVE",
"247 415 OFFCURVE",
"277 415 CURVE SMOOTH",
"306 415 OFFCURVE",
"334 388 OFFCURVE",
"346 349 CURVE",
"361 463 LINE",
"332 520 OFFCURVE",
"295 544 OFFCURVE",
"241 544 CURVE SMOOTH",
"143 544 OFFCURVE",
"70 460 OFFCURVE",
"70 335 CURVE SMOOTH",
"70 208 OFFCURVE",
"146 124 OFFCURVE",
"240 124 CURVE SMOOTH"
);
}
);
width = 618;
userData = {
RMXScaler = {
height = 80;
verticalShift = 124;
weight = -20;
width = 80;
};
};
}
);
unicode = 20AB;
userData = {
RMXScaler = {
source = d;
};
};
},
{
glyphname = florin;
layers = (
{
components = (
{
alignment = -1;
name = f;
transform = "{1, 0, 0, 1, 133, 0}";
}
);
layerId = "D9DFF065-DDB2-4B0F-A853-E0DAE751FB65";
paths = (
{
closed = 1;
nodes = (
"220 -230 OFFCURVE",
"262 -186 OFFCURVE",
"262 -112 CURVE SMOOTH",
"262 0 LINE",
"242 0 LINE",
"242 -112 LINE SMOOTH",
"242 -174 OFFCURVE",
"208 -210 OFFCURVE",
"152 -210 CURVE SMOOTH",
"131 -210 OFFCURVE",
"107 -205 OFFCURVE",
"87 -196 CURVE",
"82 -212 LINE",
"104 -223 OFFCURVE",
"128 -230 OFFCURVE",
"154 -230 CURVE SMOOTH"
);
}
);
width = 510;
},
{
components = (
{
alignment = -1;
name = f;
transform = "{1, 0, 0, 1, 118, 0}";
}
);
layerId = "EF8420CB-322A-4DAC-B980-DA6E6912705F";
paths = (
{
closed = 1;
nodes = (
"297 -230 OFFCURVE",
"373 -145 OFFCURVE",
"373 -18 CURVE SMOOTH",
"373 0 LINE",
"200 0 LINE",
"200 -8 LINE",
"200 -54 OFFCURVE",
"171 -84 OFFCURVE",
"128 -84 CURVE SMOOTH",
"112 -84 OFFCURVE",
"90 -80 OFFCURVE",
"73 -75 CURVE",
"46 -207 LINE",
"86 -221 OFFCURVE",
"139 -230 OFFCURVE",
"178 -230 CURVE SMOOTH"
);
}
);
width = 595;
}
);
unicode = 0192;
},
{
glyphname = franc;
layers = (
{
components = (
{
name = strokeshortcomb;
transform = "{1, 0, 0, 1, 6, -127}";
}
);
layerId = "D9DFF065-DDB2-4B0F-A853-E0DAE751FB65";
paths = (
{
closed = 1;
nodes = (
"180 0 LINE",
"180 680 LINE",
"514 680 LINE",
"514 700 LINE",
"159 700 LINE",
"159 0 LINE"
);
},
{
closed = 1;
nodes = (
"488 334 LINE",
"488 354 LINE",
"175 354 LINE",
"175 334 LINE"
);
}
);
width = 602;
},
{
components = (
{
name = strokeshortcomb;
transform = "{1, 0, 0, 1, 11, -170}";
}
);
layerId = "EF8420CB-322A-4DAC-B980-DA6E6912705F";
paths = (
{
closed = 1;
nodes = (
"301 0 LINE",
"301 545 LINE",
"570 545 LINE",
"570 707 LINE",
"125 707 LINE",
"125 0 LINE"
);
},
{
closed = 1;
nodes = (
"553 253 LINE",
"553 415 LINE",
"211 415 LINE",
"211 253 LINE"
);
}
);
width = 646;
}
);
unicode = 20A3;
},
{
glyphname = guarani;
layers = (
{
anchors = (
{
name = bottom;
position = "{351, 0}";
},
{
name = top;
position = "{350, 700}";
}
);
components = (
{
name = _dollarstem;
transform = "{1, 0, 0, 1, 70, 841}";
},
{
name = _dollarstem;
transform = "{1, 0, 0, 1, 80, 0}";
}
);
layerId = "D9DFF065-DDB2-4B0F-A853-E0DAE751FB65";
paths = (
{
closed = 1;
nodes = (
"447 -12 OFFCURVE",
"536 17 OFFCURVE",
"581 66 CURVE",
"581 343 LINE",
"354 343 LINE",
"354 323 LINE",
"561 323 LINE",
"561 77 LINE",
"521 34 OFFCURVE",
"439 9 OFFCURVE",
"379 9 CURVE SMOOTH",
"240 9 OFFCURVE",
"127 145 OFFCURVE",
"127 350 CURVE SMOOTH",
"127 555 OFFCURVE",
"241 691 OFFCURVE",
"393 691 CURVE SMOOTH",
"449 691 OFFCURVE",
"500 673 OFFCURVE",
"545 644 CURVE",
"551 663 LINE",
"501 694 OFFCURVE",
"447 712 OFFCURVE",
"390 712 CURVE SMOOTH",
"228 712 OFFCURVE",
"105 567 OFFCURVE",
"105 350 CURVE SMOOTH",
"105 133 OFFCURVE",
"226 -12 OFFCURVE",
"378 -12 CURVE SMOOTH"
);
}
);
width = 688;
userData = {
RMXScaler = {
width = 80;
};
};
},
{
anchors = (
{
name = bottom;
position = "{366, 0}";
},
{
name = top;
position = "{357, 706}";
}
);
components = (
{
name = _dollarstem;
transform = "{1, 0, 0, 1, 44, 841}";
},
{
name = _dollarstem;
transform = "{1, 0, 0, 1, 54, 0}";
}
);
layerId = "EF8420CB-322A-4DAC-B980-DA6E6912705F";
paths = (
{
closed = 1;
nodes = (
"439 -12 OFFCURVE",
"537 20 OFFCURVE",
"596 68 CURVE",
"596 417 LINE",
"349 417 LINE",
"349 273 LINE",
"458 273 LINE",
"458 169 LINE",
"439 148 OFFCURVE",
"398 135 OFFCURVE",
"369 135 CURVE SMOOTH",
"289 135 OFFCURVE",
"222 221 OFFCURVE",
"222 353 CURVE SMOOTH",
"222 482 OFFCURVE",
"285 571 OFFCURVE",
"386 571 CURVE SMOOTH",
"430 571 OFFCURVE",
"495 556 OFFCURVE",
"536 536 CURVE",
"568 673 LINE",
"520 700 OFFCURVE",
"431 718 OFFCURVE",
"366 718 CURVE SMOOTH",
"180 718 OFFCURVE",
"63 570 OFFCURVE",
"63 350 CURVE SMOOTH",
"63 131 OFFCURVE",
"194 -12 OFFCURVE",
"360 -12 CURVE SMOOTH"
);
}
);
width = 670;
userData = {
RMXScaler = {
weight = -20;
width = 80;
};
};
}
);
unicode = 20B2;
userData = {
RMXScaler = {
source = G;
};
};
},
{
glyphname = kip;
layers = (
{
anchors = (
{
name = bottom;
position = "{347, 0}";
},
{
name = top;
position = "{347, 700}";
}
);
components = (
{
name = strokelongcomb;
transform = "{0.8, 0, 0, 1, 10, -3}";
}
);
layerId = "D9DFF065-DDB2-4B0F-A853-E0DAE751FB65";
paths = (
{
closed = 1;
nodes = (
"218 0 LINE",
"218 700 LINE",
"197 700 LINE",
"197 0 LINE"
);
},
{
closed = 1;
nodes = (
"318 352 LINE",
"594 0 LINE",
"620 0 LINE",
"331 366 LINE"
);
},
{
closed = 1;
nodes = (
"218 214 LINE",
"588 700 LINE",
"562 700 LINE",
"218 242 LINE"
);
}
);
width = 722;
userData = {
RMXScaler = {
width = 90;
};
};
},
{
anchors = (
{
name = bottom;
position = "{406, 0}";
},
{
name = top;
position = "{406, 707}";
}
);
components = (
{
name = strokelongcomb;
transform = "{0.9, 0, 0, 1, 1, 50}";
}
);
layerId = "EF8420CB-322A-4DAC-B980-DA6E6912705F";
paths = (
{
closed = 1;
nodes = (
"325 0 LINE",
"325 707 LINE",
"149 707 LINE",
"149 0 LINE"
);
},
{
closed = 1;
nodes = (
"365 269 LINE",
"518 0 LINE",
"722 0 LINE",
"471 398 LINE"
);
},
{
closed = 1;
nodes = (
"325 179 LINE",
"718 707 LINE",
"519 707 LINE",
"325 410 LINE"
);
}
);
width = 803;
userData = {
RMXScaler = {
width = 90;
};
};
}
);
unicode = 20AD;
userData = {
RMXScaler = {
source = K;
};
};
},
{
glyphname = liraTurkish;
layers = (
{
layerId = "D9DFF065-DDB2-4B0F-A853-E0DAE751FB65";
paths = (
{
closed = 1;
nodes = (
"368 0 OFFCURVE",
"483 128 OFFCURVE",
"483 320 CURVE",
"463 320 LINE",
"463 140 OFFCURVE",
"356 20 OFFCURVE",
"195 20 CURVE",
"195 0 LINE"
);
},
{
closed = 1;
nodes = (
"195 0 LINE",
"195 700 LINE",
"174 700 LINE",
"174 0 LINE"
);
},
{
closed = 1;
nodes = (
"94 427 LINE",
"103 412 LINE",
"371 568 LINE",
"362 584 LINE"
);
},
{
closed = 1;
nodes = (
"94 307 LINE",
"103 292 LINE",
"371 452 LINE",
"362 468 LINE"
);
}
);
width = 581;
},
{
layerId = "EF8420CB-322A-4DAC-B980-DA6E6912705F";
paths = (
{
closed = 1;
nodes = (
"478 0 OFFCURVE",
"591 138 OFFCURVE",
"591 345 CURVE",
"452 345 LINE",
"452 222 OFFCURVE",
"394 140 OFFCURVE",
"308 140 CURVE",
"308 0 LINE"
);
},
{
closed = 1;
nodes = (
"308 0 LINE",
"308 707 LINE",
"142 707 LINE",
"142 0 LINE"
);
},
{
closed = 1;
nodes = (
"55 452 LINE",
"102 362 LINE",
"457 571 LINE",
"409 661 LINE"
);
},
{
closed = 1;
nodes = (
"68 287 LINE",
"116 197 LINE",
"457 400 LINE",
"409 490 LINE"
);
}
);
width = 648;
userData = {
RMXScaler = {
weight = -10;
width = 90;
};
};
}
);
unicode = 20BA;
userData = {
RMXScaler = {
source = I;
};
};
},
{
glyphname = manat;
layers = (
{
components = (
{
name = bar;
transform = "{1, 0, 0, 0.7, 186, 210}";
}
);
layerId = "D9DFF065-DDB2-4B0F-A853-E0DAE751FB65";
paths = (
{
closed = 1;
nodes = (
"117 0 LINE",
"117 345 LINE SMOOTH",
"117 493 OFFCURVE",
"206 591 OFFCURVE",
"339 591 CURVE SMOOTH",
"473 591 OFFCURVE",
"563 493 OFFCURVE",
"563 345 CURVE SMOOTH",
"563 0 LINE",
"583 0 LINE",
"583 345 LINE SMOOTH",
"583 505 OFFCURVE",
"486 612 OFFCURVE",
"339 612 CURVE SMOOTH",
"193 612 OFFCURVE",
"96 505 OFFCURVE",
"96 345 CURVE SMOOTH",
"96 0 LINE"
);
}
);
width = 679;
userData = {
RMXScaler = {
width = 90;
};
};
},
{
components = (
{
name = bar;
transform = "{0.6, 0, 0, 0.7, 235, 212}";
}
);
layerId = "EF8420CB-322A-4DAC-B980-DA6E6912705F";
paths = (
{
closed = 1;
nodes = (
"235 0 LINE",
"235 351 LINE SMOOTH",
"235 429 OFFCURVE",
"281 480 OFFCURVE",
"348 480 CURVE SMOOTH",
"417 480 OFFCURVE",
"463 429 OFFCURVE",
"463 351 CURVE SMOOTH",
"463 0 LINE",
"609 0 LINE",
"609 351 LINE SMOOTH",
"609 511 OFFCURVE",
"505 618 OFFCURVE",
"348 618 CURVE SMOOTH",
"193 618 OFFCURVE",
"89 511 OFFCURVE",
"89 351 CURVE SMOOTH",
"89 0 LINE"
);
}
);
width = 698;
userData = {
RMXScaler = {
weight = -30;
width = 90;
};
};
}
);
unicode = 20BC;
userData = {
RMXScaler = {
source = U;
};
};
},
{
glyphname = naira;
layers = (
{
anchors = (
{
name = bottom;
position = "{456, 0}";
},
{
name = top;
position = "{456, 700}";
}
);
components = (
{
name = strokelongcomb;
transform = "{1, 0, 0, 1, 0, -63}";
},
{
name = strokelongcomb;
transform = "{1, 0, 0, 1, 0, 57}";
}
);
layerId = "D9DFF065-DDB2-4B0F-A853-E0DAE751FB65";
paths = (
{
closed = 1;
nodes = (
"240 0 LINE",
"240 670 LINE",
"244 670 LINE",
"667 0 LINE",
"694 0 LINE",
"694 700 LINE",
"673 700 LINE",
"673 30 LINE",
"669 30 LINE",
"247 700 LINE",
"219 700 LINE",
"219 0 LINE"
);
}
);
width = 871;
userData = {
RMXScaler = {
width = 90;
};
};
},
{
anchors = (
{
name = bottom;
position = "{451, 0}";
},
{
name = top;
position = "{451, 705}";
}
);
components = (
{
name = strokelongcomb;
transform = "{1, 0, 0, 0.5, 0, 137}";
},
{
name = strokelongcomb;
transform = "{1, 0, 0, 0.5, 0, 257}";
}
);
layerId = "EF8420CB-322A-4DAC-B980-DA6E6912705F";
paths = (
{
closed = 1;
nodes = (
"312 0 LINE",
"312 471 LINE",
"319 471 LINE",
"577 0 LINE",
"725 0 LINE",
"725 705 LINE",
"589 705 LINE",
"589 227 LINE",
"582 227 LINE",
"325 705 LINE",
"176 705 LINE",
"176 0 LINE"
);
}
);
width = 881;
userData = {
RMXScaler = {
weight = -40;
width = 90;
};
};
}
);
unicode = 20A6;
userData = {
RMXScaler = {
source = N;
};
};
},
{
glyphname = peseta;
layers = (
{
anchors = (
{
name = bottom;
position = "{364, 0}";
},
{
name = top;
position = "{364, 700}";
}
);
components = (
{
name = strokeshortcomb;
transform = "{2.4, 0, 0, 1, -143, 189}";
}
);
layerId = "D9DFF065-DDB2-4B0F-A853-E0DAE751FB65";
paths = (
{
closed = 1;
nodes = (
"196 0 LINE",
"196 680 LINE",
"391 680 LINE SMOOTH",
"500 680 OFFCURVE",
"573 602 OFFCURVE",
"573 488 CURVE SMOOTH",
"573 374 OFFCURVE",
"500 301 OFFCURVE",
"391 301 CURVE SMOOTH",
"187 301 LINE",
"187 281 LINE",
"396 281 LINE SMOOTH",
"515 281 OFFCURVE",
"595 362 OFFCURVE",
"595 488 CURVE SMOOTH",
"595 614 OFFCURVE",
"515 700 OFFCURVE",
"396 700 CURVE SMOOTH",
"175 700 LINE",
"175 0 LINE"
);
}
);
width = 758;
userData = {
RMXScaler = {
width = 90;
};
};
},
{
anchors = (
{
name = bottom;
position = "{351, 0}";
},
{
name = top;
position = "{351, 707}";
}
);
components = (
{
name = strokeshortcomb;
transform = "{1.8, 0, 0, 0.8, -53, 211}";
}
);
layerId = "EF8420CB-322A-4DAC-B980-DA6E6912705F";
paths = (
{
closed = 1;
nodes = (
"294 0 LINE",
"294 556 LINE",
"395 556 LINE SMOOTH",
"445 556 OFFCURVE",
"479 515 OFFCURVE",
"479 455 CURVE SMOOTH",
"479 395 OFFCURVE",
"445 354 OFFCURVE",
"395 354 CURVE SMOOTH",
"205 354 LINE",
"205 203 LINE",
"401 203 LINE SMOOTH",
"539 203 OFFCURVE",
"632 304 OFFCURVE",
"632 455 CURVE SMOOTH",
"632 606 OFFCURVE",
"539 707 OFFCURVE",
"401 707 CURVE SMOOTH",
"128 707 LINE",
"128 0 LINE"
);
}
);
width = 755;
userData = {
RMXScaler = {
weight = -10;
width = 90;
};
};
}
);
unicode = 20A7;
userData = {
RMXScaler = {
source = P;
};
};
},
{
glyphname = peso;
layers = (
{
anchors = (
{
name = bottom;
position = "{373, 0}";
},
{
name = top;
position = "{373, 700}";
}
);
components = (
{
name = strokeshortcomb;
transform = "{2.4, 0, 0, 1, -134, 124}";
},
{
name = strokeshortcomb;
transform = "{2.4, 0, 0, 1, -134, 240}";
}
);
layerId = "D9DFF065-DDB2-4B0F-A853-E0DAE751FB65";
paths = (
{
closed = 1;
nodes = (
"205 0 LINE",
"205 680 LINE",
"400 680 LINE SMOOTH",
"509 680 OFFCURVE",
"582 602 OFFCURVE",
"582 488 CURVE SMOOTH",
"582 374 OFFCURVE",
"509 301 OFFCURVE",
"400 301 CURVE SMOOTH",
"196 301 LINE",
"196 281 LINE",
"405 281 LINE SMOOTH",
"524 281 OFFCURVE",
"604 362 OFFCURVE",
"604 488 CURVE SMOOTH",
"604 614 OFFCURVE",
"524 700 OFFCURVE",
"405 700 CURVE SMOOTH",
"184 700 LINE",
"184 0 LINE"
);
}
);
width = 776;
userData = {
RMXScaler = {
width = 90;
};
};
},
{
anchors = (
{
name = bottom;
position = "{360, 0}";
},
{
name = top;
position = "{360, 706}";
}
);
components = (
{
name = strokeshortcomb;
transform = "{1.8, 0, 0, 0.6, -50, 224}";
},
{
name = strokeshortcomb;
transform = "{1.8, 0, 0, 0.6, -50, 320}";
}
);
layerId = "EF8420CB-322A-4DAC-B980-DA6E6912705F";
paths = (
{
closed = 1;
nodes = (
"295 0 LINE",
"295 564 LINE",
"403 564 LINE SMOOTH",
"457 564 OFFCURVE",
"493 521 OFFCURVE",
"493 457 CURVE SMOOTH",
"493 393 OFFCURVE",
"457 351 OFFCURVE",
"403 351 CURVE SMOOTH",
"212 351 LINE",
"212 209 LINE",
"408 209 LINE SMOOTH",
"546 209 OFFCURVE",
"637 308 OFFCURVE",
"637 457 CURVE SMOOTH",
"637 606 OFFCURVE",
"546 706 OFFCURVE",
"408 706 CURVE SMOOTH",
"139 706 LINE",
"139 0 LINE"
);
}
);
width = 766;
userData = {
RMXScaler = {
weight = -20;
width = 90;
};
};
}
);
unicode = 20B1;
userData = {
RMXScaler = {
source = P;
};
};
},
{
glyphname = ruble;
layers = (
{
components = (
{
name = strokeshortcomb;
transform = "{1, 0, 0, 1, 0, -155}";
}
);
layerId = "D9DFF065-DDB2-4B0F-A853-E0DAE751FB65";
paths = (
{
closed = 1;
nodes = (
"192 0 LINE",
"192 680 LINE",
"387 680 LINE SMOOTH",
"496 680 OFFCURVE",
"569 602 OFFCURVE",
"569 488 CURVE SMOOTH",
"569 374 OFFCURVE",
"496 301 OFFCURVE",
"387 301 CURVE SMOOTH",
"100 301 LINE",
"100 281 LINE",
"392 281 LINE SMOOTH",
"511 281 OFFCURVE",
"591 362 OFFCURVE",
"591 488 CURVE SMOOTH",
"591 614 OFFCURVE",
"511 700 OFFCURVE",
"392 700 CURVE SMOOTH",
"171 700 LINE",
"171 0 LINE"
);
}
);
width = 695;
userData = {
RMXScaler = {
width = 90;
};
};
},
{
components = (
{
name = strokeshortcomb;
transform = "{1, 0, 0, 1, 16, -195}";
}
);
layerId = "EF8420CB-322A-4DAC-B980-DA6E6912705F";
paths = (
{
closed = 1;
nodes = (
"324 0 LINE",
"324 547 LINE",
"419 547 LINE SMOOTH",
"465 547 OFFCURVE",
"496 509 OFFCURVE",
"496 453 CURVE SMOOTH",
"496 396 OFFCURVE",
"465 358 OFFCURVE",
"419 358 CURVE SMOOTH",
"80 358 LINE",
"80 198 LINE",
"424 198 LINE SMOOTH",
"564 198 OFFCURVE",
"658 300 OFFCURVE",
"658 453 CURVE SMOOTH",
"658 605 OFFCURVE",
"564 707 OFFCURVE",
"424 707 CURVE SMOOTH",
"148 707 LINE",
"148 0 LINE"
);
}
);
width = 724;
userData = {
RMXScaler = {
width = 90;
};
};
}
);
unicode = 20BD;
userData = {
RMXScaler = {
source = P;
};
};
},
{
glyphname = rupeeIndian;
layers = (
{
anchors = (
{
name = bottom;
position = "{258, 0}";
},
{
name = top;
position = "{258, 700}";
}
);
components = (
{
name = strokelongcomb;
transform = "{0.6, 0, 0, 1, 46, 330}";
},
{
name = strokelongcomb;
transform = "{0.6, 0, 0, 1, 46, 150}";
}
);
layerId = "D9DFF065-DDB2-4B0F-A853-E0DAE751FB65";
paths = (
{
closed = 1;
nodes = (
"425 0 LINE",
"455 0 LINE",
"135 321 LINE",
"104 321 LINE"
);
},
{
closed = 1;
nodes = (
"104 680 LINE",
"287 680 LINE SMOOTH",
"384 680 OFFCURVE",
"450 610 OFFCURVE",
"450 508 CURVE SMOOTH",
"450 406 OFFCURVE",
"384 341 OFFCURVE",
"287 341 CURVE SMOOTH",
"104 341 LINE",
"104 321 LINE",
"292 321 LINE SMOOTH",
"400 321 OFFCURVE",
"472 394 OFFCURVE",
"472 508 CURVE SMOOTH",
"472 622 OFFCURVE",
"400 700 OFFCURVE",
"292 700 CURVE SMOOTH",
"104 700 LINE"
);
}
);
width = 606;
userData = {
RMXScaler = {
width = 90;
};
};
},
{
anchors = (
{
name = bottom;
position = "{244, 0}";
},
{
name = top;
position = "{244, 706}";
}
);
components = (
{
name = strokelongcomb;
transform = "{0.6, 0, 0, 1, 54, 337}";
},
{
name = strokelongcomb;
transform = "{0.6, 0, 0, 1, 52, 171}";
}
);
layerId = "EF8420CB-322A-4DAC-B980-DA6E6912705F";
paths = (
{
closed = 1;
nodes = (
"289 0 LINE",
"507 0 LINE",
"289 240 LINE",
"89 240 LINE"
);
},
{
closed = 1;
nodes = (
"90 588 LINE",
"270 588 LINE SMOOTH",
"318 588 OFFCURVE",
"350 557 OFFCURVE",
"350 483 CURVE SMOOTH",
"350 418 OFFCURVE",
"318 382 OFFCURVE",
"270 382 CURVE SMOOTH",
"90 382 LINE",
"90 240 LINE",
"275 240 LINE SMOOTH",
"407 240 OFFCURVE",
"494 333 OFFCURVE",
"494 473 CURVE SMOOTH",
"494 612 OFFCURVE",
"407 706 OFFCURVE",
"275 706 CURVE SMOOTH",
"90 706 LINE"
);
}
);
width = 616;
userData = {
RMXScaler = {
weight = -20;
width = 90;
};
};
}
);
unicode = 20B9;
userData = {
RMXScaler = {
source = R;
};
};
},
{
glyphname = won;
layers = (
{
anchors = (
{
name = bottom;
position = "{438, 0}";
},
{
name = top;
position = "{438, 700}";
}
);
components = (
{
name = strokelongcomb;
transform = "{1, 0, 0, 1, 0, 48}";
},
{
name = strokelongcomb;
transform = "{1, 0, 0, 1, 0, -82}";
}
);
layerId = "D9DFF065-DDB2-4B0F-A853-E0DAE751FB65";
paths = (
{
closed = 1;
nodes = (
"277 0 LINE",
"293 0 LINE",
"438 675 LINE",
"440 675 LINE",
"582 0 LINE",
"599 0 LINE",
"755 700 LINE",
"733 700 LINE",
"593 50 LINE",
"589 50 LINE",
"453 700 LINE",
"426 700 LINE",
"286 50 LINE",
"282 50 LINE",
"142 700 LINE",
"120 700 LINE"
);
}
);
width = 872;
userData = {
RMXScaler = {
width = 70;
};
};
},
{
anchors = (
{
name = bottom;
position = "{460, 0}";
},
{
name = top;
position = "{460, 707}";
}
);
components = (
{
name = strokelongcomb;
transform = "{1, 0, 0, 0.7, 22, 200}";
},
{
name = strokelongcomb;
transform = "{1, 0, 0, 0.7, 22, 40}";
}
);
layerId = "EF8420CB-322A-4DAC-B980-DA6E6912705F";
paths = (
{
closed = 1;
nodes = (
"213 0 LINE",
"425 0 LINE",
"460 479 LINE",
"462 479 LINE",
"494 0 LINE",
"706 0 LINE",
"833 707 LINE",
"670 707 LINE",
"608 121 LINE",
"603 121 LINE",
"547 707 LINE",
"370 707 LINE",
"319 121 LINE",
"312 121 LINE",
"249 707 LINE",
"86 707 LINE"
);
}
);
width = 924;
userData = {
RMXScaler = {
width = 70;
};
};
}
);
unicode = 20A9;
userData = {
RMXScaler = {
source = W;
};
};
},
{
glyphname = plus;
layers = (
{
layerId = "D9DFF065-DDB2-4B0F-A853-E0DAE751FB65";
paths = (
{
closed = 1;
nodes = (
"81 351 LINE",
"581 351 LINE",
"581 370 LINE",
"81 370 LINE"
);
},
{
closed = 1;
nodes = (
"324 86 LINE",
"344 86 LINE",
"344 616 LINE",
"324 616 LINE"
);
}
);
width = 662;
},
{
layerId = "EF8420CB-322A-4DAC-B980-DA6E6912705F";
paths = (
{
closed = 1;
nodes = (
"60 291 LINE",
"569 291 LINE",
"569 431 LINE",
"60 431 LINE"
);
},
{
closed = 1;
nodes = (
"248 101 LINE",
"388 101 LINE",
"388 621 LINE",
"248 621 LINE"
);
}
);
width = 629;
}
);
unicode = 002B;
},
{
glyphname = minus;
layers = (
{
layerId = "D9DFF065-DDB2-4B0F-A853-E0DAE751FB65";
paths = (
{
closed = 1;
nodes = (
"144 351 LINE",
"620 351 LINE",
"620 370 LINE",
"144 370 LINE"
);
}
);
width = 764;
},
{
layerId = "EF8420CB-322A-4DAC-B980-DA6E6912705F";
paths = (
{
closed = 1;
nodes = (
"106 291 LINE",
"612 291 LINE",
"612 431 LINE",
"106 431 LINE"
);
}
);
width = 718;
}
);
unicode = 2212;
},
{
glyphname = multiply;
layers = (
{
layerId = "D9DFF065-DDB2-4B0F-A853-E0DAE751FB65";
paths = (
{
closed = 1;
nodes = (
"103 137 LINE",
"443 504 LINE",
"428 518 LINE",
"89 151 LINE"
);
},
{
closed = 1;
nodes = (
"106 518 LINE",
"91 505 LINE",
"428 137 LINE",
"442 149 LINE"
);
}
);
width = 533;
},
{
layerId = "EF8420CB-322A-4DAC-B980-DA6E6912705F";
paths = (
{
closed = 1;
nodes = (
"144 71 LINE",
"554 513 LINE",
"456 612 LINE",
"49 172 LINE"
);
},
{
closed = 1;
nodes = (
"167 612 LINE",
"59 515 LINE",
"465 72 LINE",
"569 170 LINE"
);
}
);
width = 616;
}
);
unicode = 00D7;
},
{
glyphname = divide;
layers = (
{
components = (
{
name = _dot;
transform = "{1, 0, 0, 1, 312, 562}";
},
{
name = _dot;
transform = "{1, 0, 0, 1, 312, 162}";
}
);
layerId = "D9DFF065-DDB2-4B0F-A853-E0DAE751FB65";
paths = (
{
closed = 1;
nodes = (
"81 351 LINE",
"557 351 LINE",
"557 370 LINE",
"81 370 LINE"
);
}
);
width = 657;
},
{
components = (
{
name = _dot;
transform = "{1, 0, 0, 1, 306, 572}";
},
{
name = _dot;
transform = "{1, 0, 0, 1, 306, 150}";
}
);
layerId = "EF8420CB-322A-4DAC-B980-DA6E6912705F";
paths = (
{
closed = 1;
nodes = (
"55 291 LINE",
"571 291 LINE",
"571 431 LINE",
"55 431 LINE"
);
}
);
width = 626;
}
);
unicode = 00F7;
},
{
glyphname = equal;
layers = (
{
layerId = "D9DFF065-DDB2-4B0F-A853-E0DAE751FB65";
paths = (
{
closed = 1;
nodes = (
"144 461 LINE",
"590 461 LINE",
"590 480 LINE",
"144 480 LINE"
);
},
{
closed = 1;
nodes = (
"144 221 LINE",
"590 221 LINE",
"590 240 LINE",
"144 240 LINE"
);
}
);
width = 734;
},
{
layerId = "EF8420CB-322A-4DAC-B980-DA6E6912705F";
paths = (
{
closed = 1;
nodes = (
"106 401 LINE",
"598 401 LINE",
"598 541 LINE",
"106 541 LINE"
);
},
{
closed = 1;
nodes = (
"106 161 LINE",
"598 161 LINE",
"598 301 LINE",
"106 301 LINE"
);
}
);
width = 704;
}
);
unicode = 003D;
},
{
glyphname = notequal;
layers = (
{
components = (
{
name = equal;
}
);
layerId = "D9DFF065-DDB2-4B0F-A853-E0DAE751FB65";
paths = (
{
closed = 1;
nodes = (
"179 109 LINE",
"194 98 LINE",
"549 575 LINE",
"534 586 LINE"
);
}
);
width = 734;
},
{
components = (
{
name = equal;
transform = "{1, 0, 0, 1, -10, 0}";
}
);
layerId = "EF8420CB-322A-4DAC-B980-DA6E6912705F";
paths = (
{
closed = 1;
nodes = (
"109 75 LINE",
"177 36 LINE",
"505 603 LINE",
"437 642 LINE"
);
}
);
width = 662;
}
);
unicode = 2260;
},
{
glyphname = greater;
layers = (
{
layerId = "D9DFF065-DDB2-4B0F-A853-E0DAE751FB65";
paths = (
{
closed = 1;
nodes = (
"511 320 LINE",
"511 341 LINE",
"85 585 LINE",
"85 565 LINE",
"491 333 LINE",
"491 329 LINE",
"85 109 LINE",
"85 89 LINE"
);
}
);
width = 593;
},
{
layerId = "EF8420CB-322A-4DAC-B980-DA6E6912705F";
paths = (
{
closed = 1;
nodes = (
"559 286 LINE",
"559 387 LINE",
"83 595 LINE",
"83 447 LINE",
"358 335 LINE",
"358 333 LINE",
"83 227 LINE",
"83 79 LINE"
);
}
);
width = 613;
}
);
unicode = 003E;
},
{
glyphname = greaterequal;
layers = (
{
layerId = "D9DFF065-DDB2-4B0F-A853-E0DAE751FB65";
paths = (
{
closed = 1;
nodes = (
"98 81 LINE",
"544 81 LINE",
"544 100 LINE",
"98 100 LINE"
);
},
{
closed = 1;
nodes = (
"515 390 LINE",
"515 411 LINE",
"89 605 LINE",
"89 585 LINE",
"495 403 LINE",
"495 399 LINE",
"89 229 LINE",
"89 209 LINE"
);
}
);
width = 629;
},
{
layerId = "EF8420CB-322A-4DAC-B980-DA6E6912705F";
paths = (
{
closed = 1;
nodes = (
"92 26 LINE",
"584 26 LINE",
"584 141 LINE",
"92 141 LINE"
);
},
{
closed = 1;
nodes = (
"566 363 LINE",
"566 451 LINE",
"90 632 LINE",
"90 503 LINE",
"365 406 LINE",
"365 404 LINE",
"90 311 LINE",
"90 182 LINE"
);
}
);
width = 646;
}
);
unicode = 2265;
},
{
glyphname = plusminus;
layers = (
{
layerId = "D9DFF065-DDB2-4B0F-A853-E0DAE751FB65";
paths = (
{
closed = 1;
nodes = (
"87 400 LINE",
"567 400 LINE",
"567 419 LINE",
"87 419 LINE"
);
},
{
closed = 1;
nodes = (
"320 161 LINE",
"340 161 LINE",
"340 641 LINE",
"320 641 LINE"
);
},
{
closed = 1;
nodes = (
"92 77 LINE",
"568 77 LINE",
"568 96 LINE",
"92 96 LINE"
);
}
);
width = 655;
},
{
layerId = "EF8420CB-322A-4DAC-B980-DA6E6912705F";
paths = (
{
closed = 1;
nodes = (
"72 364 LINE",
"541 364 LINE",
"541 504 LINE",
"72 504 LINE"
);
},
{
closed = 1;
nodes = (
"240 199 LINE",
"380 199 LINE",
"380 669 LINE",
"240 669 LINE"
);
},
{
closed = 1;
nodes = (
"84 34 LINE",
"550 34 LINE",
"550 164 LINE",
"84 164 LINE"
);
}
);
width = 621;
}
);
unicode = 00B1;
},
{
glyphname = approxequal;
layers = (
{
layerId = "D9DFF065-DDB2-4B0F-A853-E0DAE751FB65";
paths = (
{
closed = 1;
nodes = (
"158 444 OFFCURVE",
"196 483 OFFCURVE",
"237 483 CURVE SMOOTH",
"306 483 OFFCURVE",
"377 359 OFFCURVE",
"467 359 CURVE SMOOTH",
"527 359 OFFCURVE",
"567 411 OFFCURVE",
"588 499 CURVE",
"566 503 LINE",
"546 421 OFFCURVE",
"508 379 OFFCURVE",
"464 379 CURVE SMOOTH",
"393 379 OFFCURVE",
"324 503 OFFCURVE",
"237 503 CURVE SMOOTH",
"180 503 OFFCURVE",
"139 455 OFFCURVE",
"112 363 CURVE",
"133 359 LINE"
);
},
{
closed = 1;
nodes = (
"158 234 OFFCURVE",
"196 273 OFFCURVE",
"237 273 CURVE SMOOTH",
"306 273 OFFCURVE",
"377 149 OFFCURVE",
"467 149 CURVE SMOOTH",
"527 149 OFFCURVE",
"567 201 OFFCURVE",
"588 289 CURVE",
"566 293 LINE",
"546 211 OFFCURVE",
"508 169 OFFCURVE",
"464 169 CURVE SMOOTH",
"393 169 OFFCURVE",
"324 293 OFFCURVE",
"237 293 CURVE SMOOTH",
"180 293 OFFCURVE",
"139 245 OFFCURVE",
"112 153 CURVE",
"133 149 LINE"
);
}
);
width = 702;
},
{
layerId = "EF8420CB-322A-4DAC-B980-DA6E6912705F";
paths = (
{
closed = 1;
nodes = (
"217 405 OFFCURVE",
"243 420 OFFCURVE",
"267 420 CURVE SMOOTH",
"316 420 OFFCURVE",
"368 358 OFFCURVE",
"439 358 CURVE SMOOTH",
"510 358 OFFCURVE",
"603 419 OFFCURVE",
"624 538 CURVE",
"492 566 LINE",
"479 520 OFFCURVE",
"464 498 OFFCURVE",
"432 498 CURVE SMOOTH",
"375 498 OFFCURVE",
"329 570 OFFCURVE",
"248 570 CURVE SMOOTH",
"176 570 OFFCURVE",
"94 513 OFFCURVE",
"71 386 CURVE",
"203 358 LINE"
);
},
{
closed = 1;
nodes = (
"216 143 OFFCURVE",
"241 160 OFFCURVE",
"267 160 CURVE SMOOTH",
"317 160 OFFCURVE",
"368 97 OFFCURVE",
"439 97 CURVE SMOOTH",
"509 97 OFFCURVE",
"605 156 OFFCURVE",
"627 279 CURVE",
"494 307 LINE",
"481 263 OFFCURVE",
"467 238 OFFCURVE",
"433 238 CURVE SMOOTH",
"375 238 OFFCURVE",
"329 311 OFFCURVE",
"247 311 CURVE SMOOTH",
"174 311 OFFCURVE",
"91 253 OFFCURVE",
"68 126 CURVE",
"201 97 LINE"
);
}
);
width = 694;
}
);
unicode = 2248;
},
{
glyphname = asciitilde;
layers = (
{
layerId = "D9DFF065-DDB2-4B0F-A853-E0DAE751FB65";
paths = (
{
closed = 1;
nodes = (
"163 324 OFFCURVE",
"201 373 OFFCURVE",
"242 373 CURVE SMOOTH",
"311 373 OFFCURVE",
"382 239 OFFCURVE",
"472 239 CURVE SMOOTH",
"532 239 OFFCURVE",
"572 301 OFFCURVE",
"593 389 CURVE",
"571 393 LINE",
"551 311 OFFCURVE",
"513 259 OFFCURVE",
"469 259 CURVE SMOOTH",
"398 259 OFFCURVE",
"329 393 OFFCURVE",
"242 393 CURVE SMOOTH",
"185 393 OFFCURVE",
"144 335 OFFCURVE",
"117 243 CURVE",
"138 239 LINE"
);
}
);
width = 711;
},
{
layerId = "EF8420CB-322A-4DAC-B980-DA6E6912705F";
paths = (
{
closed = 1;
nodes = (
"227 245 OFFCURVE",
"252 276 OFFCURVE",
"284 276 CURVE SMOOTH",
"335 276 OFFCURVE",
"383 198 OFFCURVE",
"459 198 CURVE SMOOTH",
"535 198 OFFCURVE",
"649 282 OFFCURVE",
"673 415 CURVE",
"529 446 LINE",
"514 395 OFFCURVE",
"488 361 OFFCURVE",
"451 361 CURVE SMOOTH",
"392 361 OFFCURVE",
"348 450 OFFCURVE",
"263 450 CURVE SMOOTH",
"177 450 OFFCURVE",
"92 362 OFFCURVE",
"68 229 CURVE",
"212 198 LINE"
);
}
);
width = 738;
}
);
unicode = 007E;
},
{
glyphname = logicalnot;
layers = (
{
layerId = "D9DFF065-DDB2-4B0F-A853-E0DAE751FB65";
paths = (
{
closed = 1;
nodes = (
"88 351 LINE",
"564 351 LINE",
"564 370 LINE",
"88 370 LINE"
);
},
{
closed = 1;
nodes = (
"544 169 LINE",
"564 169 LINE",
"564 370 LINE",
"544 370 LINE"
);
}
);
width = 708;
},
{
layerId = "EF8420CB-322A-4DAC-B980-DA6E6912705F";
paths = (
{
closed = 1;
nodes = (
"73 291 LINE",
"549 291 LINE",
"549 431 LINE",
"73 431 LINE"
);
},
{
closed = 1;
nodes = (
"376 129 LINE",
"549 129 LINE",
"549 330 LINE",
"376 330 LINE"
);
}
);
width = 655;
}
);
unicode = 00AC;
},
{
glyphname = micro;
layers = (
{
layerId = "D9DFF065-DDB2-4B0F-A853-E0DAE751FB65";
paths = (
{
closed = 1;
nodes = (
"516 0 LINE",
"516 472 LINE",
"496 472 LINE",
"496 74 LINE",
"500 0 LINE"
);
},
{
closed = 1;
nodes = (
"164 -218 LINE",
"164 69 LINE",
"185 17 OFFCURVE",
"231 -12 OFFCURVE",
"301 -12 CURVE SMOOTH",
"376 -12 OFFCURVE",
"456 21 OFFCURVE",
"510 71 CURVE",
"510 87 LINE",
"454 39 OFFCURVE",
"373 7 OFFCURVE",
"304 7 CURVE SMOOTH",
"217 7 OFFCURVE",
"164 57 OFFCURVE",
"164 141 CURVE SMOOTH",
"164 472 LINE",
"144 472 LINE",
"144 -218 LINE"
);
}
);
width = 640;
},
{
layerId = "EF8420CB-322A-4DAC-B980-DA6E6912705F";
paths = (
{
closed = 1;
nodes = (
"590 0 LINE",
"590 497 LINE",
"417 497 LINE",
"417 111 LINE",
"445 0 LINE"
);
},
{
closed = 1;
nodes = (
"279 -218 LINE",
"279 23 LINE",
"293 6 OFFCURVE",
"316 -12 OFFCURVE",
"343 -12 CURVE SMOOTH",
"378 -12 OFFCURVE",
"408 18 OFFCURVE",
"429 64 CURVE",
"429 188 LINE",
"407 156 OFFCURVE",
"382 135 OFFCURVE",
"350 135 CURVE SMOOTH",
"314 135 OFFCURVE",
"279 161 OFFCURVE",
"279 212 CURVE SMOOTH",
"279 497 LINE",
"106 497 LINE",
"106 -218 LINE"
);
}
);
width = 676;
}
);
unicode = 00B5;
},
{
glyphname = at;
layers = (
{
layerId = "D9DFF065-DDB2-4B0F-A853-E0DAE751FB65";
paths = (
{
closed = 1;
nodes = (
"553 -169 OFFCURVE",
"616 -157 OFFCURVE",
"658 -139 CURVE",
"655 -122 LINE",
"610 -138 OFFCURVE",
"549 -149 OFFCURVE",
"491 -149 CURVE SMOOTH",
"273 -149 OFFCURVE",
"122 4 OFFCURVE",
"122 236 CURVE SMOOTH",
"122 480 OFFCURVE",
"275 639 OFFCURVE",
"500 639 CURVE SMOOTH",
"725 639 OFFCURVE",
"873 479 OFFCURVE",
"873 254 CURVE SMOOTH",
"873 113 OFFCURVE",
"809 56 OFFCURVE",
"740 56 CURVE SMOOTH",
"695 56 OFFCURVE",
"663 80 OFFCURVE",
"663 117 CURVE",
"643 117 LINE",
"643 68 OFFCURVE",
"683 36 OFFCURVE",
"740 36 CURVE SMOOTH",
"823 36 OFFCURVE",
"894 103 OFFCURVE",
"894 255 CURVE SMOOTH",
"894 491 OFFCURVE",
"737 659 OFFCURVE",
"500 659 CURVE SMOOTH",
"263 659 OFFCURVE",
"101 492 OFFCURVE",
"101 236 CURVE SMOOTH",
"101 -8 OFFCURVE",
"260 -169 OFFCURVE",
"490 -169 CURVE SMOOTH"
);
},
{
closed = 1;
nodes = (
"552 36 OFFCURVE",
"599 56 OFFCURVE",
"646 103 CURVE",
"646 117 LINE",
"610 78 OFFCURVE",
"560 56 OFFCURVE",
"506 56 CURVE SMOOTH",
"406 56 OFFCURVE",
"336 132 OFFCURVE",
"336 246 CURVE SMOOTH",
"336 359 OFFCURVE",
"403 434 OFFCURVE",
"504 434 CURVE SMOOTH",
"558 434 OFFCURVE",
"610 412 OFFCURVE",
"645 373 CURVE",
"645 388 LINE",
"609 429 OFFCURVE",
"557 454 OFFCURVE",
"499 454 CURVE SMOOTH",
"392 454 OFFCURVE",
"316 371 OFFCURVE",
"316 246 CURVE SMOOTH",
"316 120 OFFCURVE",
"393 36 OFFCURVE",
"500 36 CURVE SMOOTH"
);
},
{
closed = 1;
nodes = (
"663 117 LINE",
"663 442 LINE",
"647 442 LINE",
"643 368 LINE",
"643 117 LINE"
);
}
);
width = 991;
},
{
layerId = "EF8420CB-322A-4DAC-B980-DA6E6912705F";
paths = (
{
closed = 1;
nodes = (
"567 -204 OFFCURVE",
"638 -195 OFFCURVE",
"680 -182 CURVE",
"663 -74 LINE",
"617 -84 OFFCURVE",
"555 -90 OFFCURVE",
"508 -90 CURVE SMOOTH",
"298 -90 OFFCURVE",
"185 51 OFFCURVE",
"185 257 CURVE SMOOTH",
"185 467 OFFCURVE",
"303 590 OFFCURVE",
"500 590 CURVE SMOOTH",
"704 590 OFFCURVE",
"823 457 OFFCURVE",
"823 285 CURVE SMOOTH",
"823 152 OFFCURVE",
"751 130 OFFCURVE",
"734 130 CURVE SMOOTH",
"718 130 OFFCURVE",
"698 148 OFFCURVE",
"698 189 CURVE",
"553 189 LINE",
"553 90 OFFCURVE",
"646 24 OFFCURVE",
"742 24 CURVE SMOOTH",
"869 24 OFFCURVE",
"947 141 OFFCURVE",
"947 294 CURVE SMOOTH",
"947 524 OFFCURVE",
"769 704 OFFCURVE",
"502 704 CURVE SMOOTH",
"237 704 OFFCURVE",
"61 528 OFFCURVE",
"61 254 CURVE SMOOTH",
"61 -19 OFFCURVE",
"236 -204 OFFCURVE",
"503 -204 CURVE SMOOTH"
);
},
{
closed = 1;
nodes = (
"525 24 OFFCURVE",
"571 51 OFFCURVE",
"602 94 CURVE",
"553 188 LINE",
"543 158 OFFCURVE",
"522 140 OFFCURVE",
"501 140 CURVE SMOOTH",
"467 140 OFFCURVE",
"447 189 OFFCURVE",
"447 257 CURVE SMOOTH",
"447 317 OFFCURVE",
"463 356 OFFCURVE",
"503 356 CURVE SMOOTH",
"536 356 OFFCURVE",
"557 328 OFFCURVE",
"567 290 CURVE",
"567 416 LINE",
"548 451 OFFCURVE",
"510 472 OFFCURVE",
"462 472 CURVE SMOOTH",
"361 472 OFFCURVE",
"294 379 OFFCURVE",
"294 247 CURVE SMOOTH",
"294 109 OFFCURVE",
"368 24 OFFCURVE",
"468 24 CURVE SMOOTH"
);
},
{
closed = 1;
nodes = (
"698 157 LINE",
"698 460 LINE",
"577 460 LINE",
"553 369 LINE",
"553 157 LINE"
);
}
);
width = 1002;
}
);
unicode = 0040;
},
{
glyphname = ampersand;
layers = (
{
layerId = "D9DFF065-DDB2-4B0F-A853-E0DAE751FB65";
paths = (
{
closed = 1;
nodes = (
"432 400 OFFCURVE",
"88 415 OFFCURVE",
"88 179 CURVE SMOOTH",
"88 64 OFFCURVE",
"170 -12 OFFCURVE",
"288 -12 CURVE SMOOTH",
"408 -12 OFFCURVE",
"486 67 OFFCURVE",
"572 210 CURVE",
"556 225 LINE",
"454 49 OFFCURVE",
"376 8 OFFCURVE",
"291 8 CURVE SMOOTH",
"183 8 OFFCURVE",
"109 76 OFFCURVE",
"109 179 CURVE SMOOTH",
"109 400 OFFCURVE",
"452 380 OFFCURVE",
"452 575 CURVE SMOOTH",
"452 663 OFFCURVE",
"383 712 OFFCURVE",
"302 712 CURVE SMOOTH",
"201 712 OFFCURVE",
"149 637 OFFCURVE",
"149 549 CURVE SMOOTH",
"149 412 OFFCURVE",
"273 275 OFFCURVE",
"599 -13 CURVE",
"613 0 LINE",
"321 264 OFFCURVE",
"169 410 OFFCURVE",
"169 548 CURVE SMOOTH",
"169 622 OFFCURVE",
"213 692 OFFCURVE",
"303 692 CURVE SMOOTH",
"372 692 OFFCURVE",
"432 650 OFFCURVE",
"432 577 CURVE SMOOTH"
);
}
);
width = 676;
},
{
layerId = "EF8420CB-322A-4DAC-B980-DA6E6912705F";
paths = (
{
closed = 1;
nodes = (
"392 433 OFFCURVE",
"36 439 OFFCURVE",
"36 197 CURVE SMOOTH",
"36 72 OFFCURVE",
"130 -12 OFFCURVE",
"267 -12 CURVE SMOOTH",
"415 -12 OFFCURVE",
"576 85 OFFCURVE",
"673 232 CURVE",
"578 307 LINE",
"509 197 OFFCURVE",
"382 128 OFFCURVE",
"285 128 CURVE SMOOTH",
"221 128 OFFCURVE",
"190 158 OFFCURVE",
"190 204 CURVE SMOOTH",
"190 359 OFFCURVE",
"545 321 OFFCURVE",
"545 540 CURVE SMOOTH",
"545 647 OFFCURVE",
"459 718 OFFCURVE",
"336 718 CURVE SMOOTH",
"182 718 OFFCURVE",
"121 607 OFFCURVE",
"121 523 CURVE SMOOTH",
"121 380 OFFCURVE",
"299 200 OFFCURVE",
"551 -34 CURVE",
"660 75 LINE",
"426 277 OFFCURVE",
"275 415 OFFCURVE",
"275 518 CURVE SMOOTH",
"275 556 OFFCURVE",
"296 588 OFFCURVE",
"336 588 CURVE SMOOTH",
"366 588 OFFCURVE",
"392 569 OFFCURVE",
"392 540 CURVE SMOOTH"
);
}
);
width = 698;
}
);
unicode = 0026;
},
{
glyphname = paragraph;
layers = (
{
layerId = "D9DFF065-DDB2-4B0F-A853-E0DAE751FB65";
paths = (
{
closed = 1;
nodes = (
"357 -162 LINE",
"357 699 LINE",
"538 699 LINE",
"538 -162 LINE",
"558 -162 LINE",
"558 718 LINE",
"338 718 LINE SMOOTH",
"187 718 OFFCURVE",
"87 635 OFFCURVE",
"87 511 CURVE SMOOTH",
"87 387 OFFCURVE",
"187 304 OFFCURVE",
"337 304 CURVE",
"337 -162 LINE"
);
}
);
width = 702;
},
{
layerId = "EF8420CB-322A-4DAC-B980-DA6E6912705F";
paths = (
{
closed = 1;
nodes = (
"415 -182 LINE",
"415 588 LINE",
"513 588 LINE",
"513 -182 LINE",
"686 -182 LINE",
"686 728 LINE",
"319 728 LINE SMOOTH",
"156 728 OFFCURVE",
"48 640 OFFCURVE",
"48 509 CURVE SMOOTH",
"48 375 OFFCURVE",
"126 286 OFFCURVE",
"242 286 CURVE",
"242 -182 LINE"
);
}
);
width = 792;
}
);
unicode = 00B6;
},
{
glyphname = section;
layers = (
{
layerId = "D9DFF065-DDB2-4B0F-A853-E0DAE751FB65";
paths = (
{
closed = 1;
nodes = (
"393 -12 OFFCURVE",
"464 37 OFFCURVE",
"464 116 CURVE SMOOTH",
"464 287 OFFCURVE",
"132 219 OFFCURVE",
"132 365 CURVE SMOOTH",
"132 430 OFFCURVE",
"198 468 OFFCURVE",
"284 468 CURVE",
"283 483 LINE",
"185 483 OFFCURVE",
"111 441 OFFCURVE",
"111 364 CURVE SMOOTH",
"111 202 OFFCURVE",
"444 269 OFFCURVE",
"444 116 CURVE SMOOTH",
"444 49 OFFCURVE",
"380 8 OFFCURVE",
"288 8 CURVE SMOOTH",
"232 8 OFFCURVE",
"171 23 OFFCURVE",
"107 56 CURVE",
"104 39 LINE",
"162 6 OFFCURVE",
"224 -12 OFFCURVE",
"288 -12 CURVE SMOOTH"
);
},
{
closed = 1;
nodes = (
"395 225 OFFCURVE",
"466 266 OFFCURVE",
"466 345 CURVE SMOOTH",
"466 516 OFFCURVE",
"134 448 OFFCURVE",
"134 594 CURVE SMOOTH",
"134 659 OFFCURVE",
"200 693 OFFCURVE",
"286 693 CURVE SMOOTH",
"345 693 OFFCURVE",
"403 677 OFFCURVE",
"438 653 CURVE",
"441 670 LINE",
"406 696 OFFCURVE",
"347 713 OFFCURVE",
"285 713 CURVE SMOOTH",
"187 713 OFFCURVE",
"113 670 OFFCURVE",
"113 593 CURVE SMOOTH",
"113 431 OFFCURVE",
"446 498 OFFCURVE",
"446 345 CURVE SMOOTH",
"446 278 OFFCURVE",
"382 237 OFFCURVE",
"338 237 CURVE",
"356 225 LINE"
);
}
);
width = 571;
},
{
layerId = "EF8420CB-322A-4DAC-B980-DA6E6912705F";
paths = (
{
closed = 1;
nodes = (
"428 -35 OFFCURVE",
"512 21 OFFCURVE",
"512 131 CURVE SMOOTH",
"512 316 OFFCURVE",
"223 267 OFFCURVE",
"223 344 CURVE SMOOTH",
"223 369 OFFCURVE",
"249 403 OFFCURVE",
"277 429 CURVE",
"169 479 LINE",
"112 459 OFFCURVE",
"68 403 OFFCURVE",
"68 329 CURVE SMOOTH",
"68 135 OFFCURVE",
"337 183 OFFCURVE",
"337 123 CURVE SMOOTH",
"337 108 OFFCURVE",
"321 98 OFFCURVE",
"280 98 CURVE SMOOTH",
"234 98 OFFCURVE",
"176 111 OFFCURVE",
"120 132 CURVE",
"93 0 LINE",
"150 -22 OFFCURVE",
"221 -35 OFFCURVE",
"288 -35 CURVE SMOOTH"
);
},
{
closed = 1;
nodes = (
"489 240 OFFCURVE",
"519 292 OFFCURVE",
"519 356 CURVE SMOOTH",
"519 546 OFFCURVE",
"270 496 OFFCURVE",
"270 553 CURVE SMOOTH",
"270 567 OFFCURVE",
"285 575 OFFCURVE",
"320 575 CURVE SMOOTH",
"364 575 OFFCURVE",
"409 562 OFFCURVE",
"459 540 CURVE",
"486 670 LINE",
"443 697 OFFCURVE",
"374 715 OFFCURVE",
"307 715 CURVE SMOOTH",
"192 715 OFFCURVE",
"95 663 OFFCURVE",
"95 547 CURVE SMOOTH",
"95 364 OFFCURVE",
"364 412 OFFCURVE",
"364 332 CURVE SMOOTH",
"364 310 OFFCURVE",
"338 281 OFFCURVE",
"298 260 CURVE",
"443 210 LINE"
);
}
);
width = 592;
}
);
unicode = 00A7;
},
{
glyphname = copyright;
layers = (
{
layerId = "D9DFF065-DDB2-4B0F-A853-E0DAE751FB65";
paths = (
{
closed = 1;
nodes = (
"563 175 LINE",
"539 162 OFFCURVE",
"499 153 OFFCURVE",
"463 153 CURVE SMOOTH",
"357 153 OFFCURVE",
"287 231 OFFCURVE",
"287 350 CURVE SMOOTH",
"287 468 OFFCURVE",
"356 548 OFFCURVE",
"466 548 CURVE SMOOTH",
"500 548 OFFCURVE",
"541 540 OFFCURVE",
"563 528 CURVE",
"565 547 LINE",
"544 560 OFFCURVE",
"501 568 OFFCURVE",
"464 568 CURVE SMOOTH",
"343 568 OFFCURVE",
"266 480 OFFCURVE",
"266 350 CURVE SMOOTH",
"266 219 OFFCURVE",
"344 133 OFFCURVE",
"461 133 CURVE SMOOTH",
"499 133 OFFCURVE",
"540 142 OFFCURVE",
"565 156 CURVE"
);
},
{
closed = 1;
nodes = (
"661 -12 OFFCURVE",
"823 150 OFFCURVE",
"823 350 CURVE SMOOTH",
"823 549 OFFCURVE",
"661 712 OFFCURVE",
"462 712 CURVE SMOOTH",
"262 712 OFFCURVE",
"100 549 OFFCURVE",
"100 350 CURVE SMOOTH",
"100 150 OFFCURVE",
"262 -12 OFFCURVE",
"462 -12 CURVE SMOOTH"
);
},
{
closed = 1;
nodes = (
"274 8 OFFCURVE",
"121 162 OFFCURVE",
"121 350 CURVE SMOOTH",
"121 537 OFFCURVE",
"274 692 OFFCURVE",
"462 692 CURVE SMOOTH",
"649 692 OFFCURVE",
"802 537 OFFCURVE",
"802 350 CURVE SMOOTH",
"802 162 OFFCURVE",
"649 8 OFFCURVE",
"462 8 CURVE SMOOTH"
);
}
);
width = 923;
userData = {
RMXScaler = {
height = 60;
verticalShift = 100;
width = 60;
};
};
},
{
layerId = "EF8420CB-322A-4DAC-B980-DA6E6912705F";
paths = (
{
closed = 1;
nodes = (
"529 289 LINE",
"503 278 OFFCURVE",
"470 271 OFFCURVE",
"448 271 CURVE SMOOTH",
"398 271 OFFCURVE",
"366 303 OFFCURVE",
"366 353 CURVE SMOOTH",
"366 402 OFFCURVE",
"399 434 OFFCURVE",
"454 434 CURVE SMOOTH",
"475 434 OFFCURVE",
"507 428 OFFCURVE",
"529 418 CURVE",
"540 518 LINE",
"517 534 OFFCURVE",
"477 545 OFFCURVE",
"439 545 CURVE SMOOTH",
"322 545 OFFCURVE",
"245 468 OFFCURVE",
"245 353 CURVE SMOOTH",
"245 238 OFFCURVE",
"321 161 OFFCURVE",
"435 161 CURVE SMOOTH",
"475 161 OFFCURVE",
"517 172 OFFCURVE",
"540 188 CURVE"
);
},
{
closed = 1;
nodes = (
"627 -12 OFFCURVE",
"791 151 OFFCURVE",
"791 353 CURVE SMOOTH",
"791 554 OFFCURVE",
"627 718 OFFCURVE",
"426 718 CURVE SMOOTH",
"224 718 OFFCURVE",
"60 554 OFFCURVE",
"60 353 CURVE SMOOTH",
"60 151 OFFCURVE",
"224 -12 OFFCURVE",
"426 -12 CURVE SMOOTH"
);
},
{
closed = 1;
nodes = (
"279 87 OFFCURVE",
"159 206 OFFCURVE",
"159 353 CURVE SMOOTH",
"159 499 OFFCURVE",
"279 619 OFFCURVE",
"426 619 CURVE SMOOTH",
"572 619 OFFCURVE",
"692 499 OFFCURVE",
"692 353 CURVE SMOOTH",
"692 206 OFFCURVE",
"572 87 OFFCURVE",
"426 87 CURVE SMOOTH"
);
}
);
width = 851;
userData = {
RMXScaler = {
height = 60;
verticalShift = 100;
weight = -40;
width = 60;
};
};
}
);
unicode = 00A9;
userData = {
RMXScaler = {
source = C;
};
};
},
{
glyphname = registered;
layers = (
{
layerId = "D9DFF065-DDB2-4B0F-A853-E0DAE751FB65";
paths = (
{
closed = 1;
nodes = (
"356 450 LINE",
"378 450 LINE",
"320 544 LINE",
"298 544 LINE"
);
},
{
closed = 1;
nodes = (
"244 450 LINE",
"244 642 LINE",
"303 642 LINE SMOOTH",
"332 642 OFFCURVE",
"352 624 OFFCURVE",
"352 599 CURVE SMOOTH",
"352 573 OFFCURVE",
"332 557 OFFCURVE",
"303 557 CURVE SMOOTH",
"234 557 LINE",
"234 538 LINE",
"305 538 LINE SMOOTH",
"345 538 OFFCURVE",
"372 562 OFFCURVE",
"372 599 CURVE SMOOTH",
"372 636 OFFCURVE",
"345 661 OFFCURVE",
"305 661 CURVE SMOOTH",
"224 661 LINE",
"224 450 LINE"
);
},
{
closed = 1;
nodes = (
"390 375 OFFCURVE",
"470 455 OFFCURVE",
"470 554 CURVE SMOOTH",
"470 653 OFFCURVE",
"390 733 OFFCURVE",
"291 733 CURVE SMOOTH",
"192 733 OFFCURVE",
"112 653 OFFCURVE",
"112 554 CURVE SMOOTH",
"112 455 OFFCURVE",
"192 375 OFFCURVE",
"291 375 CURVE SMOOTH"
);
},
{
closed = 1;
nodes = (
"205 395 OFFCURVE",
"133 468 OFFCURVE",
"133 554 CURVE SMOOTH",
"133 640 OFFCURVE",
"205 713 OFFCURVE",
"291 713 CURVE SMOOTH",
"377 713 OFFCURVE",
"449 640 OFFCURVE",
"449 554 CURVE SMOOTH",
"449 468 OFFCURVE",
"377 395 OFFCURVE",
"291 395 CURVE SMOOTH"
);
}
);
width = 582;
userData = {
RMXScaler = {
height = 30;
verticalShift = 450;
width = 30;
};
};
},
{
layerId = "EF8420CB-322A-4DAC-B980-DA6E6912705F";
paths = (
{
closed = 1;
nodes = (
"307 458 LINE",
"353 458 LINE",
"304 538 LINE",
"261 538 LINE"
);
},
{
closed = 1;
nodes = (
"236 458 LINE",
"236 615 LINE",
"273 615 LINE SMOOTH",
"292 615 OFFCURVE",
"304 605 OFFCURVE",
"304 589 CURVE SMOOTH",
"304 574 OFFCURVE",
"292 563 OFFCURVE",
"273 563 CURVE SMOOTH",
"214 563 LINE",
"214 525 LINE",
"275 525 LINE SMOOTH",
"316 525 OFFCURVE",
"344 550 OFFCURVE",
"344 589 CURVE SMOOTH",
"344 628 OFFCURVE",
"316 654 OFFCURVE",
"275 654 CURVE SMOOTH",
"194 654 LINE",
"194 458 LINE"
);
},
{
closed = 1;
nodes = (
"375 359 OFFCURVE",
"462 446 OFFCURVE",
"462 554 CURVE SMOOTH",
"462 662 OFFCURVE",
"375 749 OFFCURVE",
"267 749 CURVE SMOOTH",
"159 749 OFFCURVE",
"72 662 OFFCURVE",
"72 554 CURVE SMOOTH",
"72 446 OFFCURVE",
"159 359 OFFCURVE",
"267 359 CURVE SMOOTH"
);
},
{
closed = 1;
nodes = (
"190 415 OFFCURVE",
"128 477 OFFCURVE",
"128 554 CURVE SMOOTH",
"128 631 OFFCURVE",
"190 693 OFFCURVE",
"267 693 CURVE SMOOTH",
"344 693 OFFCURVE",
"406 631 OFFCURVE",
"406 554 CURVE SMOOTH",
"406 477 OFFCURVE",
"344 415 OFFCURVE",
"267 415 CURVE SMOOTH"
);
}
);
width = 534;
userData = {
RMXScaler = {
height = 30;
verticalShift = 450;
weight = -130;
width = 30;
};
};
}
);
unicode = 00AE;
userData = {
RMXScaler = {
source = R;
};
};
},
{
glyphname = degree;
layers = (
{
layerId = "D9DFF065-DDB2-4B0F-A853-E0DAE751FB65";
paths = (
{
closed = 1;
nodes = (
"254 550 OFFCURVE",
"290 586 OFFCURVE",
"290 631 CURVE SMOOTH",
"290 676 OFFCURVE",
"254 712 OFFCURVE",
"209 712 CURVE SMOOTH",
"164 712 OFFCURVE",
"128 676 OFFCURVE",
"128 631 CURVE SMOOTH",
"128 586 OFFCURVE",
"164 550 OFFCURVE",
"209 550 CURVE SMOOTH"
);
},
{
closed = 1;
nodes = (
"176 570 OFFCURVE",
"148 598 OFFCURVE",
"148 631 CURVE SMOOTH",
"148 664 OFFCURVE",
"176 692 OFFCURVE",
"209 692 CURVE SMOOTH",
"242 692 OFFCURVE",
"270 664 OFFCURVE",
"270 631 CURVE SMOOTH",
"270 598 OFFCURVE",
"242 570 OFFCURVE",
"209 570 CURVE SMOOTH"
);
}
);
width = 418;
},
{
layerId = "EF8420CB-322A-4DAC-B980-DA6E6912705F";
paths = (
{
closed = 1;
nodes = (
"333 399 OFFCURVE",
"397 463 OFFCURVE",
"397 559 CURVE SMOOTH",
"397 655 OFFCURVE",
"333 719 OFFCURVE",
"238 719 CURVE SMOOTH",
"142 719 OFFCURVE",
"78 655 OFFCURVE",
"78 559 CURVE SMOOTH",
"78 463 OFFCURVE",
"142 399 OFFCURVE",
"238 399 CURVE SMOOTH"
);
},
{
closed = 1;
nodes = (
"205 507 OFFCURVE",
"185 526 OFFCURVE",
"185 559 CURVE SMOOTH",
"185 592 OFFCURVE",
"205 612 OFFCURVE",
"238 612 CURVE SMOOTH",
"271 612 OFFCURVE",
"290 592 OFFCURVE",
"290 559 CURVE SMOOTH",
"290 526 OFFCURVE",
"271 507 OFFCURVE",
"238 507 CURVE SMOOTH"
);
}
);
width = 476;
}
);
unicode = 00B0;
},
{
glyphname = bar;
layers = (
{
layerId = "D9DFF065-DDB2-4B0F-A853-E0DAE751FB65";
paths = (
{
closed = 1;
nodes = (
"144 -159 LINE",
"163 -159 LINE",
"163 700 LINE",
"144 700 LINE"
);
}
);
width = 307;
},
{
layerId = "EF8420CB-322A-4DAC-B980-DA6E6912705F";
paths = (
{
closed = 1;
nodes = (
"106 -159 LINE",
"279 -159 LINE",
"279 707 LINE",
"106 707 LINE"
);
}
);
width = 385;
}
);
unicode = 007C;
},
{
glyphname = brokenbar;
layers = (
{
layerId = "D9DFF065-DDB2-4B0F-A853-E0DAE751FB65";
paths = (
{
closed = 1;
nodes = (
"144 149 LINE",
"144 -159 LINE",
"163 -159 LINE",
"163 149 LINE"
);
},
{
closed = 1;
nodes = (
"163 392 LINE",
"163 700 LINE",
"144 700 LINE",
"144 392 LINE"
);
}
);
width = 307;
},
{
layerId = "EF8420CB-322A-4DAC-B980-DA6E6912705F";
paths = (
{
closed = 1;
nodes = (
"106 125 LINE",
"106 -159 LINE",
"279 -159 LINE",
"279 125 LINE"
);
},
{
closed = 1;
nodes = (
"279 423 LINE",
"279 707 LINE",
"106 707 LINE",
"106 423 LINE"
);
}
);
width = 385;
}
);
unicode = 00A6;
},
{
glyphname = dagger;
layers = (
{
layerId = "D9DFF065-DDB2-4B0F-A853-E0DAE751FB65";
paths = (
{
closed = 1;
nodes = (
"236 556 LINE",
"388 554 LINE",
"388 574 LINE",
"236 572 LINE"
);
},
{
closed = 1;
nodes = (
"227 572 LINE",
"78 574 LINE",
"78 554 LINE",
"227 556 LINE"
);
},
{
closed = 1;
nodes = (
"224 564 LINE",
"222 0 LINE",
"242 0 LINE",
"239 564 LINE",
"242 718 LINE",
"222 718 LINE"
);
}
);
width = 466;
},
{
layerId = "EF8420CB-322A-4DAC-B980-DA6E6912705F";
paths = (
{
closed = 1;
nodes = (
"212 508 LINE",
"364 494 LINE",
"364 634 LINE",
"212 620 LINE"
);
},
{
closed = 1;
nodes = (
"203 620 LINE",
"54 634 LINE",
"54 494 LINE",
"203 508 LINE"
);
},
{
closed = 1;
nodes = (
"139 564 LINE",
"122 0 LINE",
"295 0 LINE",
"269 564 LINE",
"295 718 LINE",
"122 718 LINE"
);
}
);
width = 416;
}
);
unicode = 2020;
},
{
glyphname = daggerdbl;
layers = (
{
layerId = "D9DFF065-DDB2-4B0F-A853-E0DAE751FB65";
paths = (
{
closed = 1;
nodes = (
"245 556 LINE",
"397 554 LINE",
"397 574 LINE",
"245 572 LINE"
);
},
{
closed = 1;
nodes = (
"236 572 LINE",
"87 574 LINE",
"87 554 LINE",
"236 556 LINE"
);
},
{
closed = 1;
nodes = (
"233 550 LINE",
"231 359 LINE",
"233 168 LINE",
"231 0 LINE",
"251 0 LINE",
"248 168 LINE",
"250 359 LINE",
"248 550 LINE",
"251 718 LINE",
"231 718 LINE"
);
},
{
closed = 1;
nodes = (
"245 159 LINE",
"397 157 LINE",
"397 177 LINE",
"245 175 LINE"
);
},
{
closed = 1;
nodes = (
"236 175 LINE",
"87 177 LINE",
"87 157 LINE",
"236 159 LINE"
);
}
);
width = 484;
},
{
layerId = "EF8420CB-322A-4DAC-B980-DA6E6912705F";
paths = (
{
closed = 1;
nodes = (
"234 508 LINE",
"386 494 LINE",
"386 634 LINE",
"234 620 LINE"
);
},
{
closed = 1;
nodes = (
"225 620 LINE",
"76 634 LINE",
"76 494 LINE",
"225 508 LINE"
);
},
{
closed = 1;
nodes = (
"161 550 LINE",
"144 359 LINE",
"161 168 LINE",
"144 0 LINE",
"317 0 LINE",
"291 168 LINE",
"308 359 LINE",
"291 550 LINE",
"317 718 LINE",
"144 718 LINE"
);
},
{
closed = 1;
nodes = (
"234 111 LINE",
"386 97 LINE",
"386 237 LINE",
"234 223 LINE"
);
},
{
closed = 1;
nodes = (
"225 223 LINE",
"76 237 LINE",
"76 97 LINE",
"225 111 LINE"
);
}
);
width = 461;
}
);
unicode = 2021;
},
{
glyphname = asciicircum;
layers = (
{
layerId = "D9DFF065-DDB2-4B0F-A853-E0DAE751FB65";
paths = (
{
closed = 1;
nodes = (
"265 682 LINE",
"268 682 LINE",
"429 520 LINE",
"443 532 LINE",
"276 700 LINE",
"257 700 LINE",
"89 535 LINE",
"103 523 LINE"
);
}
);
width = 533;
},
{
layerId = "EF8420CB-322A-4DAC-B980-DA6E6912705F";
paths = (
{
closed = 1;
nodes = (
"291 587 LINE",
"270 587 LINE",
"420 439 LINE",
"503 526 LINE",
"324 707 LINE",
"238 707 LINE",
"52 525 LINE",
"135 438 LINE"
);
}
);
width = 556;
}
);
unicode = 005E;
},
{
glyphname = caroncomb.alt;
layers = (
{
anchors = (
{
name = _topright;
position = "{106, 472}";
}
);
layerId = "D9DFF065-DDB2-4B0F-A853-E0DAE751FB65";
paths = (
{
closed = 1;
nodes = (
"74 521 LINE",
"90 517 LINE",
"137 688 LINE",
"119 694 LINE"
);
}
);
width = 210;
},
{
anchors = (
{
name = _topright;
position = "{174, 497}";
}
);
layerId = "EF8420CB-322A-4DAC-B980-DA6E6912705F";
paths = (
{
closed = 1;
nodes = (
"108 548 LINE",
"203 541 LINE",
"240 755 LINE",
"114 764 LINE"
);
}
);
width = 345;
}
);
},
{
glyphname = ringcomb;
layers = (
{
anchors = (
{
name = _top;
position = "{183, 497}";
},
{
name = top;
position = "{183, 821}";
}
);
layerId = "EF8420CB-322A-4DAC-B980-DA6E6912705F";
paths = (
{
closed = 1;
nodes = (
"272 553 OFFCURVE",
"332 613 OFFCURVE",
"332 702 CURVE SMOOTH",
"332 791 OFFCURVE",
"272 851 OFFCURVE",
"183 851 CURVE SMOOTH",
"94 851 OFFCURVE",
"34 791 OFFCURVE",
"34 702 CURVE SMOOTH",
"34 613 OFFCURVE",
"94 553 OFFCURVE",
"183 553 CURVE SMOOTH"
);
},
{
closed = 1;
nodes = (
"161 662 OFFCURVE",
"143 680 OFFCURVE",
"143 707 CURVE SMOOTH",
"143 733 OFFCURVE",
"161 751 OFFCURVE",
"188 751 CURVE SMOOTH",
"214 751 OFFCURVE",
"232 733 OFFCURVE",
"232 707 CURVE SMOOTH",
"232 680 OFFCURVE",
"214 662 OFFCURVE",
"188 662 CURVE SMOOTH"
);
}
);
width = 366;
},
{
anchors = (
{
name = _top;
position = "{154, 472}";
},
{
name = top;
position = "{154, 692}";
}
);
layerId = "D9DFF065-DDB2-4B0F-A853-E0DAE751FB65";
paths = (
{
closed = 1;
nodes = (
"194 591 OFFCURVE",
"226 623 OFFCURVE",
"226 663 CURVE SMOOTH",
"226 703 OFFCURVE",
"194 735 OFFCURVE",
"154 735 CURVE SMOOTH",
"114 735 OFFCURVE",
"82 703 OFFCURVE",
"82 663 CURVE SMOOTH",
"82 623 OFFCURVE",
"114 591 OFFCURVE",
"154 591 CURVE SMOOTH"
);
},
{
closed = 1;
nodes = (
"125 609 OFFCURVE",
"100 634 OFFCURVE",
"100 663 CURVE SMOOTH",
"100 692 OFFCURVE",
"125 717 OFFCURVE",
"154 717 CURVE SMOOTH",
"183 717 OFFCURVE",
"208 692 OFFCURVE",
"208 663 CURVE SMOOTH",
"208 634 OFFCURVE",
"183 609 OFFCURVE",
"154 609 CURVE SMOOTH"
);
}
);
width = 309;
}
);
unicode = 030A;
},
{
glyphname = tildecomb;
layers = (
{
anchors = (
{
name = _top;
position = "{217, 497}";
},
{
name = top;
position = "{219, 749}";
}
);
layerId = "EF8420CB-322A-4DAC-B980-DA6E6912705F";
paths = (
{
closed = 1;
nodes = (
"306 710 OFFCURVE",
"294 691 OFFCURVE",
"270 691 CURVE SMOOTH",
"237 691 OFFCURVE",
"202 739 OFFCURVE",
"149 739 CURVE SMOOTH",
"97 739 OFFCURVE",
"51 692 OFFCURVE",
"8 632 CURVE",
"96 561 LINE",
"119 587 OFFCURVE",
"139 609 OFFCURVE",
"164 609 CURVE SMOOTH",
"199 609 OFFCURVE",
"235 561 OFFCURVE",
"284 561 CURVE SMOOTH",
"331 561 OFFCURVE",
"384 605 OFFCURVE",
"425 662 CURVE",
"326 739 LINE"
);
}
);
width = 427;
},
{
anchors = (
{
name = _top;
position = "{213, 472}";
},
{
name = top;
position = "{213, 632}";
}
);
layerId = "D9DFF065-DDB2-4B0F-A853-E0DAE751FB65";
paths = (
{
closed = 1;
nodes = (
"324 639 OFFCURVE",
"301 606 OFFCURVE",
"274 606 CURVE SMOOTH",
"237 606 OFFCURVE",
"205 692 OFFCURVE",
"161 692 CURVE SMOOTH",
"133 692 OFFCURVE",
"97 658 OFFCURVE",
"74 594 CURVE",
"89 587 LINE",
"107 640 OFFCURVE",
"137 672 OFFCURVE",
"161 672 CURVE SMOOTH",
"196 672 OFFCURVE",
"227 586 OFFCURVE",
"275 586 CURVE SMOOTH",
"306 586 OFFCURVE",
"339 621 OFFCURVE",
"350 680 CURVE",
"335 687 LINE"
);
}
);
width = 426;
}
);
unicode = 0303;
},
{
glyphname = hookabovecomb;
layers = (
{
anchors = (
{
name = _top;
position = "{137, 472}";
},
{
name = top;
position = "{137, 730}";
}
);
layerId = "D9DFF065-DDB2-4B0F-A853-E0DAE751FB65";
paths = (
{
closed = 1;
nodes = (
"186 566 OFFCURVE",
"221 612 OFFCURVE",
"221 656 CURVE SMOOTH",
"221 700 OFFCURVE",
"188 730 OFFCURVE",
"138 730 CURVE SMOOTH",
"110 730 OFFCURVE",
"76 720 OFFCURVE",
"53 706 CURVE",
"59 689 LINE",
"82 702 OFFCURVE",
"112 710 OFFCURVE",
"135 710 CURVE SMOOTH",
"175 710 OFFCURVE",
"201 688 OFFCURVE",
"201 656 CURVE SMOOTH",
"201 623 OFFCURVE",
"172 584 OFFCURVE",
"128 558 CURVE",
"134 541 LINE"
);
}
);
width = 296;
},
{
anchors = (
{
name = _top;
position = "{133, 497}";
},
{
name = top;
position = "{133, 786}";
}
);
layerId = "EF8420CB-322A-4DAC-B980-DA6E6912705F";
paths = (
{
closed = 1;
nodes = (
"200 574 OFFCURVE",
"244 632 OFFCURVE",
"244 693 CURVE SMOOTH",
"244 754 OFFCURVE",
"201 796 OFFCURVE",
"136 796 CURVE SMOOTH",
"101 796 OFFCURVE",
"55 784 OFFCURVE",
"22 766 CURVE",
"42 680 LINE",
"61 691 OFFCURVE",
"85 698 OFFCURVE",
"102 698 CURVE SMOOTH",
"122 698 OFFCURVE",
"135 687 OFFCURVE",
"135 668 CURVE SMOOTH",
"135 648 OFFCURVE",
"120 624 OFFCURVE",
"99 612 CURVE",
"123 546 LINE"
);
}
);
width = 273;
}
);
unicode = 0309;
},
{
glyphname = horncomb;
layers = (
{
anchors = (
{
name = _topright;
position = "{98, 472}";
},
{
name = topright;
position = "{98, 472}";
}
);
layerId = "D9DFF065-DDB2-4B0F-A853-E0DAE751FB65";
paths = (
{
closed = 1;
nodes = (
"94 452 OFFCURVE",
"154 516 OFFCURVE",
"154 613 CURVE",
"134 613 LINE",
"134 529 OFFCURVE",
"82 473 OFFCURVE",
"27 472 CURVE",
"27 452 LINE"
);
}
);
width = 280;
},
{
anchors = (
{
name = _topright;
position = "{129, 497}";
},
{
name = topright;
position = "{129, 497}";
}
);
layerId = "EF8420CB-322A-4DAC-B980-DA6E6912705F";
paths = (
{
closed = 1;
nodes = (
"152 391 OFFCURVE",
"246 483 OFFCURVE",
"246 606 CURVE",
"112 606 LINE",
"112 547 OFFCURVE",
"90 497 OFFCURVE",
"42 497 CURVE",
"42 391 LINE"
);
}
);
width = 600;
}
);
unicode = 031B;
},
{
glyphname = cedillacomb;
layers = (
{
anchors = (
{
name = _bottom;
position = "{130, 0}";
},
{
name = bottom;
position = "{150, -230}";
}
);
layerId = "D9DFF065-DDB2-4B0F-A853-E0DAE751FB65";
paths = (
{
closed = 1;
nodes = (
"165 -230 OFFCURVE",
"213 -182 OFFCURVE",
"213 -118 CURVE SMOOTH",
"213 -70 OFFCURVE",
"185 -26 OFFCURVE",
"138 3 CURVE",
"118 3 LINE",
"159 -29 OFFCURVE",
"192 -74 OFFCURVE",
"192 -121 CURVE SMOOTH",
"192 -169 OFFCURVE",
"157 -210 OFFCURVE",
"92 -210 CURVE SMOOTH",
"63 -210 OFFCURVE",
"23 -202 OFFCURVE",
"-1 -189 CURVE",
"-7 -206 LINE",
"19 -220 OFFCURVE",
"59 -230 OFFCURVE",
"93 -230 CURVE SMOOTH"
);
}
);
width = 286;
},
{
anchors = (
{
name = _bottom;
position = "{188, 0}";
},
{
name = bottom;
position = "{188, -213}";
}
);
layerId = "EF8420CB-322A-4DAC-B980-DA6E6912705F";
paths = (
{
closed = 1;
nodes = (
"226 -230 OFFCURVE",
"279 -177 OFFCURVE",
"279 -98 CURVE SMOOTH",
"279 -57 OFFCURVE",
"264 -12 OFFCURVE",
"241 13 CURVE",
"119 13 LINE",
"133 -1 OFFCURVE",
"147 -32 OFFCURVE",
"147 -59 CURVE SMOOTH",
"147 -92 OFFCURVE",
"125 -113 OFFCURVE",
"91 -113 CURVE SMOOTH",
"71 -113 OFFCURVE",
"36 -106 OFFCURVE",
"13 -95 CURVE",
"-14 -205 LINE",
"20 -220 OFFCURVE",
"82 -230 OFFCURVE",
"126 -230 CURVE SMOOTH"
);
}
);
width = 313;
}
);
unicode = 0327;
},
{
glyphname = ogonekcomb;
layers = (
{
anchors = (
{
name = _ogonek;
position = "{178, 0}";
}
);
layerId = "D9DFF065-DDB2-4B0F-A853-E0DAE751FB65";
paths = (
{
closed = 1;
nodes = (
"173 3 LINE",
"73 -22 OFFCURVE",
"6 -80 OFFCURVE",
"6 -144 CURVE SMOOTH",
"6 -194 OFFCURVE",
"46 -230 OFFCURVE",
"107 -230 CURVE SMOOTH",
"131 -230 OFFCURVE",
"162 -224 OFFCURVE",
"183 -215 CURVE",
"177 -198 LINE",
"155 -205 OFFCURVE",
"128 -210 OFFCURVE",
"108 -210 CURVE SMOOTH",
"59 -210 OFFCURVE",
"27 -181 OFFCURVE",
"27 -141 CURVE SMOOTH",
"27 -84 OFFCURVE",
"91 -30 OFFCURVE",
"188 -2 CURVE"
);
}
);
width = 254;
},
{
anchors = (
{
name = _ogonek;
position = "{241, 0}";
}
);
layerId = "EF8420CB-322A-4DAC-B980-DA6E6912705F";
paths = (
{
closed = 1;
nodes = (
"198 7 LINE",
"117 -9 OFFCURVE",
"30 -67 OFFCURVE",
"30 -141 CURVE SMOOTH",
"30 -194 OFFCURVE",
"75 -230 OFFCURVE",
"142 -230 CURVE SMOOTH",
"181 -230 OFFCURVE",
"233 -218 OFFCURVE",
"274 -201 CURVE",
"265 -123 LINE",
"251 -128 OFFCURVE",
"234 -132 OFFCURVE",
"222 -132 CURVE SMOOTH",
"198 -132 OFFCURVE",
"182 -117 OFFCURVE",
"182 -96 CURVE SMOOTH",
"182 -63 OFFCURVE",
"222 -27 OFFCURVE",
"283 -5 CURVE"
);
}
);
width = 313;
}
);
unicode = 0328;
},
{
glyphname = strokeshortcomb;
layers = (
{
anchors = (
{
name = _center;
position = "{218, 300}";
}
);
layerId = "D9DFF065-DDB2-4B0F-A853-E0DAE751FB65";
paths = (
{
closed = 1;
nodes = (
"96 290 LINE",
"339 290 LINE",
"339 309 LINE",
"96 309 LINE"
);
}
);
width = 435;
},
{
anchors = (
{
name = _center;
position = "{241, 310}";
}
);
layerId = "EF8420CB-322A-4DAC-B980-DA6E6912705F";
paths = (
{
closed = 1;
nodes = (
"61 257 LINE",
"420 257 LINE",
"420 363 LINE",
"61 363 LINE"
);
}
);
width = 481;
}
);
unicode = 0335;
},
{
glyphname = strokelongcomb;
layers = (
{
anchors = (
{
name = _center;
position = "{436, 361}";
}
);
layerId = "D9DFF065-DDB2-4B0F-A853-E0DAE751FB65";
paths = (
{
closed = 1;
nodes = (
"96 351 LINE",
"775 351 LINE",
"775 370 LINE",
"96 370 LINE"
);
}
);
width = 871;
},
{
anchors = (
{
name = _center;
position = "{441, 310}";
}
);
layerId = "EF8420CB-322A-4DAC-B980-DA6E6912705F";
paths = (
{
closed = 1;
nodes = (
"61 250 LINE",
"820 250 LINE",
"820 370 LINE",
"61 370 LINE"
);
}
);
width = 881;
}
);
unicode = 0336;
},
{
glyphname = slashshortcomb;
layers = (
{
anchors = (
{
name = _center;
position = "{156, 269}";
}
);
layerId = "D9DFF065-DDB2-4B0F-A853-E0DAE751FB65";
paths = (
{
closed = 1;
nodes = (
"47 215 LINE",
"56 200 LINE",
"265 322 LINE",
"256 338 LINE"
);
}
);
width = 312;
},
{
anchors = (
{
name = _center;
position = "{193, 312}";
}
);
layerId = "EF8420CB-322A-4DAC-B980-DA6E6912705F";
paths = (
{
closed = 1;
nodes = (
"12 277 LINE",
"60 187 LINE",
"373 347 LINE",
"325 437 LINE"
);
}
);
width = 391;
}
);
unicode = 0337;
},
{
glyphname = slashlongcomb;
layers = (
{
anchors = (
{
name = _center;
position = "{233, 236}";
}
);
layerId = "D9DFF065-DDB2-4B0F-A853-E0DAE751FB65";
paths = (
{
closed = 1;
nodes = (
"44 -11 LINE",
"435 472 LINE",
"420 483 LINE",
"30 0 LINE"
);
}
);
width = 465;
},
{
anchors = (
{
name = _center;
position = "{245, 249}";
}
);
layerId = "EF8420CB-322A-4DAC-B980-DA6E6912705F";
paths = (
{
closed = 1;
nodes = (
"59 0 LINE",
"490 438 LINE",
"425 497 LINE",
"-1 62 LINE"
);
}
);
width = 488;
}
);
unicode = 0338;
},
{
glyphname = slashlongcomb.case;
layers = (
{
anchors = (
{
name = _center;
position = "{279, 348}";
}
);
layerId = "D9DFF065-DDB2-4B0F-A853-E0DAE751FB65";
paths = (
{
closed = 1;
nodes = (
"42 -33 LINE",
"531 719 LINE",
"514 729 LINE",
"27 -23 LINE"
);
}
);
width = 558;
},
{
anchors = (
{
name = _center;
position = "{292, 351}";
}
);
layerId = "EF8420CB-322A-4DAC-B980-DA6E6912705F";
paths = (
{
closed = 1;
nodes = (
"92 -51 LINE",
"589 689 LINE",
"489 753 LINE",
"-6 15 LINE"
);
}
);
width = 584;
}
);
},
{
glyphname = circumflexcomb.narrow;
layers = (
{
anchors = (
{
name = _top;
position = "{147, 497}";
},
{
name = top;
position = "{147, 764}";
}
);
layerId = "EF8420CB-322A-4DAC-B980-DA6E6912705F";
paths = (
{
closed = 1;
nodes = (
"158 649 LINE",
"135 649 LINE",
"221 554 LINE",
"303 641 LINE",
"149 815 LINE",
"147 815 LINE",
"-11 641 LINE",
"71 554 LINE"
);
}
);
width = 294;
},
{
anchors = (
{
name = _top;
position = "{143, 472}";
},
{
name = top;
position = "{143, 667}";
}
);
layerId = "D9DFF065-DDB2-4B0F-A853-E0DAE751FB65";
paths = (
{
closed = 1;
nodes = (
"142 670 LINE",
"144 670 LINE",
"221 563 LINE",
"234 575 LINE",
"152 688 LINE",
"135 688 LINE",
"52 575 LINE",
"65 563 LINE"
);
}
);
width = 287;
}
);
},
{
glyphname = macroncomb.narrow;
layers = (
{
anchors = (
{
name = _top;
position = "{226, 472}";
},
{
name = top;
position = "{226, 634}";
}
);
layerId = "D9DFF065-DDB2-4B0F-A853-E0DAE751FB65";
paths = (
{
closed = 1;
nodes = (
"126 642 LINE",
"126 626 LINE",
"326 626 LINE",
"326 642 LINE"
);
}
);
width = 451;
},
{
anchors = (
{
name = _top;
position = "{221, 497}";
},
{
name = top;
position = "{221, 716}";
}
);
layerId = "EF8420CB-322A-4DAC-B980-DA6E6912705F";
paths = (
{
closed = 1;
nodes = (
"96 716 LINE",
"96 586 LINE",
"346 586 LINE",
"346 716 LINE"
);
}
);
width = 441;
}
);
},
{
export = 0;
glyphname = _dot;
layers = (
{
layerId = "EF8420CB-322A-4DAC-B980-DA6E6912705F";
paths = (
{
closed = 1;
nodes = (
"56 -93 OFFCURVE",
"93 -56 OFFCURVE",
"93 0 CURVE SMOOTH",
"93 56 OFFCURVE",
"56 93 OFFCURVE",
"0 93 CURVE SMOOTH",
"-56 93 OFFCURVE",
"-93 56 OFFCURVE",
"-93 0 CURVE SMOOTH",
"-93 -56 OFFCURVE",
"-56 -93 OFFCURVE",
"0 -93 CURVE SMOOTH"
);
}
);
width = 600;
},
{
layerId = "D9DFF065-DDB2-4B0F-A853-E0DAE751FB65";
paths = (
{
closed = 1;
nodes = (
"12 -21 OFFCURVE",
"21 -12 OFFCURVE",
"21 0 CURVE SMOOTH",
"21 12 OFFCURVE",
"12 21 OFFCURVE",
"0 21 CURVE SMOOTH",
"-12 21 OFFCURVE",
"-21 12 OFFCURVE",
"-21 0 CURVE SMOOTH",
"-21 -12 OFFCURVE",
"-12 -21 OFFCURVE",
"0 -21 CURVE SMOOTH"
);
}
);
width = 600;
}
);
},
{
export = 0;
glyphname = _k;
layers = (
{
layerId = "EF8420CB-322A-4DAC-B980-DA6E6912705F";
paths = (
{
closed = 1;
nodes = (
"221 194 LINE",
"341 0 LINE",
"532 0 LINE",
"320 296 LINE"
);
},
{
closed = 1;
nodes = (
"163 91 LINE",
"516 497 LINE",
"313 497 LINE",
"163 304 LINE"
);
}
);
width = 620;
},
{
layerId = "D9DFF065-DDB2-4B0F-A853-E0DAE751FB65";
paths = (
{
closed = 1;
nodes = (
"234 277 LINE",
"473 0 LINE",
"499 0 LINE",
"247 291 LINE"
);
},
{
closed = 1;
nodes = (
"163 197 LINE",
"475 472 LINE",
"448 472 LINE",
"163 221 LINE"
);
}
);
width = 630;
}
);
},
{
export = 0;
glyphname = _n;
layers = (
{
layerId = "D9DFF065-DDB2-4B0F-A853-E0DAE751FB65";
paths = (
{
closed = 1;
nodes = (
"478 0 LINE",
"478 332 LINE SMOOTH",
"478 428 OFFCURVE",
"418 484 OFFCURVE",
"321 484 CURVE SMOOTH",
"246 484 OFFCURVE",
"166 451 OFFCURVE",
"112 401 CURVE",
"112 385 LINE",
"168 433 OFFCURVE",
"249 465 OFFCURVE",
"318 465 CURVE SMOOTH",
"405 465 OFFCURVE",
"458 415 OFFCURVE",
"458 331 CURVE SMOOTH",
"458 0 LINE"
);
}
);
width = 547;
},
{
layerId = "EF8420CB-322A-4DAC-B980-DA6E6912705F";
paths = (
{
closed = 1;
nodes = (
"543 0 LINE",
"543 340 LINE SMOOTH",
"543 441 OFFCURVE",
"477 509 OFFCURVE",
"386 509 CURVE SMOOTH",
"326 509 OFFCURVE",
"264 479 OFFCURVE",
"220 433 CURVE",
"220 309 LINE",
"246 338 OFFCURVE",
"287 362 OFFCURVE",
"319 362 CURVE SMOOTH",
"350 362 OFFCURVE",
"370 340 OFFCURVE",
"370 296 CURVE SMOOTH",
"370 0 LINE"
);
}
);
width = 597;
}
);
},
{
export = 0;
glyphname = _d;
layers = (
{
anchors = (
{
name = _bowl;
position = "{427, 234}";
}
);
layerId = "D9DFF065-DDB2-4B0F-A853-E0DAE751FB65";
paths = (
{
closed = 1;
nodes = (
"321 -12 OFFCURVE",
"375 12 OFFCURVE",
"427 65 CURVE",
"427 81 LINE",
"385 36 OFFCURVE",
"330 8 OFFCURVE",
"264 8 CURVE SMOOTH",
"145 8 OFFCURVE",
"58 99 OFFCURVE",
"58 237 CURVE SMOOTH",
"58 373 OFFCURVE",
"143 464 OFFCURVE",
"260 464 CURVE SMOOTH",
"323 464 OFFCURVE",
"386 436 OFFCURVE",
"427 389 CURVE",
"429 403 LINE",
"386 454 OFFCURVE",
"327 484 OFFCURVE",
"258 484 CURVE SMOOTH",
"131 484 OFFCURVE",
"37 385 OFFCURVE",
"37 237 CURVE SMOOTH",
"37 87 OFFCURVE",
"134 -12 OFFCURVE",
"260 -12 CURVE SMOOTH"
);
}
);
width = 620;
},
{
anchors = (
{
name = _bowl;
position = "{378, 243}";
}
);
layerId = "EF8420CB-322A-4DAC-B980-DA6E6912705F";
paths = (
{
closed = 1;
nodes = (
"307 -12 OFFCURVE",
"353 12 OFFCURVE",
"403 65 CURVE",
"386 192 LINE",
"360 155 OFFCURVE",
"322 132 OFFCURVE",
"291 132 CURVE SMOOTH",
"247 132 OFFCURVE",
"212 178 OFFCURVE",
"212 249 CURVE SMOOTH",
"212 317 OFFCURVE",
"245 364 OFFCURVE",
"291 364 CURVE SMOOTH",
"330 364 OFFCURVE",
"368 331 OFFCURVE",
"386 282 CURVE",
"403 410 LINE",
"366 479 OFFCURVE",
"318 509 OFFCURVE",
"250 509 CURVE SMOOTH",
"127 509 OFFCURVE",
"36 405 OFFCURVE",
"36 250 CURVE SMOOTH",
"36 92 OFFCURVE",
"131 -12 OFFCURVE",
"250 -12 CURVE SMOOTH"
);
}
);
width = 598;
}
);
},
{
export = 0;
glyphname = _stem.n;
layers = (
{
layerId = "D9DFF065-DDB2-4B0F-A853-E0DAE751FB65";
paths = (
{
closed = 1;
nodes = (
"116 0 LINE",
"116 398 LINE",
"112 472 LINE",
"96 472 LINE",
"96 0 LINE"
);
}
);
width = 557;
},
{
layerId = "EF8420CB-322A-4DAC-B980-DA6E6912705F";
paths = (
{
closed = 1;
nodes = (
"234 0 LINE",
"234 386 LINE",
"206 497 LINE",
"61 497 LINE",
"61 0 LINE"
);
}
);
width = 577;
}
);
},
{
export = 0;
glyphname = _stem.p;
layers = (
{
anchors = (
{
name = bowl;
position = "{234, 243}";
}
);
components = (
{
name = _stem.n;
}
);
layerId = "EF8420CB-322A-4DAC-B980-DA6E6912705F";
paths = (
{
closed = 1;
nodes = (
"61 -218 LINE",
"234 -218 LINE",
"234 0 LINE",
"61 0 LINE"
);
}
);
width = 577;
},
{
anchors = (
{
name = bowl;
position = "{116, 234}";
}
);
components = (
{
name = _stem.n;
}
);
layerId = "D9DFF065-DDB2-4B0F-A853-E0DAE751FB65";
paths = (
{
closed = 1;
nodes = (
"96 -218 LINE",
"116 -218 LINE",
"116 0 LINE",
"96 0 LINE"
);
}
);
width = 519;
}
);
},
{
export = 0;
glyphname = _period;
layers = (
{
layerId = "D9DFF065-DDB2-4B0F-A853-E0DAE751FB65";
paths = (
{
closed = 1;
nodes = (
"171 -12 OFFCURVE",
"184 1 OFFCURVE",
"184 21 CURVE SMOOTH",
"184 41 OFFCURVE",
"171 54 OFFCURVE",
"151 54 CURVE SMOOTH",
"131 54 OFFCURVE",
"118 41 OFFCURVE",
"118 21 CURVE SMOOTH",
"118 1 OFFCURVE",
"131 -12 OFFCURVE",
"151 -12 CURVE SMOOTH"
);
}
);
width = 302;
},
{
layerId = "EF8420CB-322A-4DAC-B980-DA6E6912705F";
paths = (
{
closed = 1;
nodes = (
"224 -10 OFFCURVE",
"263 31 OFFCURVE",
"263 85 CURVE SMOOTH",
"263 139 OFFCURVE",
"224 181 OFFCURVE",
"168 181 CURVE SMOOTH",
"112 181 OFFCURVE",
"73 139 OFFCURVE",
"73 85 CURVE SMOOTH",
"73 31 OFFCURVE",
"112 -10 OFFCURVE",
"168 -10 CURVE SMOOTH"
);
}
);
width = 336;
}
);
},
{
export = 0;
glyphname = _comma;
layers = (
{
layerId = "D9DFF065-DDB2-4B0F-A853-E0DAE751FB65";
paths = (
{
closed = 1;
nodes = (
"162 -92 OFFCURVE",
"187 -31 OFFCURVE",
"187 9 CURVE SMOOTH",
"187 37 OFFCURVE",
"174 55 OFFCURVE",
"152 55 CURVE SMOOTH",
"134 55 OFFCURVE",
"121 42 OFFCURVE",
"121 22 CURVE SMOOTH",
"121 2 OFFCURVE",
"135 -11 OFFCURVE",
"155 -11 CURVE",
"153 -39 OFFCURVE",
"136 -89 OFFCURVE",
"112 -136 CURVE",
"124 -142 LINE"
);
}
);
width = 297;
},
{
layerId = "EF8420CB-322A-4DAC-B980-DA6E6912705F";
paths = (
{
closed = 1;
nodes = (
"205 -139 OFFCURVE",
"269 -25 OFFCURVE",
"269 66 CURVE SMOOTH",
"269 135 OFFCURVE",
"231 181 OFFCURVE",
"167 181 CURVE SMOOTH",
"111 181 OFFCURVE",
"71 144 OFFCURVE",
"71 87 CURVE SMOOTH",
"71 38 OFFCURVE",
"101 -1 OFFCURVE",
"147 -8 CURVE",
"138 -58 OFFCURVE",
"106 -114 OFFCURVE",
"61 -159 CURVE",
"111 -194 LINE"
);
}
);
width = 326;
}
);
},
{
export = 0;
glyphname = _quote;
layers = (
{
layerId = "D9DFF065-DDB2-4B0F-A853-E0DAE751FB65";
paths = (
{
closed = 1;
nodes = (
"174 502 LINE",
"177 669 LINE",
"177 698 OFFCURVE",
"173 712 OFFCURVE",
"165 712 CURVE SMOOTH",
"158 712 OFFCURVE",
"155 698 OFFCURVE",
"155 669 CURVE",
"160 502 LINE"
);
}
);
width = 334;
},
{
layerId = "EF8420CB-322A-4DAC-B980-DA6E6912705F";
paths = (
{
closed = 1;
nodes = (
"194 354 LINE",
"218 609 LINE",
"218 691 OFFCURVE",
"187 719 OFFCURVE",
"141 719 CURVE SMOOTH",
"95 719 OFFCURVE",
"64 692 OFFCURVE",
"64 611 CURVE",
"95 354 LINE"
);
}
);
width = 284;
}
);
},
{
export = 0;
glyphname = _acute;
layers = (
{
layerId = "D9DFF065-DDB2-4B0F-A853-E0DAE751FB65";
paths = (
{
closed = 1;
nodes = (
"51 532 LINE",
"64 522 LINE",
"171 663 LINE",
"157 675 LINE"
);
}
);
width = 218;
},
{
layerId = "EF8420CB-322A-4DAC-B980-DA6E6912705F";
paths = (
{
closed = 1;
nodes = (
"-13 616 LINE",
"75 544 LINE",
"236 718 LINE",
"128 806 LINE"
);
}
);
width = 227;
}
);
},
{
export = 0;
glyphname = _circumflex;
layers = (
{
layerId = "D9DFF065-DDB2-4B0F-A853-E0DAE751FB65";
paths = (
{
closed = 1;
nodes = (
"301 651 LINE",
"304 651 LINE",
"410 533 LINE",
"423 545 LINE",
"312 668 LINE",
"293 668 LINE",
"181 545 LINE",
"194 533 LINE"
);
}
);
width = 600;
},
{
layerId = "EF8420CB-322A-4DAC-B980-DA6E6912705F";
paths = (
{
closed = 1;
nodes = (
"302 666 LINE",
"281 666 LINE",
"390 554 LINE",
"473 641 LINE",
"295 815 LINE",
"289 815 LINE",
"109 641 LINE",
"192 554 LINE"
);
}
);
width = 600;
}
);
},
{
export = 0;
glyphname = _percentzero;
layers = (
{
layerId = "D9DFF065-DDB2-4B0F-A853-E0DAE751FB65";
paths = (
{
closed = 1;
nodes = (
"271 -12 OFFCURVE",
"325 74 OFFCURVE",
"325 205 CURVE SMOOTH",
"325 336 OFFCURVE",
"271 423 OFFCURVE",
"189 423 CURVE SMOOTH",
"106 423 OFFCURVE",
"51 336 OFFCURVE",
"51 205 CURVE SMOOTH",
"51 74 OFFCURVE",
"106 -12 OFFCURVE",
"189 -12 CURVE SMOOTH"
);
},
{
closed = 1;
nodes = (
"119 7 OFFCURVE",
"72 86 OFFCURVE",
"72 205 CURVE SMOOTH",
"72 324 OFFCURVE",
"119 404 OFFCURVE",
"189 404 CURVE SMOOTH",
"258 404 OFFCURVE",
"304 324 OFFCURVE",
"304 205 CURVE SMOOTH",
"304 86 OFFCURVE",
"258 7 OFFCURVE",
"189 7 CURVE SMOOTH"
);
}
);
width = 377;
userData = {
RMXScaler = {
height = 60;
width = 60;
};
};
},
{
layerId = "EF8420CB-322A-4DAC-B980-DA6E6912705F";
paths = (
{
closed = 1;
nodes = (
"335 -7 OFFCURVE",
"414 81 OFFCURVE",
"414 214 CURVE SMOOTH",
"414 346 OFFCURVE",
"335 434 OFFCURVE",
"218 434 CURVE SMOOTH",
"100 434 OFFCURVE",
"20 346 OFFCURVE",
"20 214 CURVE SMOOTH",
"20 81 OFFCURVE",
"100 -7 OFFCURVE",
"218 -7 CURVE SMOOTH"
);
},
{
closed = 1;
nodes = (
"197 127 OFFCURVE",
"183 162 OFFCURVE",
"183 214 CURVE SMOOTH",
"183 266 OFFCURVE",
"197 300 OFFCURVE",
"218 300 CURVE SMOOTH",
"238 300 OFFCURVE",
"251 266 OFFCURVE",
"251 214 CURVE SMOOTH",
"251 162 OFFCURVE",
"238 127 OFFCURVE",
"218 127 CURVE SMOOTH"
);
}
);
width = 435;
userData = {
RMXScaler = {
height = 60;
weight = -10;
width = 60;
};
};
}
);
leftMetricsKey = zero.dnom;
rightMetricsKey = zero.dnom;
userData = {
RMXScaler = {
source = zero;
};
};
},
{
export = 0;
glyphname = _hook.case;
layers = (
{
anchors = (
{
name = _hook;
position = "{622, 0}";
}
);
layerId = "D9DFF065-DDB2-4B0F-A853-E0DAE751FB65";
paths = (
{
closed = 1;
nodes = (
"403 -175 LINE",
"436 -196 OFFCURVE",
"479 -210 OFFCURVE",
"513 -210 CURVE SMOOTH",
"570 -210 OFFCURVE",
"609 -170 OFFCURVE",
"609 -110 CURVE SMOOTH",
"609 0 LINE",
"636 0 LINE",
"636 -110 LINE SMOOTH",
"636 -182 OFFCURVE",
"584 -230 OFFCURVE",
"518 -230 CURVE SMOOTH",
"481 -230 OFFCURVE",
"438 -215 OFFCURVE",
"400 -192 CURVE"
);
}
);
width = 746;
},
{
anchors = (
{
name = _hook;
position = "{607, 0}";
}
);
layerId = "EF8420CB-322A-4DAC-B980-DA6E6912705F";
paths = (
{
closed = 1;
nodes = (
"352 -75 LINE",
"385 -96 OFFCURVE",
"424 -110 OFFCURVE",
"450 -110 CURVE SMOOTH",
"483 -110 OFFCURVE",
"505 -86 OFFCURVE",
"505 -50 CURVE SMOOTH",
"505 0 LINE",
"696 0 LINE",
"696 -50 LINE SMOOTH",
"696 -158 OFFCURVE",
"615 -230 OFFCURVE",
"493 -230 CURVE SMOOTH",
"436 -230 OFFCURVE",
"373 -215 OFFCURVE",
"335 -192 CURVE"
);
}
);
width = 766;
}
);
},
{
export = 0;
glyphname = _hook;
layers = (
{
layerId = "D9DFF065-DDB2-4B0F-A853-E0DAE751FB65";
paths = (
{
closed = 1;
nodes = (
"431 -230 OFFCURVE",
"478 -182 OFFCURVE",
"478 -110 CURVE SMOOTH",
"478 0 LINE",
"458 0 LINE",
"458 -110 LINE SMOOTH",
"458 -170 OFFCURVE",
"417 -210 OFFCURVE",
"357 -210 CURVE SMOOTH",
"322 -210 OFFCURVE",
"281 -196 OFFCURVE",
"248 -175 CURVE",
"242 -192 LINE",
"280 -215 OFFCURVE",
"327 -230 OFFCURVE",
"364 -230 CURVE SMOOTH"
);
}
);
width = 568;
},
{
layerId = "EF8420CB-322A-4DAC-B980-DA6E6912705F";
paths = (
{
closed = 1;
nodes = (
"462 -230 OFFCURVE",
"543 -158 OFFCURVE",
"543 -50 CURVE SMOOTH",
"543 0 LINE",
"370 0 LINE",
"370 -50 LINE SMOOTH",
"370 -86 OFFCURVE",
"341 -110 OFFCURVE",
"301 -110 CURVE SMOOTH",
"271 -110 OFFCURVE",
"232 -96 OFFCURVE",
"199 -75 CURVE",
"182 -192 LINE",
"220 -215 OFFCURVE",
"283 -230 OFFCURVE",
"340 -230 CURVE SMOOTH"
);
}
);
width = 596;
}
);
},
{
export = 0;
glyphname = _commabelow;
layers = (
{
layerId = "D9DFF065-DDB2-4B0F-A853-E0DAE751FB65";
paths = (
{
closed = 1;
nodes = (
"314 -185 OFFCURVE",
"333 -134 OFFCURVE",
"333 -98 CURVE SMOOTH",
"333 -74 OFFCURVE",
"325 -58 OFFCURVE",
"305 -58 CURVE SMOOTH",
"289 -58 OFFCURVE",
"279 -68 OFFCURVE",
"279 -84 CURVE SMOOTH",
"279 -100 OFFCURVE",
"289 -110 OFFCURVE",
"312 -110 CURVE",
"312 -142 OFFCURVE",
"297 -179 OFFCURVE",
"274 -203 CURVE",
"286 -209 LINE"
);
}
);
width = 600;
},
{
layerId = "EF8420CB-322A-4DAC-B980-DA6E6912705F";
paths = (
{
closed = 1;
nodes = (
"328 -259 OFFCURVE",
"372 -189 OFFCURVE",
"372 -128 CURVE SMOOTH",
"372 -73 OFFCURVE",
"338 -36 OFFCURVE",
"286 -36 CURVE SMOOTH",
"237 -36 OFFCURVE",
"205 -68 OFFCURVE",
"205 -115 CURVE SMOOTH",
"205 -159 OFFCURVE",
"230 -189 OFFCURVE",
"268 -189 CURVE",
"268 -209 OFFCURVE",
"245 -243 OFFCURVE",
"210 -274 CURVE",
"263 -314 LINE"
);
}
);
width = 600;
}
);
},
{
export = 0;
glyphname = _hacekascender;
layers = (
{
layerId = "D9DFF065-DDB2-4B0F-A853-E0DAE751FB65";
paths = (
{
closed = 1;
nodes = (
"78 521 LINE",
"94 517 LINE",
"141 688 LINE",
"123 694 LINE"
);
}
);
width = 243;
},
{
layerId = "EF8420CB-322A-4DAC-B980-DA6E6912705F";
paths = (
{
closed = 1;
nodes = (
"108 548 LINE",
"203 541 LINE",
"240 755 LINE",
"114 764 LINE"
);
}
);
width = 345;
}
);
},
{
export = 0;
glyphname = _dollarstem;
layers = (
{
layerId = "D9DFF065-DDB2-4B0F-A853-E0DAE751FB65";
paths = (
{
closed = 1;
nodes = (
"288 -136 LINE",
"308 -136 LINE",
"308 6 LINE",
"288 6 LINE"
);
}
);
width = 624;
},
{
layerId = "EF8420CB-322A-4DAC-B980-DA6E6912705F";
paths = (
{
closed = 1;
nodes = (
"243 -136 LINE",
"387 -136 LINE",
"387 16 LINE",
"243 16 LINE"
);
}
);
width = 604;
}
);
},
{
export = 0;
glyphname = _breve;
layers = (
{
layerId = "D9DFF065-DDB2-4B0F-A853-E0DAE751FB65";
paths = (
{
closed = 1;
nodes = (
"268 614 OFFCURVE",
"231 587 OFFCURVE",
"187 587 CURVE SMOOTH",
"142 587 OFFCURVE",
"104 615 OFFCURVE",
"83 662 CURVE",
"69 652 LINE",
"92 600 OFFCURVE",
"136 568 OFFCURVE",
"187 568 CURVE SMOOTH",
"238 568 OFFCURVE",
"281 600 OFFCURVE",
"301 652 CURVE",
"287 661 LINE"
);
}
);
width = 372;
},
{
layerId = "EF8420CB-322A-4DAC-B980-DA6E6912705F";
paths = (
{
closed = 1;
nodes = (
"278 723 OFFCURVE",
"247 700 OFFCURVE",
"211 700 CURVE SMOOTH",
"176 700 OFFCURVE",
"141 720 OFFCURVE",
"123 760 CURVE",
"18 678 LINE",
"56 601 OFFCURVE",
"135 556 OFFCURVE",
"211 556 CURVE SMOOTH",
"287 556 OFFCURVE",
"363 604 OFFCURVE",
"398 675 CURVE",
"293 757 LINE"
);
}
);
width = 417;
}
);
},
{
export = 0;
glyphname = _macron;
layers = (
{
layerId = "D9DFF065-DDB2-4B0F-A853-E0DAE751FB65";
paths = (
{
closed = 1;
nodes = (
"96 642 LINE",
"96 626 LINE",
"355 626 LINE",
"355 642 LINE"
);
}
);
width = 451;
},
{
layerId = "EF8420CB-322A-4DAC-B980-DA6E6912705F";
paths = (
{
closed = 1;
nodes = (
"61 716 LINE",
"61 586 LINE",
"380 586 LINE",
"380 716 LINE"
);
}
);
width = 441;
}
);
},
{
export = 0;
glyphname = _slash.zero;
layers = (
{
anchors = (
{
name = _slash;
position = "{311, 370}";
}
);
layerId = "D9DFF065-DDB2-4B0F-A853-E0DAE751FB65";
paths = (
{
closed = 1;
nodes = (
"173 76 LINE",
"453 623 LINE",
"436 635 LINE",
"157 88 LINE"
);
}
);
width = 612;
},
{
anchors = (
{
name = _slash;
position = "{326, 369}";
}
);
layerId = "EF8420CB-322A-4DAC-B980-DA6E6912705F";
paths = (
{
closed = 1;
nodes = (
"192 128 LINE",
"518 519 LINE",
"457 582 LINE",
"132 190 LINE"
);
}
);
width = 600;
}
);
},
{
export = 0;
glyphname = _tail.Q;
layers = (
{
anchors = (
{
name = _Qtail;
position = "{564, 78}";
}
);
layerId = "D9DFF065-DDB2-4B0F-A853-E0DAE751FB65";
paths = (
{
closed = 1;
nodes = (
"440 183 LINE",
"668 -38 LINE",
"682 -23 LINE",
"454 199 LINE"
);
}
);
width = 778;
},
{
anchors = (
{
name = _Qtail;
position = "{528, 129}";
}
);
layerId = "EF8420CB-322A-4DAC-B980-DA6E6912705F";
paths = (
{
closed = 1;
nodes = (
"343 208 LINE",
"615 -39 LINE",
"699 46 LINE",
"427 294 LINE"
);
}
);
width = 763;
}
);
},
{
export = 0;
glyphname = _stem.g;
layers = (
{
anchors = (
{
name = bowl;
position = "{448, 234}";
}
);
layerId = "D9DFF065-DDB2-4B0F-A853-E0DAE751FB65";
paths = (
{
closed = 1;
nodes = (
"396 -230 OFFCURVE",
"468 -162 OFFCURVE",
"468 -60 CURVE SMOOTH",
"468 472 LINE",
"453 472 LINE",
"448 398 LINE",
"448 -60 LINE SMOOTH",
"448 -150 OFFCURVE",
"383 -210 OFFCURVE",
"283 -210 CURVE SMOOTH",
"231 -210 OFFCURVE",
"175 -194 OFFCURVE",
"131 -170 CURVE",
"125 -187 LINE",
"168 -213 OFFCURVE",
"233 -230 OFFCURVE",
"287 -230 CURVE SMOOTH"
);
}
);
width = 564;
},
{
anchors = (
{
name = bowl;
position = "{372, 243}";
}
);
layerId = "EF8420CB-322A-4DAC-B980-DA6E6912705F";
paths = (
{
closed = 1;
nodes = (
"439 -229 OFFCURVE",
"545 -137 OFFCURVE",
"545 0 CURVE SMOOTH",
"545 497 LINE",
"400 497 LINE",
"372 377 LINE",
"372 0 LINE SMOOTH",
"372 -50 OFFCURVE",
"326 -84 OFFCURVE",
"258 -84 CURVE SMOOTH",
"213 -84 OFFCURVE",
"156 -69 OFFCURVE",
"114 -46 CURVE",
"90 -188 LINE",
"144 -213 OFFCURVE",
"220 -229 OFFCURVE",
"281 -229 CURVE SMOOTH"
);
}
);
width = 610;
}
);
},
{
export = 0;
glyphname = _stem.d;
layers = (
{
anchors = (
{
name = bowl;
position = "{448, 234}";
}
);
layerId = "D9DFF065-DDB2-4B0F-A853-E0DAE751FB65";
paths = (
{
closed = 1;
nodes = (
"468 0 LINE",
"468 718 LINE",
"448 718 LINE",
"448 74 LINE",
"453 0 LINE"
);
}
);
width = 564;
},
{
anchors = (
{
name = bowl;
position = "{372, 243}";
}
);
layerId = "EF8420CB-322A-4DAC-B980-DA6E6912705F";
paths = (
{
closed = 1;
nodes = (
"545 0 LINE",
"545 728 LINE",
"372 728 LINE",
"372 120 LINE",
"400 0 LINE"
);
}
);
width = 610;
}
);
},
{
export = 0;
glyphname = _stem.b;
layers = (
{
anchors = (
{
name = bowl;
position = "{116, 234}";
}
);
layerId = "D9DFF065-DDB2-4B0F-A853-E0DAE751FB65";
paths = (
{
closed = 1;
nodes = (
"111 0 LINE",
"116 74 LINE",
"116 718 LINE",
"96 718 LINE",
"96 0 LINE"
);
}
);
width = 564;
},
{
anchors = (
{
name = bowl;
position = "{238, 243}";
}
);
layerId = "EF8420CB-322A-4DAC-B980-DA6E6912705F";
paths = (
{
closed = 1;
nodes = (
"210 0 LINE",
"238 120 LINE",
"238 728 LINE",
"65 728 LINE",
"65 0 LINE"
);
}
);
width = 610;
}
);
},
{
export = 0;
glyphname = _a.ae;
layers = (
{
layerId = "D9DFF065-DDB2-4B0F-A853-E0DAE751FB65";
paths = (
{
closed = 1;
nodes = (
"414 252 LINE",
"414 304 LINE SMOOTH",
"414 425 OFFCURVE",
"353 484 OFFCURVE",
"245 484 CURVE SMOOTH",
"190 484 OFFCURVE",
"132 468 OFFCURVE",
"82 442 CURVE",
"85 425 LINE",
"130 450 OFFCURVE",
"191 464 OFFCURVE",
"241 464 CURVE SMOOTH",
"341 464 OFFCURVE",
"397 409 OFFCURVE",
"397 304 CURVE SMOOTH",
"397 252 LINE"
);
},
{
closed = 1;
nodes = (
"269 -12 OFFCURVE",
"353 21 OFFCURVE",
"431 96 CURVE",
"431 112 LINE",
"350 39 OFFCURVE",
"267 8 OFFCURVE",
"200 8 CURVE SMOOTH",
"115 8 OFFCURVE",
"66 57 OFFCURVE",
"66 117 CURVE SMOOTH",
"66 205 OFFCURVE",
"163 240 OFFCURVE",
"405 240 CURVE",
"405 259 LINE",
"148 259 OFFCURVE",
"45 218 OFFCURVE",
"45 116 CURVE SMOOTH",
"45 45 OFFCURVE",
"101 -12 OFFCURVE",
"198 -12 CURVE SMOOTH"
);
}
);
width = 461;
},
{
layerId = "EF8420CB-322A-4DAC-B980-DA6E6912705F";
paths = (
{
closed = 1;
nodes = (
"431 261 LINE",
"431 327 LINE SMOOTH",
"431 405 OFFCURVE",
"403 507 OFFCURVE",
"260 507 CURVE SMOOTH",
"201 507 OFFCURVE",
"126 490 OFFCURVE",
"68 460 CURVE",
"95 333 LINE",
"137 356 OFFCURVE",
"182 367 OFFCURVE",
"223 367 CURVE SMOOTH",
"281 367 OFFCURVE",
"317 345 OFFCURVE",
"317 307 CURVE SMOOTH",
"317 261 LINE"
);
},
{
closed = 1;
nodes = (
"260 -12 OFFCURVE",
"336 23 OFFCURVE",
"378 76 CURVE",
"339 173 LINE",
"315 145 OFFCURVE",
"278 116 OFFCURVE",
"241 116 CURVE SMOOTH",
"217 116 OFFCURVE",
"199 128 OFFCURVE",
"199 146 CURVE SMOOTH",
"199 174 OFFCURVE",
"255 199 OFFCURVE",
"338 199 CURVE",
"338 311 LINE",
"149 311 OFFCURVE",
"23 238 OFFCURVE",
"23 128 CURVE SMOOTH",
"23 48 OFFCURVE",
"89 -12 OFFCURVE",
"189 -12 CURVE SMOOTH"
);
}
);
width = 461;
}
);
leftMetricsKey = a;
},
{
export = 0;
glyphname = _o.numero;
layers = (
{
layerId = "D9DFF065-DDB2-4B0F-A853-E0DAE751FB65";
paths = (
{
closed = 1;
nodes = (
"295 136 OFFCURVE",
"358 205 OFFCURVE",
"358 310 CURVE SMOOTH",
"358 414 OFFCURVE",
"295 484 OFFCURVE",
"201 484 CURVE SMOOTH",
"107 484 OFFCURVE",
"44 414 OFFCURVE",
"44 310 CURVE SMOOTH",
"44 205 OFFCURVE",
"107 136 OFFCURVE",
"201 136 CURVE SMOOTH"
);
},
{
closed = 1;
nodes = (
"119 154 OFFCURVE",
"65 216 OFFCURVE",
"65 310 CURVE SMOOTH",
"65 403 OFFCURVE",
"119 465 OFFCURVE",
"201 465 CURVE SMOOTH",
"283 465 OFFCURVE",
"337 403 OFFCURVE",
"337 310 CURVE SMOOTH",
"337 216 OFFCURVE",
"283 154 OFFCURVE",
"201 154 CURVE SMOOTH"
);
},
{
closed = 1;
nodes = (
"70 0 LINE",
"333 0 LINE",
"333 19 LINE",
"70 19 LINE"
);
}
);
width = 402;
userData = {
RMXScaler = {
height = 70;
verticalShift = 144;
width = 70;
};
};
},
{
layerId = "EF8420CB-322A-4DAC-B980-DA6E6912705F";
paths = (
{
closed = 1;
nodes = (
"312 139 OFFCURVE",
"387 212 OFFCURVE",
"387 324 CURVE SMOOTH",
"387 435 OFFCURVE",
"312 509 OFFCURVE",
"200 509 CURVE SMOOTH",
"89 509 OFFCURVE",
"15 435 OFFCURVE",
"15 324 CURVE SMOOTH",
"15 212 OFFCURVE",
"89 139 OFFCURVE",
"200 139 CURVE SMOOTH"
);
},
{
closed = 1;
nodes = (
"181 265 OFFCURVE",
"169 289 OFFCURVE",
"169 324 CURVE SMOOTH",
"169 359 OFFCURVE",
"181 382 OFFCURVE",
"200 382 CURVE SMOOTH",
"220 382 OFFCURVE",
"233 359 OFFCURVE",
"233 324 CURVE SMOOTH",
"233 289 OFFCURVE",
"220 265 OFFCURVE",
"200 265 CURVE SMOOTH"
);
},
{
closed = 1;
nodes = (
"40 0 LINE",
"363 0 LINE",
"363 100 LINE",
"40 100 LINE"
);
}
);
width = 402;
userData = {
RMXScaler = {
height = 70;
verticalShift = 147;
weight = -20;
width = 70;
};
};
}
);
userData = {
RMXScaler = {
source = o;
};
};
},
{
export = 0;
glyphname = _T.trademark;
layers = (
{
layerId = "D9DFF065-DDB2-4B0F-A853-E0DAE751FB65";
paths = (
{
closed = 1;
nodes = (
"203 280 LINE",
"203 700 LINE",
"182 700 LINE",
"182 280 LINE"
);
},
{
closed = 1;
nodes = (
"355 700 LINE",
"29 700 LINE",
"29 681 LINE",
"355 681 LINE"
);
}
);
width = 384;
userData = {
RMXScaler = {
height = 60;
verticalShift = 280;
width = 60;
};
};
},
{
layerId = "EF8420CB-322A-4DAC-B980-DA6E6912705F";
paths = (
{
closed = 1;
nodes = (
"255 281 LINE",
"255 707 LINE",
"120 707 LINE",
"120 281 LINE"
);
},
{
closed = 1;
nodes = (
"366 707 LINE",
"9 707 LINE",
"9 582 LINE",
"366 582 LINE"
);
}
);
width = 375;
userData = {
RMXScaler = {
height = 60;
verticalShift = 281;
weight = -40;
width = 60;
};
};
}
);
userData = {
RMXScaler = {
source = T;
};
};
},
{
export = 0;
glyphname = _M.trademark;
layers = (
{
layerId = "D9DFF065-DDB2-4B0F-A853-E0DAE751FB65";
paths = (
{
closed = 1;
nodes = (
"91 280 LINE",
"91 672 LINE",
"94 672 LINE",
"255 390 LINE",
"270 390 LINE",
"432 672 LINE",
"435 672 LINE",
"435 280 LINE",
"456 280 LINE",
"456 700 LINE",
"426 700 LINE",
"265 418 LINE",
"260 418 LINE",
"100 700 LINE",
"70 700 LINE",
"70 280 LINE"
);
}
);
width = 526;
userData = {
RMXScaler = {
height = 60;
verticalShift = 280;
width = 60;
};
};
},
{
layerId = "EF8420CB-322A-4DAC-B980-DA6E6912705F";
paths = (
{
closed = 1;
nodes = (
"177 281 LINE",
"177 452 LINE",
"182 452 LINE",
"245 344 LINE",
"282 344 LINE",
"345 452 LINE",
"350 452 LINE",
"350 281 LINE",
"486 281 LINE",
"486 707 LINE",
"350 707 LINE",
"266 549 LINE",
"261 549 LINE",
"178 707 LINE",
"41 707 LINE",
"41 281 LINE"
);
}
);
width = 527;
userData = {
RMXScaler = {
height = 60;
verticalShift = 281;
weight = -40;
width = 60;
};
};
}
);
userData = {
RMXScaler = {
source = M;
};
};
},
{
export = 0;
glyphname = _lpound;
layers = (
{
layerId = "D9DFF065-DDB2-4B0F-A853-E0DAE751FB65";
paths = (
{
closed = 1;
nodes = (
"221 167 LINE SMOOTH",
"221 98 OFFCURVE",
"179 39 OFFCURVE",
"117 19 CURVE",
"117 0 LINE",
"524 0 LINE",
"524 19 LINE",
"157 19 LINE",
"207 41 OFFCURVE",
"241 100 OFFCURVE",
"241 167 CURVE SMOOTH",
"241 512 LINE SMOOTH",
"241 615 OFFCURVE",
"301 684 OFFCURVE",
"399 684 CURVE SMOOTH",
"427 684 OFFCURVE",
"457 679 OFFCURVE",
"489 669 CURVE",
"491 686 LINE",
"456 698 OFFCURVE",
"423 704 OFFCURVE",
"393 704 CURVE SMOOTH",
"289 704 OFFCURVE",
"221 627 OFFCURVE",
"221 512 CURVE SMOOTH"
);
}
);
width = 614;
},
{
layerId = "EF8420CB-322A-4DAC-B980-DA6E6912705F";
paths = (
{
closed = 1;
nodes = (
"130 242 LINE SMOOTH",
"130 200 OFFCURVE",
"104 161 OFFCURVE",
"64 144 CURVE",
"64 0 LINE",
"531 0 LINE",
"531 144 LINE",
"237 144 LINE",
"277 162 OFFCURVE",
"303 203 OFFCURVE",
"303 246 CURVE SMOOTH",
"303 452 LINE SMOOTH",
"303 519 OFFCURVE",
"339 561 OFFCURVE",
"395 561 CURVE SMOOTH",
"417 561 OFFCURVE",
"446 554 OFFCURVE",
"469 544 CURVE",
"496 680 LINE",
"464 699 OFFCURVE",
"416 719 OFFCURVE",
"356 719 CURVE SMOOTH",
"222 719 OFFCURVE",
"130 620 OFFCURVE",
"130 472 CURVE SMOOTH"
);
}
);
width = 593;
}
);
},
{
export = 0;
glyphname = _lpound_stroke;
layers = (
{
layerId = "D9DFF065-DDB2-4B0F-A853-E0DAE751FB65";
paths = (
{
closed = 1;
nodes = (
"119 366 LINE",
"119 347 LINE",
"498 347 LINE",
"498 366 LINE"
);
}
);
width = 614;
},
{
layerId = "EF8420CB-322A-4DAC-B980-DA6E6912705F";
paths = (
{
closed = 1;
nodes = (
"76 427 LINE",
"76 287 LINE",
"493 287 LINE",
"493 427 LINE"
);
}
);
width = 593;
}
);
},
{
export = 0;
glyphname = _currency_C;
layers = (
{
layerId = "D9DFF065-DDB2-4B0F-A853-E0DAE751FB65";
paths = (
{
closed = 1;
nodes = (
"598 47 LINE",
"548 21 OFFCURVE",
"495 9 OFFCURVE",
"448 9 CURVE SMOOTH",
"289 9 OFFCURVE",
"181 145 OFFCURVE",
"181 348 CURVE SMOOTH",
"181 554 OFFCURVE",
"289 691 OFFCURVE",
"455 691 CURVE SMOOTH",
"508 691 OFFCURVE",
"556 677 OFFCURVE",
"598 659 CURVE",
"604 678 LINE",
"557 698 OFFCURVE",
"504 712 OFFCURVE",
"450 712 CURVE SMOOTH",
"275 712 OFFCURVE",
"159 566 OFFCURVE",
"159 348 CURVE SMOOTH",
"159 132 OFFCURVE",
"275 -12 OFFCURVE",
"441 -12 CURVE SMOOTH",
"487 -12 OFFCURVE",
"548 -1 OFFCURVE",
"604 28 CURVE"
);
}
